# Blender 3.5.1
# www.blender.org
mtllib Planet ground.mtl
o Cilindro
v 0.000000 1.000000 -1.000000
v 0.062791 1.000000 -0.998027
v 0.125333 1.000000 -0.992115
v 0.187381 1.000000 -0.982287
v 0.248690 1.000000 -0.968583
v 0.309017 1.000000 -0.951057
v 0.368125 1.000000 -0.929776
v 0.425779 1.000000 -0.904827
v 0.481754 1.000000 -0.876307
v 0.535827 1.000000 -0.844328
v 0.587785 1.000000 -0.809017
v 0.637424 1.000000 -0.770513
v 0.684547 1.000000 -0.728969
v 0.728969 1.000000 -0.684547
v 0.770513 1.000000 -0.637424
v 0.809017 1.000000 -0.587785
v 0.844328 1.000000 -0.535827
v 0.876307 1.000000 -0.481754
v 0.904827 1.000000 -0.425779
v 0.929776 1.000000 -0.368125
v 0.951057 1.000000 -0.309017
v 0.968583 1.000000 -0.248690
v 0.982287 1.000000 -0.187381
v 0.992115 1.000000 -0.125333
v 0.998027 1.000000 -0.062791
v 1.000000 1.000000 0.000000
v 0.998027 1.000000 0.062791
v 0.992115 1.000000 0.125333
v 0.982287 1.000000 0.187381
v 0.968583 1.000000 0.248690
v 0.951057 1.000000 0.309017
v 0.929776 1.000000 0.368125
v 0.904827 1.000000 0.425779
v 0.876307 1.000000 0.481754
v 0.844328 1.000000 0.535827
v 0.809017 1.000000 0.587785
v 0.770513 1.000000 0.637424
v 0.728969 1.000000 0.684547
v 0.684547 1.000000 0.728969
v 0.637424 1.000000 0.770513
v 0.587785 1.000000 0.809017
v 0.535827 1.000000 0.844328
v 0.481754 1.000000 0.876307
v 0.425779 1.000000 0.904827
v 0.368125 1.000000 0.929776
v 0.309017 1.000000 0.951057
v 0.248690 1.000000 0.968583
v 0.187381 1.000000 0.982287
v 0.125333 1.000000 0.992115
v 0.062791 1.000000 0.998027
v 0.000000 1.000000 1.000000
v -0.062791 1.000000 0.998027
v -0.125333 1.000000 0.992115
v -0.187381 1.000000 0.982287
v -0.248690 1.000000 0.968583
v -0.309017 1.000000 0.951057
v -0.368125 1.000000 0.929776
v -0.425779 1.000000 0.904827
v -0.481754 1.000000 0.876307
v -0.535827 1.000000 0.844328
v -0.587785 1.000000 0.809017
v -0.637424 1.000000 0.770513
v -0.684547 1.000000 0.728969
v -0.728969 1.000000 0.684547
v -0.770513 1.000000 0.637424
v -0.809017 1.000000 0.587785
v -0.844328 1.000000 0.535827
v -0.876307 1.000000 0.481754
v -0.904827 1.000000 0.425779
v -0.929776 1.000000 0.368125
v -0.951057 1.000000 0.309017
v -0.968583 1.000000 0.248690
v -0.982287 1.000000 0.187381
v -0.992115 1.000000 0.125333
v -0.998027 1.000000 0.062791
v -1.000000 1.000000 0.000000
v -0.998027 1.000000 -0.062791
v -0.992115 1.000000 -0.125333
v -0.982287 1.000000 -0.187381
v -0.968583 1.000000 -0.248690
v -0.951057 1.000000 -0.309017
v -0.929776 1.000000 -0.368125
v -0.904827 1.000000 -0.425779
v -0.876307 1.000000 -0.481754
v -0.844328 1.000000 -0.535827
v -0.809017 1.000000 -0.587785
v -0.770513 1.000000 -0.637424
v -0.728969 1.000000 -0.684547
v -0.684547 1.000000 -0.728969
v -0.637424 1.000000 -0.770513
v -0.587785 1.000000 -0.809017
v -0.535827 1.000000 -0.844328
v -0.481754 1.000000 -0.876307
v -0.425779 1.000000 -0.904827
v -0.368125 1.000000 -0.929776
v -0.309017 1.000000 -0.951057
v -0.248690 1.000000 -0.968583
v -0.187381 1.000000 -0.982287
v -0.125333 1.000000 -0.992115
v -0.062791 1.000000 -0.998027
vn -0.0000 1.0000 -0.0000
vt 0.250000 0.490000
vt 0.265070 0.489526
vt 0.280080 0.488108
vt 0.294972 0.485749
vt 0.309686 0.482460
vt 0.324164 0.478254
vt 0.338350 0.473146
vt 0.352187 0.467158
vt 0.365621 0.460314
vt 0.378598 0.452639
vt 0.391068 0.444164
vt 0.402982 0.434923
vt 0.414291 0.424952
vt 0.424952 0.414291
vt 0.434923 0.402982
vt 0.444164 0.391068
vt 0.452639 0.378598
vt 0.460314 0.365621
vt 0.467158 0.352187
vt 0.473146 0.338350
vt 0.478254 0.324164
vt 0.482460 0.309686
vt 0.485749 0.294972
vt 0.488108 0.280080
vt 0.489526 0.265070
vt 0.490000 0.250000
vt 0.489526 0.234930
vt 0.488108 0.219920
vt 0.485749 0.205028
vt 0.482460 0.190314
vt 0.478254 0.175836
vt 0.473146 0.161650
vt 0.467158 0.147813
vt 0.460314 0.134379
vt 0.452639 0.121402
vt 0.444164 0.108932
vt 0.434923 0.097018
vt 0.424952 0.085709
vt 0.414291 0.075048
vt 0.402982 0.065077
vt 0.391068 0.055836
vt 0.378598 0.047361
vt 0.365621 0.039686
vt 0.352187 0.032842
vt 0.338350 0.026854
vt 0.324164 0.021746
vt 0.309686 0.017540
vt 0.294972 0.014251
vt 0.280080 0.011892
vt 0.265070 0.010474
vt 0.250000 0.010000
vt 0.234930 0.010474
vt 0.219920 0.011892
vt 0.205028 0.014251
vt 0.190314 0.017540
vt 0.175836 0.021746
vt 0.161650 0.026854
vt 0.147813 0.032842
vt 0.134379 0.039686
vt 0.121402 0.047361
vt 0.108932 0.055836
vt 0.097018 0.065077
vt 0.085709 0.075048
vt 0.075048 0.085709
vt 0.065077 0.097018
vt 0.055836 0.108932
vt 0.047361 0.121402
vt 0.039686 0.134379
vt 0.032842 0.147813
vt 0.026854 0.161650
vt 0.021746 0.175836
vt 0.017540 0.190314
vt 0.014251 0.205028
vt 0.011892 0.219920
vt 0.010474 0.234930
vt 0.010000 0.250000
vt 0.010474 0.265070
vt 0.011892 0.280080
vt 0.014251 0.294972
vt 0.017540 0.309686
vt 0.021746 0.324164
vt 0.026854 0.338350
vt 0.032842 0.352187
vt 0.039686 0.365621
vt 0.047361 0.378598
vt 0.055836 0.391068
vt 0.065077 0.402982
vt 0.075048 0.414291
vt 0.085709 0.424952
vt 0.097018 0.434923
vt 0.108932 0.444164
vt 0.121402 0.452639
vt 0.134379 0.460314
vt 0.147813 0.467158
vt 0.161650 0.473146
vt 0.175836 0.478254
vt 0.190314 0.482460
vt 0.205028 0.485749
vt 0.219920 0.488108
vt 0.234930 0.489526
s 0
f 2/2/1 1/1/1 100/100/1 99/99/1 98/98/1 97/97/1 96/96/1 95/95/1 94/94/1 93/93/1 92/92/1 91/91/1 90/90/1 89/89/1 88/88/1 87/87/1 86/86/1 85/85/1 84/84/1 83/83/1 82/82/1 81/81/1 80/80/1 79/79/1 78/78/1 77/77/1 76/76/1 75/75/1 74/74/1 73/73/1 72/72/1 71/71/1 70/70/1 69/69/1 68/68/1 67/67/1 66/66/1 65/65/1 64/64/1 63/63/1 62/62/1 61/61/1 60/60/1 59/59/1 58/58/1 57/57/1 56/56/1 55/55/1 54/54/1 53/53/1 52/52/1 51/51/1 50/50/1 49/49/1 48/48/1 47/47/1 46/46/1 45/45/1 44/44/1 43/43/1 42/42/1 41/41/1 40/40/1 39/39/1 38/38/1 37/37/1 36/36/1 35/35/1 34/34/1 33/33/1 32/32/1 31/31/1 30/30/1 29/29/1 28/28/1 27/27/1 26/26/1 25/25/1 24/24/1 23/23/1 22/22/1 21/21/1 20/20/1 19/19/1 18/18/1 17/17/1 16/16/1 15/15/1 14/14/1 13/13/1 12/12/1 11/11/1 10/10/1 9/9/1 8/8/1 7/7/1 6/6/1 5/5/1 4/4/1 3/3/1
