M48
METRIC,LZ,000.000
;FILE_FORMAT=3:3
;TYPE=PLATED
;Layer: PTH_Through
;EasyEDA v6.5.46, 2026-04-16 10:20:31
;10
;Gerber Generator version 0.2
;Holesize 1 = 0.306 mm
T01C0.306
;Holesize 2 = 0.600 mm
T02C0.600
;Holesize 3 = 0.915 mm
T03C0.915
;Holesize 4 = 1.000 mm
T04C1.000
;Holesize 5 = 1.200 mm
T05C1.200
;Holesize 6 = 1.301 mm
T06C1.301
;Holesize 7 = 1.403 mm
T07C1.403
%
G05
G90
T01
X031966Y053390
X069044Y032739
X054969Y057234
X069238Y055821
X050585Y007637
X073627Y008015
X054763Y003397
X047559Y034181
X042375Y036550
X044794Y055022
X031933Y054562
X050009Y058764
X047273Y058059
X021266Y002931
X029513Y032452
X039632Y042372
X033214Y053976
X040487Y041452
X043442Y033319
X043436Y040866
X081122Y001397
X051862Y046482
T02
X023586Y023909
X027914Y045998
X023596Y020864
X027277Y017390
T03
X045850Y028702G85X045844Y028702
X045850Y031242G85X045844Y031242
X045850Y033782G85X045844Y033782
X045850Y036322G85X045844Y036322
X045850Y038862G85X045844Y038862
X045850Y041402G85X045844Y041402
X045850Y043942G85X045844Y043942
X045850Y046482G85X045844Y046482
X045850Y049022G85X045844Y049022
X045850Y051562G85X045844Y051562
X045850Y054102G85X045844Y054102
X045850Y056642G85X045844Y056642
X045850Y059182G85X045844Y059182
X045850Y061722G85X045844Y061722
X045850Y064262G85X045844Y064262
X045850Y066802G85X045844Y066802
X045850Y069342G85X045844Y069342
X045850Y071882G85X045844Y071882
X045850Y074549G85X045844Y074549
X070121Y074481G85X070115Y074481
X070121Y071941G85X070115Y071941
X070121Y069401G85X070115Y069401
X070121Y066861G85X070115Y066861
X070121Y064321G85X070115Y064321
X070121Y061781G85X070115Y061781
X070121Y059241G85X070115Y059241
X070121Y056701G85X070115Y056701
X070121Y054161G85X070115Y054161
X070121Y051621G85X070115Y051621
X070121Y049081G85X070115Y049081
X070121Y046541G85X070115Y046541
X070121Y044001G85X070115Y044001
X070121Y041461G85X070115Y041461
X070121Y038921G85X070115Y038921
X070121Y036381G85X070115Y036381
X070121Y033841G85X070115Y033841
X070121Y031301G85X070115Y031301
X070121Y028761G85X070115Y028761
T04
X023777Y039370
X027277Y039370
X038453Y039370
X034953Y039370
T05
X051557Y012332
X051567Y014872
X051557Y009792
X079878Y012332
X079888Y014872
X079878Y009792
X063627Y-004114
X066167Y-004124
X061087Y-004114
X089154Y066797
X086614Y066807
X091694Y066797
X089154Y057018
X086614Y057028
X091694Y057018
X089154Y047239
X086614Y047249
X091694Y047239
X089154Y037460
X086614Y037470
X091694Y037460
X089154Y027681
X086614Y027691
X091694Y027681
X089154Y017902
X086614Y017912
X091694Y017902
X089281Y008123
X086741Y008133
X091821Y008123
X089027Y-003307
X086487Y-003297
X091567Y-003307
T06
X042311Y018383
X044311Y012383
X042311Y006383
X030111Y006383
X030111Y018383
X070632Y018383
X072632Y012383
X070632Y006383
X058432Y006383
X058432Y018383
T07
X085649Y075121
X090627Y075121
X045669Y-014351
X040691Y-014351
X023038Y075057
X028016Y075057
X012764Y023928
X012764Y028906
X075489Y075121
X080467Y075121
X035509Y-014351
X030531Y-014351
X012764Y064441
X012764Y069419
X012764Y054281
X012764Y059259
X012764Y044121
X012764Y049099
X012764Y034088
X012764Y039066
X096977Y-014351
X091999Y-014351
X101473Y071323
X101473Y066345
X101473Y061163
X101473Y056185
X101473Y051003
X101473Y046025
X101473Y040843
X101473Y035865
X101473Y030556
X101473Y025578
X101473Y020269
X101473Y015291
X101473Y009982
X101473Y005004
X101473Y-000305
X101473Y-005283
X055702Y-014351
X050724Y-014351
X012764Y013641
X012764Y018619
X012764Y003480
X012764Y008458
X012764Y-006680
X012764Y-001702
X025222Y-014351
X020244Y-014351
X086690Y-014351
X081712Y-014351
X076403Y-014351
X071425Y-014351
X066116Y-014351
X061138Y-014351
X033198Y075121
X038176Y075121
M30
