M48
METRIC,LZ,000.000
;FILE_FORMAT=3:3
;TYPE=PLATED
;Layer: PTH_Through_Via
;EasyEDA v6.5.46, 2026-04-16 10:20:31
;10
;Gerber Generator version 0.2
;Holesize 1 = 0.306 mm
T01C0.306
;Holesize 2 = 0.600 mm
T02C0.600
%
G05
G90
T01
X031966Y053390
X069044Y032739
X054969Y057234
X069238Y055821
X050585Y007637
X073627Y008015
X054763Y003397
X047559Y034181
X042375Y036550
X044794Y055022
X031933Y054562
X050009Y058764
X047273Y058059
X021266Y002931
X029513Y032452
X039632Y042372
X033214Y053976
X040487Y041452
X043442Y033319
X043436Y040866
X081122Y001397
X051862Y046482
T02
X023586Y023909
X027914Y045998
X023596Y020864
X027277Y017390
M30
