G04 Layer: BottomLayer*
G04 EasyEDA v6.5.46, 2026-04-16 10:20:31*
G04 Gerber Generator version 0.2*
G04 Scale: 100 percent, Rotated: No, Reflected: No *
G04 Dimensions in millimeters *
G04 leading zeros omitted , absolute positions ,4 integer and 5 decimal *
%FSLAX45Y45*%
%MOMM*%

%ADD10C,0.2540*%
%ADD11C,1.4000*%
%ADD12R,2.3800X4.2850*%
%ADD13R,4.2850X2.3800*%
%ADD14C,1.6000*%
%ADD15O,2.5999948X1.7999964*%
%ADD16R,2.6000X1.8000*%
%ADD17O,1.7999964X2.5999948*%
%ADD18R,1.8000X2.6000*%
%ADD19C,1.9000*%
%ADD20C,1.5240*%
%ADD21C,0.6100*%
%ADD22C,1.2000*%
%ADD23C,0.0188*%

%LPD*%
G36*
X4424934Y6579209D02*
G01*
X4421022Y6579971D01*
X4417720Y6582206D01*
X4415536Y6585508D01*
X4414774Y6589369D01*
X4414774Y6606895D01*
X4415536Y6610807D01*
X4417720Y6614109D01*
X4467910Y6664299D01*
X4471568Y6666636D01*
X4475886Y6667246D01*
X4480052Y6665975D01*
X4483303Y6663080D01*
X4485030Y6659118D01*
X4486249Y6653225D01*
X4488484Y6646722D01*
X4489043Y6642963D01*
X4488230Y6639306D01*
X4486097Y6636207D01*
X4432096Y6582206D01*
X4428794Y6579971D01*
G37*

%LPD*%
G36*
X5067808Y6001918D02*
G01*
X5063947Y6002680D01*
X5060645Y6004864D01*
X4683506Y6382004D01*
X4681474Y6384899D01*
X4680559Y6388354D01*
X4680864Y6391910D01*
X4684572Y6405219D01*
X4686503Y6408928D01*
X4689754Y6411569D01*
X4693869Y6412636D01*
X4697984Y6411976D01*
X4701540Y6409690D01*
X5074970Y6036208D01*
X5077206Y6032906D01*
X5077968Y6029045D01*
X5077968Y6012078D01*
X5077206Y6008166D01*
X5074970Y6004864D01*
X5071719Y6002680D01*
G37*

%LPD*%
G36*
X1526692Y5466689D02*
G01*
X1522780Y5467451D01*
X1519478Y5469686D01*
X1517294Y5472938D01*
X1516532Y5476849D01*
X1516532Y5546547D01*
X1515770Y5552846D01*
X1513890Y5558282D01*
X1510792Y5563209D01*
X1506728Y5567273D01*
X1501800Y5570372D01*
X1496364Y5572302D01*
X1490014Y5573014D01*
X1082802Y5573014D01*
X1078890Y5573776D01*
X1075588Y5575960D01*
X1073404Y5579262D01*
X1072642Y5583174D01*
X1072642Y5770880D01*
X1073404Y5774740D01*
X1075588Y5778042D01*
X1078890Y5780278D01*
X1082802Y5781040D01*
X1490014Y5781040D01*
X1496364Y5781751D01*
X1501800Y5783630D01*
X1506728Y5786729D01*
X1510792Y5790844D01*
X1513890Y5795721D01*
X1515770Y5801207D01*
X1516532Y5807506D01*
X1516532Y5877153D01*
X1517294Y5881065D01*
X1519478Y5884316D01*
X1522780Y5886551D01*
X1526692Y5887313D01*
X2807614Y5887313D01*
X2811526Y5886551D01*
X2814828Y5884316D01*
X3174695Y5524500D01*
X3176828Y5521248D01*
X3177641Y5517489D01*
X3176981Y5513628D01*
X3174949Y5510377D01*
X3171799Y5508091D01*
X3165144Y5504992D01*
X3157118Y5499354D01*
X3150158Y5492394D01*
X3144520Y5484368D01*
X3138017Y5470296D01*
X3134512Y5467654D01*
X3130245Y5466689D01*
G37*

%LPD*%
G36*
X4676851Y5461558D02*
G01*
X4672787Y5463235D01*
X4669790Y5466435D01*
X4668875Y5467959D01*
X4660392Y5478678D01*
X4650587Y5488178D01*
X4639614Y5496255D01*
X4627676Y5502808D01*
X4614926Y5507685D01*
X4601667Y5510885D01*
X4588103Y5512206D01*
X4574489Y5511749D01*
X4561027Y5509514D01*
X4547616Y5505348D01*
X4543552Y5504942D01*
X4539691Y5506161D01*
X4536592Y5508802D01*
X4534763Y5512409D01*
X4532376Y5521452D01*
X4528210Y5530342D01*
X4522571Y5538419D01*
X4515612Y5545378D01*
X4513021Y5547156D01*
X4510074Y5550408D01*
X4508754Y5554624D01*
X4509312Y5558993D01*
X4511649Y5562701D01*
X4522571Y5573572D01*
X4525365Y5575554D01*
X4528667Y5576468D01*
X4532071Y5576265D01*
X4548022Y5568950D01*
X4561027Y5564886D01*
X4574489Y5562650D01*
X4588103Y5562193D01*
X4601667Y5563514D01*
X4614926Y5566714D01*
X4627676Y5571591D01*
X4639614Y5578144D01*
X4650587Y5586222D01*
X4660392Y5595721D01*
X4668875Y5606440D01*
X4669790Y5607964D01*
X4672787Y5611164D01*
X4676851Y5612841D01*
X4681220Y5612587D01*
X4685080Y5610555D01*
X4687722Y5607100D01*
X4688687Y5602833D01*
X4688687Y5471566D01*
X4687722Y5467299D01*
X4685080Y5463844D01*
X4681220Y5461812D01*
G37*

%LPD*%
G36*
X9944608Y4747361D02*
G01*
X9940696Y4748174D01*
X9937394Y4750409D01*
X9935159Y4753762D01*
X9934448Y4757674D01*
X9935260Y4761585D01*
X9937038Y4765598D01*
X9940239Y4775149D01*
X9942880Y4787950D01*
X9943236Y4790897D01*
X9943744Y4801108D01*
X9943744Y4945227D01*
X9944506Y4949139D01*
X9946741Y4952441D01*
X9949992Y4954625D01*
X9953904Y4955387D01*
X10340898Y4955387D01*
X10344759Y4954625D01*
X10348061Y4952441D01*
X10350246Y4949139D01*
X10351058Y4945227D01*
X10351058Y4757521D01*
X10350246Y4753660D01*
X10348061Y4750358D01*
X10344759Y4748174D01*
X10340898Y4747361D01*
G37*

%LPD*%
G36*
X4392371Y4168698D02*
G01*
X4388510Y4169460D01*
X4385208Y4171645D01*
X4382973Y4174947D01*
X4382211Y4178858D01*
X4382211Y4640884D01*
X4382973Y4644796D01*
X4385208Y4648098D01*
X4540656Y4803546D01*
X4543653Y4805629D01*
X4547209Y4806492D01*
X4550816Y4806035D01*
X4561027Y4802886D01*
X4574489Y4800650D01*
X4588103Y4800193D01*
X4601667Y4801514D01*
X4614926Y4804714D01*
X4627676Y4809591D01*
X4639614Y4816144D01*
X4650587Y4824222D01*
X4660392Y4833721D01*
X4668875Y4844440D01*
X4669790Y4845964D01*
X4672787Y4849164D01*
X4676851Y4850841D01*
X4681220Y4850587D01*
X4685080Y4848555D01*
X4687722Y4845100D01*
X4688687Y4840833D01*
X4688687Y4709566D01*
X4687722Y4705299D01*
X4685080Y4701844D01*
X4681220Y4699812D01*
X4676851Y4699558D01*
X4672787Y4701235D01*
X4669790Y4704435D01*
X4668875Y4705959D01*
X4660392Y4716678D01*
X4650587Y4726178D01*
X4639614Y4734255D01*
X4627676Y4740808D01*
X4614926Y4745685D01*
X4601667Y4748885D01*
X4588103Y4750206D01*
X4574489Y4749749D01*
X4561027Y4747514D01*
X4548022Y4743450D01*
X4535627Y4737709D01*
X4524146Y4730394D01*
X4513732Y4721606D01*
X4504588Y4711446D01*
X4496866Y4700219D01*
X4490720Y4688078D01*
X4486249Y4675174D01*
X4483506Y4661814D01*
X4482592Y4648200D01*
X4483506Y4634585D01*
X4486249Y4621225D01*
X4490720Y4608322D01*
X4496866Y4596180D01*
X4504588Y4584954D01*
X4513732Y4574794D01*
X4524146Y4566005D01*
X4535627Y4558690D01*
X4548022Y4552950D01*
X4561027Y4548886D01*
X4574489Y4546650D01*
X4588103Y4546193D01*
X4601667Y4547514D01*
X4614926Y4550714D01*
X4627676Y4555591D01*
X4639614Y4562144D01*
X4650587Y4570222D01*
X4660392Y4579721D01*
X4668875Y4590440D01*
X4669790Y4591964D01*
X4672787Y4595164D01*
X4676851Y4596841D01*
X4681220Y4596587D01*
X4685080Y4594555D01*
X4687722Y4591100D01*
X4688687Y4586833D01*
X4688687Y4455566D01*
X4687722Y4451299D01*
X4685080Y4447844D01*
X4681220Y4445812D01*
X4676851Y4445558D01*
X4672787Y4447235D01*
X4669790Y4450435D01*
X4668875Y4451959D01*
X4660392Y4462678D01*
X4650587Y4472178D01*
X4639614Y4480255D01*
X4629150Y4485995D01*
X4629150Y4438650D01*
X4678527Y4438650D01*
X4682439Y4437888D01*
X4685690Y4435652D01*
X4687925Y4432401D01*
X4688687Y4428490D01*
X4688687Y4391507D01*
X4687925Y4387596D01*
X4685690Y4384294D01*
X4654143Y4352747D01*
X4650841Y4350512D01*
X4646930Y4349750D01*
X4629150Y4349750D01*
X4629150Y4331970D01*
X4628388Y4328058D01*
X4626152Y4324756D01*
X4610201Y4308805D01*
X4606899Y4306570D01*
X4602988Y4305808D01*
X4550410Y4305808D01*
X4546498Y4306570D01*
X4543247Y4308805D01*
X4541012Y4312056D01*
X4540250Y4315968D01*
X4540250Y4349750D01*
X4493056Y4349750D01*
X4496866Y4342180D01*
X4504588Y4330954D01*
X4513732Y4320794D01*
X4524502Y4311700D01*
X4527194Y4308195D01*
X4528108Y4303877D01*
X4527143Y4299559D01*
X4524400Y4296105D01*
X4522063Y4294124D01*
X4399534Y4171645D01*
X4396282Y4169460D01*
G37*

%LPC*%
G36*
X4493056Y4438650D02*
G01*
X4540250Y4438650D01*
X4540250Y4485843D01*
X4535627Y4483709D01*
X4524146Y4476394D01*
X4513732Y4467606D01*
X4504588Y4457446D01*
X4496866Y4446219D01*
G37*

%LPD*%
G36*
X4693767Y4154119D02*
G01*
X4689652Y4155186D01*
X4686401Y4157827D01*
X4684471Y4161586D01*
X4681118Y4173677D01*
X4675835Y4186224D01*
X4668875Y4197959D01*
X4660392Y4208678D01*
X4650587Y4218178D01*
X4647082Y4220768D01*
X4644542Y4223461D01*
X4643170Y4226864D01*
X4643069Y4230522D01*
X4644288Y4233976D01*
X4646676Y4236821D01*
X4650841Y4240276D01*
X4754270Y4343654D01*
X4759350Y4349851D01*
X4762906Y4356557D01*
X4765141Y4363770D01*
X4765903Y4371797D01*
X4765903Y5760872D01*
X4766665Y5764733D01*
X4768900Y5768035D01*
X4770475Y5769660D01*
X4776114Y5777687D01*
X4780280Y5786577D01*
X4782820Y5796076D01*
X4783683Y5805881D01*
X4782820Y5815685D01*
X4780280Y5825185D01*
X4776114Y5834075D01*
X4770475Y5842101D01*
X4763516Y5849061D01*
X4755489Y5854700D01*
X4746599Y5858865D01*
X4737100Y5861405D01*
X4727295Y5862269D01*
X4717491Y5861405D01*
X4708042Y5858865D01*
X4699101Y5854700D01*
X4691075Y5849061D01*
X4684115Y5842101D01*
X4678476Y5834075D01*
X4674311Y5825185D01*
X4671771Y5815685D01*
X4670907Y5805881D01*
X4671771Y5796076D01*
X4674311Y5786577D01*
X4678476Y5777687D01*
X4684115Y5769660D01*
X4685690Y5768035D01*
X4687925Y5764733D01*
X4688687Y5760872D01*
X4688687Y5725566D01*
X4687722Y5721299D01*
X4685080Y5717844D01*
X4681220Y5715812D01*
X4676851Y5715558D01*
X4672787Y5717235D01*
X4669790Y5720435D01*
X4668875Y5721959D01*
X4660392Y5732678D01*
X4650587Y5742178D01*
X4639614Y5750255D01*
X4627676Y5756808D01*
X4614926Y5761685D01*
X4601667Y5764885D01*
X4588103Y5766206D01*
X4574489Y5765749D01*
X4561027Y5763514D01*
X4548022Y5759450D01*
X4535627Y5753709D01*
X4524146Y5746394D01*
X4513732Y5737606D01*
X4504588Y5727446D01*
X4496866Y5716219D01*
X4492853Y5708243D01*
X4489958Y5704789D01*
X4485894Y5702909D01*
X4481423Y5702960D01*
X4477359Y5704941D01*
X4474616Y5708446D01*
X4473600Y5712815D01*
X4473600Y5869584D01*
X4474616Y5873953D01*
X4477359Y5877458D01*
X4481423Y5879439D01*
X4485894Y5879490D01*
X4489958Y5877610D01*
X4492853Y5874156D01*
X4496866Y5866180D01*
X4504588Y5854954D01*
X4513732Y5844794D01*
X4524146Y5836005D01*
X4535627Y5828690D01*
X4548022Y5822950D01*
X4561027Y5818886D01*
X4574489Y5816650D01*
X4588103Y5816193D01*
X4601667Y5817514D01*
X4614926Y5820714D01*
X4627676Y5825591D01*
X4639614Y5832144D01*
X4650587Y5840222D01*
X4660392Y5849721D01*
X4668875Y5860440D01*
X4675835Y5872175D01*
X4681118Y5884722D01*
X4684725Y5897880D01*
X4686554Y5911392D01*
X4686554Y5925007D01*
X4684725Y5938520D01*
X4681118Y5951677D01*
X4675835Y5964224D01*
X4668875Y5975959D01*
X4660392Y5986678D01*
X4650587Y5996178D01*
X4639614Y6004255D01*
X4627676Y6010808D01*
X4614926Y6015685D01*
X4601667Y6018885D01*
X4588103Y6020206D01*
X4574489Y6019749D01*
X4561027Y6017514D01*
X4550816Y6014364D01*
X4547209Y6013907D01*
X4543653Y6014770D01*
X4540656Y6016853D01*
X4517390Y6040120D01*
X4515154Y6043422D01*
X4514392Y6047333D01*
X4514392Y6077712D01*
X4515307Y6081928D01*
X4517898Y6085382D01*
X4521657Y6087465D01*
X4525975Y6087770D01*
X4530039Y6086246D01*
X4535627Y6082690D01*
X4548022Y6076950D01*
X4561027Y6072886D01*
X4574489Y6070650D01*
X4588103Y6070193D01*
X4601667Y6071514D01*
X4614926Y6074714D01*
X4627676Y6079591D01*
X4639614Y6086144D01*
X4650587Y6094222D01*
X4660392Y6103721D01*
X4668875Y6114440D01*
X4675835Y6126175D01*
X4681118Y6138722D01*
X4684725Y6151880D01*
X4686554Y6165392D01*
X4686554Y6179007D01*
X4684725Y6192520D01*
X4681118Y6205677D01*
X4675835Y6218224D01*
X4668875Y6229959D01*
X4660392Y6240678D01*
X4650587Y6250178D01*
X4639614Y6258255D01*
X4627676Y6264808D01*
X4614926Y6269685D01*
X4601667Y6272885D01*
X4588103Y6274206D01*
X4574489Y6273749D01*
X4561027Y6271514D01*
X4548022Y6267450D01*
X4535627Y6261709D01*
X4530039Y6258153D01*
X4525975Y6256629D01*
X4521657Y6256934D01*
X4517898Y6259017D01*
X4515307Y6262471D01*
X4514392Y6266688D01*
X4514392Y6331712D01*
X4515307Y6335928D01*
X4517898Y6339382D01*
X4521657Y6341465D01*
X4525975Y6341770D01*
X4530039Y6340246D01*
X4535627Y6336690D01*
X4548022Y6330950D01*
X4561027Y6326886D01*
X4574489Y6324650D01*
X4588103Y6324193D01*
X4601667Y6325514D01*
X4614926Y6328714D01*
X4617923Y6329832D01*
X4621733Y6330543D01*
X4625543Y6329730D01*
X4628743Y6327546D01*
X5006340Y5949950D01*
X5008473Y5946800D01*
X5009286Y5943092D01*
X5008676Y5939332D01*
X5006746Y5936030D01*
X5003698Y5933694D01*
X5000040Y5932678D01*
X4991049Y5931865D01*
X4981600Y5929325D01*
X4972659Y5925159D01*
X4964633Y5919571D01*
X4957673Y5912612D01*
X4952034Y5904534D01*
X4947869Y5895644D01*
X4945329Y5886145D01*
X4944465Y5876340D01*
X4945329Y5866587D01*
X4947869Y5857087D01*
X4952034Y5848197D01*
X4957673Y5840120D01*
X4959248Y5838545D01*
X4961483Y5835243D01*
X4962245Y5831332D01*
X4962245Y4422089D01*
X4961483Y4418228D01*
X4959248Y4414926D01*
X4701438Y4157065D01*
X4697882Y4154779D01*
G37*

%LPD*%
G36*
X4287469Y4110278D02*
G01*
X4283252Y4110685D01*
X4279544Y4112768D01*
X4277055Y4116222D01*
X4276140Y4120337D01*
X4276140Y5240121D01*
X4276902Y5243982D01*
X4279138Y5247284D01*
X4466793Y5434939D01*
X4470400Y5437276D01*
X4474667Y5437936D01*
X4478782Y5436717D01*
X4482033Y5433923D01*
X4483862Y5430062D01*
X4483912Y5425744D01*
X4483506Y5423814D01*
X4482592Y5410200D01*
X4483506Y5396585D01*
X4486249Y5383225D01*
X4490720Y5370322D01*
X4496866Y5358180D01*
X4504588Y5346954D01*
X4513732Y5336794D01*
X4524146Y5328005D01*
X4535627Y5320690D01*
X4548022Y5314950D01*
X4561027Y5310886D01*
X4574489Y5308650D01*
X4588103Y5308193D01*
X4601667Y5309514D01*
X4614926Y5312714D01*
X4627676Y5317591D01*
X4639614Y5324144D01*
X4650587Y5332222D01*
X4660392Y5341721D01*
X4668875Y5352440D01*
X4669790Y5353964D01*
X4672787Y5357164D01*
X4676851Y5358841D01*
X4681220Y5358587D01*
X4685080Y5356555D01*
X4687722Y5353100D01*
X4688687Y5348833D01*
X4688687Y5217566D01*
X4687722Y5213299D01*
X4685080Y5209844D01*
X4681220Y5207812D01*
X4676851Y5207558D01*
X4672787Y5209235D01*
X4669790Y5212435D01*
X4668875Y5213959D01*
X4660392Y5224678D01*
X4650587Y5234178D01*
X4639614Y5242255D01*
X4627676Y5248808D01*
X4614926Y5253685D01*
X4601667Y5256885D01*
X4588103Y5258206D01*
X4574489Y5257749D01*
X4561027Y5255514D01*
X4548022Y5251450D01*
X4535627Y5245709D01*
X4524146Y5238394D01*
X4513732Y5229606D01*
X4504588Y5219446D01*
X4496866Y5208219D01*
X4490720Y5196078D01*
X4486249Y5183174D01*
X4483506Y5169814D01*
X4482592Y5156200D01*
X4483506Y5142585D01*
X4486249Y5129225D01*
X4490720Y5116322D01*
X4496866Y5104180D01*
X4504588Y5092954D01*
X4513732Y5082794D01*
X4524146Y5074005D01*
X4535627Y5066690D01*
X4548022Y5060950D01*
X4561027Y5056886D01*
X4574489Y5054650D01*
X4588103Y5054193D01*
X4601667Y5055514D01*
X4614926Y5058714D01*
X4627676Y5063591D01*
X4639614Y5070144D01*
X4650587Y5078222D01*
X4660392Y5087721D01*
X4668875Y5098440D01*
X4669790Y5099964D01*
X4672787Y5103164D01*
X4676851Y5104841D01*
X4681220Y5104587D01*
X4685080Y5102555D01*
X4687722Y5099100D01*
X4688687Y5094833D01*
X4688687Y4963566D01*
X4687722Y4959299D01*
X4685080Y4955844D01*
X4681220Y4953812D01*
X4676851Y4953558D01*
X4672787Y4955235D01*
X4669790Y4958435D01*
X4668875Y4959959D01*
X4660392Y4970678D01*
X4650587Y4980178D01*
X4639614Y4988255D01*
X4627676Y4994808D01*
X4614926Y4999685D01*
X4601667Y5002885D01*
X4588103Y5004206D01*
X4574489Y5003749D01*
X4561027Y5001514D01*
X4548022Y4997450D01*
X4535627Y4991709D01*
X4524146Y4984394D01*
X4513732Y4975606D01*
X4504588Y4965446D01*
X4496866Y4954219D01*
X4490720Y4942078D01*
X4486249Y4929174D01*
X4483506Y4915814D01*
X4482592Y4902200D01*
X4483506Y4888585D01*
X4486249Y4875225D01*
X4488484Y4868722D01*
X4489043Y4864963D01*
X4488230Y4861306D01*
X4486097Y4858207D01*
X4316679Y4688738D01*
X4311548Y4682540D01*
X4307992Y4675835D01*
X4305808Y4668621D01*
X4304995Y4660595D01*
X4304995Y4131614D01*
X4304233Y4127703D01*
X4301998Y4124401D01*
X4300423Y4122826D01*
X4294632Y4114546D01*
X4291533Y4111650D01*
G37*

%LPD*%
G36*
X1526692Y3973576D02*
G01*
X1522780Y3974337D01*
X1519478Y3976573D01*
X1517294Y3979875D01*
X1516532Y3983736D01*
X1516532Y4025087D01*
X1515770Y4031386D01*
X1513890Y4036822D01*
X1510792Y4041749D01*
X1506728Y4045813D01*
X1501800Y4048912D01*
X1496364Y4050842D01*
X1490014Y4051554D01*
X1082802Y4051554D01*
X1078890Y4052315D01*
X1075588Y4054500D01*
X1073404Y4057802D01*
X1072642Y4061714D01*
X1072642Y4257040D01*
X1073404Y4260900D01*
X1075588Y4264202D01*
X1078890Y4266438D01*
X1082802Y4267200D01*
X1490014Y4267200D01*
X1496364Y4267911D01*
X1501800Y4269790D01*
X1506728Y4272889D01*
X1510792Y4277004D01*
X1513890Y4281881D01*
X1515770Y4287367D01*
X1516532Y4293666D01*
X1516532Y4530547D01*
X1515770Y4536846D01*
X1513890Y4542282D01*
X1510792Y4547209D01*
X1506728Y4551273D01*
X1501800Y4554372D01*
X1496364Y4556302D01*
X1490014Y4557014D01*
X1082802Y4557014D01*
X1078890Y4557776D01*
X1075588Y4559960D01*
X1073404Y4563262D01*
X1072642Y4567174D01*
X1072642Y4754880D01*
X1073404Y4758740D01*
X1075588Y4762042D01*
X1078890Y4764278D01*
X1082802Y4765040D01*
X1162862Y4765040D01*
X1162862Y4844084D01*
X1082802Y4844084D01*
X1078890Y4844846D01*
X1075588Y4847082D01*
X1073404Y4850333D01*
X1072642Y4854244D01*
X1072642Y4965598D01*
X1073404Y4969510D01*
X1075588Y4972812D01*
X1078890Y4974996D01*
X1082802Y4975758D01*
X1162862Y4975758D01*
X1162862Y5054854D01*
X1082802Y5054854D01*
X1078890Y5055616D01*
X1075588Y5057800D01*
X1073404Y5061102D01*
X1072642Y5065014D01*
X1072642Y5273040D01*
X1073404Y5276900D01*
X1075588Y5280202D01*
X1078890Y5282438D01*
X1082802Y5283200D01*
X1490014Y5283200D01*
X1496364Y5283911D01*
X1501800Y5285790D01*
X1506728Y5288889D01*
X1510792Y5293004D01*
X1513890Y5297881D01*
X1515770Y5303367D01*
X1516532Y5309666D01*
X1516532Y5379313D01*
X1517294Y5383225D01*
X1519478Y5386476D01*
X1522780Y5388711D01*
X1526692Y5389473D01*
X2923489Y5389473D01*
X2927553Y5388610D01*
X2930906Y5386273D01*
X2933090Y5382717D01*
X2933649Y5378653D01*
X2932531Y5374690D01*
X2929940Y5371439D01*
X2923286Y5365953D01*
X1533855Y3976573D01*
X1530553Y3974337D01*
G37*

%LPC*%
G36*
X1389837Y4765040D02*
G01*
X1490014Y4765040D01*
X1496364Y4765751D01*
X1501800Y4767630D01*
X1506728Y4770729D01*
X1510792Y4774844D01*
X1513890Y4779721D01*
X1515770Y4785207D01*
X1516532Y4791506D01*
X1516532Y4844084D01*
X1389837Y4844084D01*
G37*
G36*
X1389837Y4975758D02*
G01*
X1516532Y4975758D01*
X1516532Y5028387D01*
X1515770Y5034686D01*
X1513890Y5040122D01*
X1510792Y5045049D01*
X1506728Y5049113D01*
X1501800Y5052212D01*
X1496364Y5054142D01*
X1490014Y5054854D01*
X1389837Y5054854D01*
G37*

%LPD*%
G36*
X4433163Y3941216D02*
G01*
X4429252Y3941978D01*
X4425950Y3944162D01*
X4423765Y3947464D01*
X4423003Y3951376D01*
X4423003Y4017314D01*
X4423765Y4021226D01*
X4425950Y4024528D01*
X4436110Y4034637D01*
X4441190Y4040886D01*
X4444746Y4047540D01*
X4446981Y4054754D01*
X4447743Y4062780D01*
X4447743Y4106418D01*
X4448505Y4110329D01*
X4450740Y4113631D01*
X4466793Y4129684D01*
X4470450Y4132021D01*
X4474768Y4132630D01*
X4478934Y4131411D01*
X4482185Y4128515D01*
X4483963Y4124553D01*
X4486249Y4113225D01*
X4490720Y4100322D01*
X4496866Y4088180D01*
X4504588Y4076954D01*
X4513732Y4066794D01*
X4524146Y4058005D01*
X4531817Y4053128D01*
X4534966Y4049928D01*
X4536440Y4045661D01*
X4535932Y4041190D01*
X4533544Y4037380D01*
X4440326Y3944162D01*
X4437024Y3941978D01*
G37*

%LPD*%
G36*
X4474006Y3834333D02*
G01*
X4470146Y3835095D01*
X4466844Y3837279D01*
X4464608Y3840581D01*
X4463846Y3844493D01*
X4463846Y3854297D01*
X4464710Y3858361D01*
X4467098Y3861714D01*
X4469485Y3863949D01*
X4472889Y3866083D01*
X4476851Y3866692D01*
X4480763Y3865727D01*
X4483963Y3863340D01*
X4485995Y3859885D01*
X4488484Y3852722D01*
X4489043Y3848963D01*
X4488230Y3845306D01*
X4486097Y3842207D01*
X4481169Y3837279D01*
X4477918Y3835095D01*
G37*

%LPD*%
G36*
X2936798Y3658768D02*
G01*
X2932887Y3659530D01*
X2929585Y3661714D01*
X2927400Y3665016D01*
X2926638Y3668928D01*
X2926638Y3973423D01*
X2927400Y3977284D01*
X2929585Y3980586D01*
X4181601Y5232603D01*
X4184904Y5234787D01*
X4188764Y5235549D01*
X4192676Y5234787D01*
X4195927Y5232603D01*
X4198162Y5229301D01*
X4198924Y5225389D01*
X4198924Y3699967D01*
X4198162Y3696106D01*
X4195927Y3692804D01*
X4194352Y3691178D01*
X4189984Y3684981D01*
X4186885Y3682085D01*
X4182872Y3680714D01*
X4178604Y3681120D01*
X4174947Y3683203D01*
X4172407Y3686657D01*
X4171543Y3690823D01*
X4171543Y3812692D01*
X4170730Y3820718D01*
X4168546Y3827932D01*
X4164990Y3834637D01*
X4159859Y3840835D01*
X3923741Y4076954D01*
X3917492Y4082084D01*
X3910837Y4085640D01*
X3907536Y4086656D01*
X3903929Y4088637D01*
X3901389Y4091838D01*
X3900322Y4095800D01*
X3900932Y4099864D01*
X3903065Y4103370D01*
X3906418Y4105706D01*
X3910482Y4106519D01*
X4003700Y4106519D01*
X4007612Y4105757D01*
X4010914Y4103573D01*
X4012488Y4101947D01*
X4020565Y4096359D01*
X4029456Y4092194D01*
X4038955Y4089654D01*
X4048760Y4088790D01*
X4058513Y4089654D01*
X4068013Y4092194D01*
X4076903Y4096359D01*
X4084980Y4101947D01*
X4091940Y4108907D01*
X4097578Y4116984D01*
X4101693Y4125874D01*
X4104233Y4135374D01*
X4105097Y4145127D01*
X4104233Y4154932D01*
X4101693Y4164431D01*
X4097578Y4173321D01*
X4091940Y4181398D01*
X4084980Y4188358D01*
X4076903Y4193946D01*
X4068013Y4198112D01*
X4058513Y4200652D01*
X4048760Y4201515D01*
X4038955Y4200652D01*
X4029456Y4198112D01*
X4025950Y4196486D01*
X4021937Y4195521D01*
X4017924Y4196232D01*
X4014470Y4198518D01*
X4012234Y4201922D01*
X4011523Y4205986D01*
X4012437Y4209999D01*
X4016146Y4217873D01*
X4018686Y4227372D01*
X4019550Y4237177D01*
X4018686Y4246981D01*
X4016146Y4256481D01*
X4011980Y4265371D01*
X4006342Y4273397D01*
X3999382Y4280357D01*
X3991356Y4285996D01*
X3982465Y4290161D01*
X3972966Y4292701D01*
X3963162Y4293565D01*
X3953357Y4292701D01*
X3943908Y4290161D01*
X3934968Y4285996D01*
X3926941Y4280357D01*
X3925315Y4278782D01*
X3922014Y4276547D01*
X3918153Y4275785D01*
X3574491Y4275785D01*
X3566464Y4274972D01*
X3559251Y4272788D01*
X3552596Y4269232D01*
X3546348Y4264101D01*
X2943961Y3661714D01*
X2940659Y3659530D01*
G37*

%LPD*%
G36*
X4711700Y3457498D02*
G01*
X4707839Y3458260D01*
X4704537Y3460496D01*
X4638903Y3526078D01*
X4636160Y3528364D01*
X4633671Y3531412D01*
X4632502Y3535172D01*
X4632858Y3539083D01*
X4634687Y3542588D01*
X4637735Y3545128D01*
X4642053Y3547922D01*
X4645253Y3549497D01*
X4648809Y3549904D01*
X4652314Y3548989D01*
X4655261Y3546906D01*
X4723587Y3478580D01*
X4725974Y3474872D01*
X4726533Y3470503D01*
X4725212Y3466287D01*
X4722266Y3463086D01*
X4715611Y3458260D01*
G37*

%LPD*%
G36*
X4335627Y3399282D02*
G01*
X4331716Y3400044D01*
X4328414Y3402279D01*
X4174490Y3556203D01*
X4172305Y3559505D01*
X4171543Y3563365D01*
X4171543Y3619093D01*
X4172407Y3623259D01*
X4174947Y3626713D01*
X4178604Y3628796D01*
X4182872Y3629202D01*
X4186885Y3627831D01*
X4189984Y3624935D01*
X4194352Y3618737D01*
X4201312Y3611778D01*
X4209338Y3606139D01*
X4218279Y3601974D01*
X4227728Y3599434D01*
X4237532Y3598570D01*
X4247337Y3599434D01*
X4256836Y3601974D01*
X4265726Y3606139D01*
X4273753Y3611778D01*
X4280712Y3618737D01*
X4286351Y3626764D01*
X4290517Y3635654D01*
X4293057Y3645154D01*
X4293920Y3654958D01*
X4293057Y3664762D01*
X4290517Y3674262D01*
X4286351Y3683152D01*
X4280712Y3691178D01*
X4279138Y3692804D01*
X4276902Y3696106D01*
X4276140Y3699967D01*
X4276140Y4052824D01*
X4277055Y4056938D01*
X4279544Y4060393D01*
X4283252Y4062476D01*
X4287469Y4062882D01*
X4291533Y4061510D01*
X4294632Y4058615D01*
X4300423Y4050334D01*
X4307382Y4043375D01*
X4315409Y4037787D01*
X4324350Y4033621D01*
X4333798Y4031081D01*
X4336491Y4030827D01*
X4340098Y4029811D01*
X4343095Y4027576D01*
X4345076Y4024376D01*
X4345787Y4020718D01*
X4345787Y3409442D01*
X4344974Y3405581D01*
X4342790Y3402279D01*
X4339488Y3400044D01*
G37*

%LPD*%
G36*
X4477105Y3398926D02*
G01*
X4473041Y3399637D01*
X4469638Y3401872D01*
X4466844Y3404717D01*
X4464608Y3408019D01*
X4463846Y3411931D01*
X4463846Y3522065D01*
X4464608Y3525977D01*
X4466844Y3529279D01*
X4470146Y3531463D01*
X4474006Y3532225D01*
X4477918Y3531463D01*
X4481169Y3529279D01*
X4531004Y3479444D01*
X4533442Y3475634D01*
X4533950Y3471164D01*
X4532477Y3466896D01*
X4529328Y3463696D01*
X4524146Y3460394D01*
X4513732Y3451606D01*
X4504588Y3441446D01*
X4496866Y3430219D01*
X4490720Y3418078D01*
X4486452Y3405733D01*
X4484370Y3402228D01*
X4481068Y3399840D01*
G37*

%LPD*%
G36*
X4477054Y3141370D02*
G01*
X4472838Y3141827D01*
X4469180Y3143910D01*
X4466640Y3147364D01*
X4465777Y3151479D01*
X4465777Y3201670D01*
X4466539Y3205581D01*
X4468774Y3208883D01*
X4477664Y3217773D01*
X4482744Y3223971D01*
X4486300Y3230676D01*
X4488535Y3237890D01*
X4489297Y3245916D01*
X4489297Y3305454D01*
X4490110Y3309416D01*
X4492396Y3312769D01*
X4495800Y3314954D01*
X4499813Y3315614D01*
X4503724Y3314649D01*
X4506976Y3312261D01*
X4513732Y3304794D01*
X4524146Y3296005D01*
X4535627Y3288690D01*
X4548022Y3282950D01*
X4561027Y3278886D01*
X4574489Y3276650D01*
X4588103Y3276193D01*
X4601667Y3277514D01*
X4614926Y3280714D01*
X4627676Y3285591D01*
X4639614Y3292144D01*
X4642510Y3294278D01*
X4646574Y3296056D01*
X4651044Y3295954D01*
X4655007Y3293922D01*
X4657699Y3290417D01*
X4658715Y3286099D01*
X4658715Y3216300D01*
X4657699Y3211982D01*
X4655007Y3208477D01*
X4651044Y3206445D01*
X4646574Y3206343D01*
X4642510Y3208121D01*
X4639614Y3210255D01*
X4627676Y3216808D01*
X4614926Y3221685D01*
X4601667Y3224885D01*
X4588103Y3226206D01*
X4574489Y3225749D01*
X4561027Y3223514D01*
X4548022Y3219450D01*
X4535627Y3213709D01*
X4524146Y3206394D01*
X4513732Y3197606D01*
X4504588Y3187446D01*
X4496866Y3176219D01*
X4490720Y3164078D01*
X4486249Y3151174D01*
X4485894Y3149447D01*
X4484217Y3145586D01*
X4481068Y3142742D01*
G37*

%LPD*%
G36*
X5027015Y3055518D02*
G01*
X5023154Y3056280D01*
X5019852Y3058515D01*
X4856022Y3222294D01*
X4853838Y3225596D01*
X4853076Y3229508D01*
X4853076Y3441852D01*
X4852263Y3449878D01*
X4850079Y3457092D01*
X4846523Y3463747D01*
X4841392Y3469995D01*
X4689551Y3621836D01*
X4687316Y3625138D01*
X4686554Y3629050D01*
X4686554Y3639007D01*
X4684725Y3652520D01*
X4681118Y3665677D01*
X4675835Y3678224D01*
X4668875Y3689959D01*
X4660392Y3700678D01*
X4650587Y3710178D01*
X4639614Y3718255D01*
X4627676Y3724808D01*
X4614926Y3729685D01*
X4601667Y3732885D01*
X4588103Y3734206D01*
X4574489Y3733749D01*
X4561027Y3731514D01*
X4548022Y3727450D01*
X4535627Y3721709D01*
X4519726Y3711600D01*
X4515916Y3711092D01*
X4512208Y3712006D01*
X4509109Y3714242D01*
X4507077Y3717493D01*
X4506366Y3721252D01*
X4506366Y3749040D01*
X4507128Y3752900D01*
X4509312Y3756202D01*
X4540656Y3787546D01*
X4543653Y3789629D01*
X4547209Y3790492D01*
X4550816Y3790035D01*
X4561027Y3786886D01*
X4574489Y3784650D01*
X4588103Y3784193D01*
X4601667Y3785514D01*
X4614926Y3788714D01*
X4627676Y3793591D01*
X4639614Y3800144D01*
X4650587Y3808222D01*
X4660392Y3817721D01*
X4668875Y3828440D01*
X4675835Y3840175D01*
X4681118Y3852722D01*
X4684725Y3865879D01*
X4686554Y3879392D01*
X4686554Y3893007D01*
X4684725Y3906520D01*
X4681118Y3919677D01*
X4675835Y3932224D01*
X4668875Y3943959D01*
X4660392Y3954678D01*
X4650587Y3964178D01*
X4641189Y3971086D01*
X4638344Y3974337D01*
X4637074Y3978503D01*
X4637684Y3982821D01*
X4640021Y3986479D01*
X5019852Y4366260D01*
X5023154Y4368495D01*
X5027015Y4369257D01*
X5030927Y4368495D01*
X5034178Y4366260D01*
X5036413Y4362958D01*
X5037175Y4359097D01*
X5037175Y3065678D01*
X5036413Y3061817D01*
X5034178Y3058515D01*
X5030927Y3056280D01*
G37*

%LPD*%
G36*
X4475937Y2984398D02*
G01*
X4472076Y2985160D01*
X4468774Y2987395D01*
X4466539Y2990697D01*
X4465777Y2994558D01*
X4465777Y3096920D01*
X4466640Y3101035D01*
X4469180Y3104489D01*
X4472838Y3106572D01*
X4477054Y3107029D01*
X4481068Y3105658D01*
X4484217Y3102813D01*
X4485894Y3098952D01*
X4486249Y3097225D01*
X4490720Y3084322D01*
X4496866Y3072180D01*
X4504588Y3060954D01*
X4513732Y3050794D01*
X4523435Y3042615D01*
X4526127Y3039059D01*
X4527042Y3034741D01*
X4526076Y3030474D01*
X4523333Y3026968D01*
X4519879Y3024124D01*
X4483100Y2987395D01*
X4479848Y2985160D01*
G37*

%LPD*%
G36*
X4317238Y1926894D02*
G01*
X4313326Y1927656D01*
X4309770Y1930044D01*
X4297883Y1939036D01*
X4284980Y1946452D01*
X4271264Y1952294D01*
X4256989Y1956358D01*
X4242257Y1958644D01*
X4227372Y1959102D01*
X4212539Y1957730D01*
X4198010Y1954530D01*
X4183989Y1949602D01*
X4170679Y1942947D01*
X4159961Y1935835D01*
X4157268Y1934565D01*
X4154322Y1934159D01*
X4140911Y1934159D01*
X4136999Y1934921D01*
X4133697Y1937156D01*
X4131513Y1940407D01*
X4130751Y1944319D01*
X4130751Y3466236D01*
X4131513Y3470097D01*
X4133697Y3473399D01*
X4136999Y3475634D01*
X4140911Y3476396D01*
X4144772Y3475634D01*
X4148074Y3473399D01*
X4285030Y3336493D01*
X4287012Y3333597D01*
X4287926Y3330194D01*
X4288637Y3322116D01*
X4291177Y3312617D01*
X4295343Y3303727D01*
X4300982Y3295700D01*
X4307941Y3288741D01*
X4315968Y3283102D01*
X4321454Y3280562D01*
X4324807Y3278073D01*
X4326839Y3274466D01*
X4327296Y3270148D01*
X4327296Y1937054D01*
X4326534Y1933193D01*
X4324350Y1929942D01*
X4321098Y1927707D01*
G37*

%LPD*%
G36*
X4306824Y1421079D02*
G01*
X4302963Y1421841D01*
X4299661Y1424025D01*
X4297426Y1427327D01*
X4296664Y1431239D01*
X4296664Y1530756D01*
X4297426Y1534668D01*
X4299661Y1537970D01*
X4371238Y1609547D01*
X4374540Y1611731D01*
X4378401Y1612493D01*
X4382312Y1611731D01*
X4385564Y1609547D01*
X4387799Y1606245D01*
X4388561Y1602333D01*
X4388561Y1502816D01*
X4387799Y1498904D01*
X4385564Y1495602D01*
X4313986Y1424025D01*
X4310735Y1421841D01*
G37*

%LPD*%
G36*
X4366463Y1341221D02*
G01*
X4362196Y1341424D01*
X4358436Y1343304D01*
X4355744Y1346606D01*
X4354626Y1350670D01*
X4355287Y1354886D01*
X4357573Y1358442D01*
X4415180Y1415999D01*
X4418482Y1418234D01*
X4422394Y1418996D01*
X4426254Y1418234D01*
X4429556Y1415999D01*
X4431741Y1412697D01*
X4432554Y1408836D01*
X4432554Y1404620D01*
X4433316Y1396593D01*
X4435500Y1389380D01*
X4439056Y1382725D01*
X4445152Y1375460D01*
X4447032Y1372057D01*
X4447489Y1368247D01*
X4446473Y1364488D01*
X4444136Y1361389D01*
X4440834Y1359408D01*
X4437024Y1358798D01*
X4427372Y1359103D01*
X4412538Y1357731D01*
X4398010Y1354531D01*
X4383989Y1349603D01*
X4370374Y1342745D01*
G37*

%LPD*%
G36*
X5003495Y789432D02*
G01*
X4999126Y789990D01*
X4995418Y792327D01*
X4554880Y1232916D01*
X4552797Y1235913D01*
X4551934Y1239469D01*
X4551629Y1243888D01*
X4552188Y1247902D01*
X4554321Y1251356D01*
X4557623Y1253744D01*
X4561586Y1254658D01*
X4565599Y1253947D01*
X4568952Y1251661D01*
X5011470Y809142D01*
X5013502Y806246D01*
X5014417Y802843D01*
X5014112Y799338D01*
X5012639Y796137D01*
X5010912Y793699D01*
X5007660Y790752D01*
G37*

%LPD*%
G36*
X5423865Y369062D02*
G01*
X5419496Y369620D01*
X5415788Y372008D01*
X5087112Y700684D01*
X5084724Y704392D01*
X5084165Y708710D01*
X5085486Y712927D01*
X5088483Y716178D01*
X5094732Y720547D01*
X5101691Y727506D01*
X5107330Y735533D01*
X5111445Y744423D01*
X5113985Y753922D01*
X5114848Y763727D01*
X5113985Y773531D01*
X5111445Y783031D01*
X5107330Y791921D01*
X5101691Y799947D01*
X5100066Y801573D01*
X5097881Y804875D01*
X5097119Y808736D01*
X5097119Y816254D01*
X5096306Y824280D01*
X5094122Y831494D01*
X5090566Y838200D01*
X5085435Y844397D01*
X5083860Y845972D01*
X5081676Y849274D01*
X5080863Y853186D01*
X5081676Y857046D01*
X5083860Y860348D01*
X5087162Y862584D01*
X5091023Y863346D01*
X5285130Y863346D01*
X5291480Y864057D01*
X5296916Y865936D01*
X5301792Y869035D01*
X5305907Y873150D01*
X5309006Y878027D01*
X5310886Y883513D01*
X5311597Y889812D01*
X5311597Y1068679D01*
X5310886Y1074978D01*
X5309006Y1080465D01*
X5305907Y1085342D01*
X5301792Y1089456D01*
X5296916Y1092555D01*
X5291480Y1094435D01*
X5285130Y1095146D01*
X5026253Y1095146D01*
X5019954Y1094435D01*
X5014468Y1092555D01*
X5009591Y1089456D01*
X5005476Y1085342D01*
X5002428Y1080465D01*
X5000498Y1074978D01*
X4999786Y1068679D01*
X4999786Y954582D01*
X4999024Y950671D01*
X4996840Y947419D01*
X4993538Y945184D01*
X4989626Y944422D01*
X4985766Y945184D01*
X4982464Y947419D01*
X4512716Y1417116D01*
X4510532Y1420418D01*
X4509770Y1424330D01*
X4509770Y2778658D01*
X4510684Y2782874D01*
X4513224Y2786329D01*
X4517034Y2788412D01*
X4521352Y2788716D01*
X4525365Y2787243D01*
X4535627Y2780690D01*
X4540250Y2778556D01*
X4540250Y2825750D01*
X4519930Y2825750D01*
X4516018Y2826512D01*
X4512716Y2828747D01*
X4510532Y2831998D01*
X4509770Y2835910D01*
X4509770Y2900578D01*
X4510532Y2904490D01*
X4512716Y2907792D01*
X4516628Y2911652D01*
X4519930Y2913888D01*
X4523790Y2914650D01*
X4540250Y2914650D01*
X4540250Y2931109D01*
X4541012Y2934970D01*
X4543247Y2938272D01*
X4560570Y2955594D01*
X4563872Y2957830D01*
X4567732Y2958592D01*
X4617974Y2958592D01*
X4622190Y2958134D01*
X4625797Y2956052D01*
X4628286Y2952597D01*
X4629150Y2948482D01*
X4629150Y2914650D01*
X4676495Y2914650D01*
X4675835Y2916224D01*
X4668875Y2927959D01*
X4660392Y2938678D01*
X4650587Y2948178D01*
X4644491Y2952699D01*
X4641951Y2955340D01*
X4640580Y2958744D01*
X4640478Y2962452D01*
X4641697Y2965907D01*
X4644034Y2968701D01*
X4645914Y2970276D01*
X4699914Y3024225D01*
X4703216Y3026460D01*
X4707128Y3027222D01*
X4710988Y3026460D01*
X4714290Y3024225D01*
X4716475Y3020923D01*
X4717288Y3017062D01*
X4717288Y2979928D01*
X4718050Y2971901D01*
X4720234Y2964688D01*
X4723790Y2958033D01*
X4728921Y2951784D01*
X5434685Y2246020D01*
X5436920Y2242718D01*
X5437682Y2238806D01*
X5437682Y384759D01*
X5436920Y380847D01*
X5434685Y377545D01*
X5431282Y373329D01*
X5428030Y370382D01*
G37*

%LPC*%
G36*
X5116017Y1117346D02*
G01*
X5195366Y1117346D01*
X5210251Y1118260D01*
X5224526Y1121003D01*
X5238343Y1125474D01*
X5251551Y1131671D01*
X5263845Y1139494D01*
X5275021Y1148791D01*
X5284978Y1159357D01*
X5293563Y1171143D01*
X5300573Y1183894D01*
X5305907Y1197457D01*
X5309514Y1211529D01*
X5311343Y1225956D01*
X5311343Y1240536D01*
X5309514Y1254963D01*
X5305907Y1269034D01*
X5300573Y1282598D01*
X5293563Y1295349D01*
X5284978Y1307134D01*
X5275021Y1317701D01*
X5263845Y1326997D01*
X5251551Y1334820D01*
X5238343Y1341018D01*
X5224526Y1345488D01*
X5210251Y1348232D01*
X5195366Y1349146D01*
X5116017Y1349146D01*
X5101183Y1348232D01*
X5086908Y1345488D01*
X5073040Y1341018D01*
X5059883Y1334820D01*
X5047589Y1326997D01*
X5036362Y1317701D01*
X5026406Y1307134D01*
X5017871Y1295349D01*
X5010861Y1282598D01*
X5005476Y1269034D01*
X5001869Y1254963D01*
X5000040Y1240536D01*
X5000040Y1225956D01*
X5001869Y1211529D01*
X5005476Y1197457D01*
X5010861Y1183894D01*
X5017871Y1171143D01*
X5026406Y1159357D01*
X5036362Y1148791D01*
X5047589Y1139494D01*
X5059883Y1131671D01*
X5073040Y1125474D01*
X5086908Y1121003D01*
X5101183Y1118260D01*
G37*
G36*
X5085334Y1375816D02*
G01*
X5085334Y1435912D01*
X5012944Y1435912D01*
X5018836Y1425143D01*
X5027422Y1413357D01*
X5037378Y1402791D01*
X5048605Y1393494D01*
X5060899Y1385671D01*
X5074056Y1379474D01*
G37*
G36*
X5228031Y1375816D02*
G01*
X5239359Y1379474D01*
X5252516Y1385671D01*
X5264810Y1393494D01*
X5276037Y1402791D01*
X5285994Y1413357D01*
X5294528Y1425143D01*
X5300472Y1435912D01*
X5228031Y1435912D01*
G37*
G36*
X5228031Y1538579D02*
G01*
X5300472Y1538579D01*
X5294528Y1549349D01*
X5285994Y1561134D01*
X5276037Y1571701D01*
X5264810Y1580997D01*
X5252516Y1588820D01*
X5239359Y1595018D01*
X5228031Y1598676D01*
G37*
G36*
X5012944Y1538579D02*
G01*
X5085334Y1538579D01*
X5085334Y1598676D01*
X5074056Y1595018D01*
X5060899Y1588820D01*
X5048605Y1580997D01*
X5037378Y1571701D01*
X5027422Y1561134D01*
X5018836Y1549349D01*
G37*
G36*
X4629150Y2778404D02*
G01*
X4639614Y2784144D01*
X4650587Y2792222D01*
X4660392Y2801721D01*
X4668875Y2812440D01*
X4675835Y2824175D01*
X4676495Y2825750D01*
X4629150Y2825750D01*
G37*

%LPD*%
G36*
X8258149Y-1805178D02*
G01*
X8253882Y-1804263D01*
X8250428Y-1801571D01*
X8248396Y-1797710D01*
X8248142Y-1793341D01*
X8249767Y-1789328D01*
X8254695Y-1781708D01*
X8259216Y-1772615D01*
X8260334Y-1769922D01*
X8263585Y-1760270D01*
X8266226Y-1747469D01*
X8266582Y-1744522D01*
X8267090Y-1734312D01*
X8267090Y-1685442D01*
X8267852Y-1681530D01*
X8270087Y-1678228D01*
X8273338Y-1676044D01*
X8277250Y-1675282D01*
X8289594Y-1675282D01*
X8295944Y-1674520D01*
X8301380Y-1672640D01*
X8306308Y-1669542D01*
X8310372Y-1665478D01*
X8313470Y-1660550D01*
X8315350Y-1655114D01*
X8316112Y-1648764D01*
X8316112Y-1221435D01*
X8315350Y-1215085D01*
X8313470Y-1209649D01*
X8310372Y-1204722D01*
X8306308Y-1200658D01*
X8301380Y-1197559D01*
X8295944Y-1195679D01*
X8289594Y-1194968D01*
X8052765Y-1194968D01*
X8046415Y-1195679D01*
X8040979Y-1197559D01*
X8036052Y-1200658D01*
X8031988Y-1204722D01*
X8028889Y-1209649D01*
X8027009Y-1215085D01*
X8026298Y-1221435D01*
X8026298Y-1628698D01*
X8025485Y-1632559D01*
X8023301Y-1635861D01*
X8019999Y-1638046D01*
X8016138Y-1638858D01*
X7795412Y-1638858D01*
X7791500Y-1638046D01*
X7788198Y-1635861D01*
X7786014Y-1632559D01*
X7785252Y-1628698D01*
X7785252Y-1221435D01*
X7784490Y-1215085D01*
X7782610Y-1209649D01*
X7779512Y-1204722D01*
X7775448Y-1200658D01*
X7770520Y-1197559D01*
X7765084Y-1195679D01*
X7758734Y-1194968D01*
X7746390Y-1194968D01*
X7742478Y-1194155D01*
X7739227Y-1191971D01*
X7736992Y-1188669D01*
X7736230Y-1184808D01*
X7736230Y-263956D01*
X7735722Y-253695D01*
X7735366Y-250799D01*
X7732725Y-237947D01*
X7729474Y-228346D01*
X7728356Y-225653D01*
X7723835Y-216509D01*
X7722362Y-214020D01*
X7716621Y-205587D01*
X7714843Y-203301D01*
X7707934Y-195681D01*
X6998919Y513384D01*
X6996684Y516737D01*
X6995922Y520750D01*
X6996836Y524713D01*
X6999224Y528015D01*
X7002678Y530098D01*
X7006691Y530707D01*
X7010603Y529640D01*
X7016089Y526948D01*
X7030110Y521970D01*
X7044639Y518820D01*
X7059472Y517398D01*
X7074357Y517906D01*
X7089089Y520141D01*
X7103364Y524256D01*
X7117080Y530047D01*
X7129983Y537464D01*
X7141870Y546455D01*
X7152538Y556818D01*
X7161885Y568401D01*
X7169708Y581050D01*
X7175906Y594563D01*
X7180427Y608787D01*
X7183170Y623417D01*
X7184085Y638251D01*
X7183170Y653084D01*
X7180427Y667715D01*
X7175906Y681939D01*
X7169708Y695452D01*
X7161885Y708101D01*
X7152538Y719683D01*
X7141870Y730046D01*
X7129983Y739038D01*
X7117080Y746455D01*
X7103364Y752246D01*
X7089089Y756361D01*
X7074357Y758647D01*
X7059472Y759104D01*
X7044639Y757732D01*
X7030110Y754532D01*
X7016089Y749604D01*
X7002780Y742950D01*
X6990334Y734720D01*
X6979056Y725017D01*
X6968998Y714044D01*
X6960412Y701903D01*
X6953402Y688797D01*
X6948017Y674878D01*
X6944359Y660450D01*
X6942531Y645718D01*
X6942531Y630834D01*
X6944359Y616051D01*
X6948017Y601624D01*
X6953402Y587705D01*
X6954215Y586232D01*
X6955383Y582269D01*
X6954875Y578205D01*
X6952843Y574649D01*
X6949541Y572211D01*
X6945528Y571246D01*
X6941515Y571957D01*
X6938060Y574243D01*
X5942076Y1570177D01*
X5939891Y1573479D01*
X5939129Y1577390D01*
X5939129Y1761388D01*
X5939688Y1764741D01*
X5949696Y1781048D01*
X5955944Y1794560D01*
X5960465Y1808784D01*
X5963158Y1823415D01*
X5964072Y1838248D01*
X5963158Y1853133D01*
X5960465Y1867763D01*
X5955944Y1881936D01*
X5949696Y1895449D01*
X5941872Y1908098D01*
X5932525Y1919681D01*
X5921857Y1930044D01*
X5909970Y1939036D01*
X5897067Y1946452D01*
X5883402Y1952294D01*
X5869076Y1956358D01*
X5854344Y1958644D01*
X5839460Y1959102D01*
X5824677Y1957730D01*
X5810097Y1954530D01*
X5796076Y1949602D01*
X5782767Y1942947D01*
X5770372Y1934718D01*
X5759043Y1925066D01*
X5749036Y1914042D01*
X5740400Y1901901D01*
X5733389Y1888794D01*
X5728004Y1874926D01*
X5724398Y1860448D01*
X5722569Y1845716D01*
X5722569Y1830832D01*
X5724398Y1816049D01*
X5728004Y1801622D01*
X5733389Y1787702D01*
X5740400Y1774596D01*
X5745429Y1767535D01*
X5746800Y1764741D01*
X5747308Y1761693D01*
X5747308Y1533702D01*
X5747816Y1523492D01*
X5748172Y1520545D01*
X5750052Y1510588D01*
X5750814Y1507744D01*
X5754065Y1498092D01*
X5755182Y1495399D01*
X5759704Y1486306D01*
X5761177Y1483766D01*
X5766866Y1475384D01*
X5768695Y1473047D01*
X5775553Y1465427D01*
X7541463Y-300431D01*
X7543647Y-303733D01*
X7544409Y-307594D01*
X7544409Y-1184808D01*
X7543647Y-1188669D01*
X7541463Y-1191971D01*
X7538161Y-1194155D01*
X7534249Y-1194968D01*
X7521905Y-1194968D01*
X7515555Y-1195679D01*
X7510119Y-1197559D01*
X7505192Y-1200658D01*
X7501128Y-1204722D01*
X7498029Y-1209649D01*
X7496149Y-1215085D01*
X7495438Y-1221435D01*
X7495438Y-1591818D01*
X7494625Y-1595729D01*
X7492441Y-1599031D01*
X7489139Y-1601216D01*
X7485278Y-1601978D01*
X7481366Y-1601216D01*
X7478064Y-1599031D01*
X7445756Y-1566722D01*
X7443571Y-1563420D01*
X7442809Y-1559509D01*
X7442809Y-843635D01*
X7442250Y-833374D01*
X7441895Y-830478D01*
X7440015Y-820470D01*
X7439253Y-817625D01*
X7436053Y-808024D01*
X7430363Y-796188D01*
X7428890Y-793699D01*
X7423200Y-785266D01*
X7421372Y-782980D01*
X7414514Y-775360D01*
X6736842Y-97688D01*
X6729222Y-90830D01*
X6726936Y-89001D01*
X6718553Y-83312D01*
X6716014Y-81838D01*
X6706920Y-77317D01*
X6704177Y-76200D01*
X6694576Y-72948D01*
X6691731Y-72186D01*
X6681724Y-70307D01*
X6678828Y-69951D01*
X6668566Y-69443D01*
X5861405Y-69443D01*
X5857494Y-68630D01*
X5854192Y-66446D01*
X5508548Y279196D01*
X5506212Y282905D01*
X5505602Y287274D01*
X5506923Y291490D01*
X5509920Y294741D01*
X5512511Y296519D01*
X5519470Y303479D01*
X5525109Y311556D01*
X5529275Y320446D01*
X5531815Y329946D01*
X5532678Y339699D01*
X5531815Y349504D01*
X5529275Y359003D01*
X5525109Y367893D01*
X5519470Y375970D01*
X5517896Y377545D01*
X5515660Y380847D01*
X5514898Y384759D01*
X5514898Y2258517D01*
X5514136Y2266543D01*
X5511901Y2273757D01*
X5508345Y2280462D01*
X5503265Y2286660D01*
X4797450Y2992475D01*
X4795266Y2995777D01*
X4794504Y2999638D01*
X4794504Y3150108D01*
X4795266Y3154019D01*
X4797450Y3157321D01*
X4800752Y3159506D01*
X4804664Y3160268D01*
X4808524Y3159506D01*
X4811826Y3157321D01*
X9146743Y-1177594D01*
X9148927Y-1180896D01*
X9149689Y-1184808D01*
X9148927Y-1188669D01*
X9146743Y-1191971D01*
X9143441Y-1194155D01*
X9139529Y-1194968D01*
X9081465Y-1194968D01*
X9075115Y-1195679D01*
X9069679Y-1197559D01*
X9064752Y-1200658D01*
X9060688Y-1204722D01*
X9057589Y-1209649D01*
X9055709Y-1215085D01*
X9054998Y-1221435D01*
X9054998Y-1648764D01*
X9055709Y-1655114D01*
X9057589Y-1660550D01*
X9060688Y-1665478D01*
X9064752Y-1669542D01*
X9069679Y-1672640D01*
X9075115Y-1674520D01*
X9081465Y-1675282D01*
X9318294Y-1675282D01*
X9324644Y-1674520D01*
X9330080Y-1672640D01*
X9335008Y-1669542D01*
X9339072Y-1665478D01*
X9342170Y-1660550D01*
X9344050Y-1655114D01*
X9344812Y-1648764D01*
X9344812Y-1221435D01*
X9344050Y-1215085D01*
X9342170Y-1209649D01*
X9339072Y-1204722D01*
X9335008Y-1200658D01*
X9330080Y-1197559D01*
X9324644Y-1195679D01*
X9318294Y-1194968D01*
X9248648Y-1194968D01*
X9244787Y-1194155D01*
X9241485Y-1191971D01*
X9239250Y-1188669D01*
X9238488Y-1184808D01*
X9238488Y-1176629D01*
X9237726Y-1168603D01*
X9235490Y-1161389D01*
X9231934Y-1154734D01*
X9226854Y-1148486D01*
X8988958Y-910590D01*
X8986723Y-907338D01*
X8985961Y-903427D01*
X8986723Y-899515D01*
X8988958Y-896264D01*
X8992260Y-894029D01*
X8996121Y-893267D01*
X9339224Y-893267D01*
X9343136Y-894029D01*
X9346438Y-896264D01*
X9627768Y-1177594D01*
X9630003Y-1180896D01*
X9630765Y-1184808D01*
X9630003Y-1188669D01*
X9627768Y-1191971D01*
X9624466Y-1194155D01*
X9620605Y-1194968D01*
X9579305Y-1194968D01*
X9572955Y-1195679D01*
X9567519Y-1197559D01*
X9562592Y-1200658D01*
X9558528Y-1204722D01*
X9555429Y-1209649D01*
X9553549Y-1215085D01*
X9552838Y-1221435D01*
X9552838Y-1648764D01*
X9553549Y-1655114D01*
X9555429Y-1660550D01*
X9558528Y-1665478D01*
X9562592Y-1669542D01*
X9567519Y-1672640D01*
X9572955Y-1674520D01*
X9579305Y-1675282D01*
X9755936Y-1675282D01*
X9759848Y-1676044D01*
X9763150Y-1678228D01*
X9765334Y-1681530D01*
X9766096Y-1685442D01*
X9765334Y-1689303D01*
X9763150Y-1692605D01*
X9653524Y-1802180D01*
X9650222Y-1804416D01*
X9646361Y-1805178D01*
G37*

%LPC*%
G36*
X8550605Y-1675282D02*
G01*
X8787434Y-1675282D01*
X8793784Y-1674520D01*
X8799220Y-1672640D01*
X8804148Y-1669542D01*
X8808212Y-1665478D01*
X8811310Y-1660550D01*
X8813190Y-1655114D01*
X8813952Y-1648764D01*
X8813952Y-1221435D01*
X8813190Y-1215085D01*
X8811310Y-1209649D01*
X8808212Y-1204722D01*
X8804148Y-1200658D01*
X8799220Y-1197559D01*
X8793784Y-1195679D01*
X8787434Y-1194968D01*
X8550605Y-1194968D01*
X8544255Y-1195679D01*
X8538819Y-1197559D01*
X8533892Y-1200658D01*
X8529828Y-1204722D01*
X8526729Y-1209649D01*
X8524849Y-1215085D01*
X8524138Y-1221435D01*
X8524138Y-1648764D01*
X8524849Y-1655114D01*
X8526729Y-1660550D01*
X8529828Y-1665478D01*
X8533892Y-1669542D01*
X8538819Y-1672640D01*
X8544255Y-1674520D01*
G37*
G36*
X5839460Y517398D02*
G01*
X5854344Y517906D01*
X5869076Y520141D01*
X5883402Y524256D01*
X5897067Y530047D01*
X5909970Y537464D01*
X5921857Y546455D01*
X5932525Y556818D01*
X5941872Y568401D01*
X5949696Y581050D01*
X5955944Y594563D01*
X5960465Y608787D01*
X5963158Y623417D01*
X5964072Y638251D01*
X5963158Y653084D01*
X5960465Y667715D01*
X5955944Y681939D01*
X5949696Y695452D01*
X5941872Y708101D01*
X5932525Y719683D01*
X5921857Y730046D01*
X5909970Y739038D01*
X5897067Y746455D01*
X5883402Y752246D01*
X5869076Y756361D01*
X5854344Y758647D01*
X5839460Y759104D01*
X5824677Y757732D01*
X5810097Y754532D01*
X5796076Y749604D01*
X5782767Y742950D01*
X5770372Y734720D01*
X5759043Y725017D01*
X5749036Y714044D01*
X5740400Y701903D01*
X5733389Y688797D01*
X5728004Y674878D01*
X5724398Y660450D01*
X5722569Y645718D01*
X5722569Y630834D01*
X5724398Y616051D01*
X5728004Y601624D01*
X5733389Y587705D01*
X5740400Y574598D01*
X5749036Y562457D01*
X5759043Y551484D01*
X5770372Y541782D01*
X5782767Y533552D01*
X5796076Y526948D01*
X5810097Y521970D01*
X5824677Y518820D01*
G37*

%LPD*%
G36*
X1200556Y-1974088D02*
G01*
X1169924Y-1973122D01*
X1140256Y-1970278D01*
X1110843Y-1965604D01*
X1081786Y-1959102D01*
X1053185Y-1950770D01*
X1025194Y-1940661D01*
X997864Y-1928825D01*
X971346Y-1915261D01*
X945692Y-1900072D01*
X921105Y-1883359D01*
X897585Y-1865071D01*
X875233Y-1845360D01*
X854202Y-1824278D01*
X834542Y-1801926D01*
X816305Y-1778406D01*
X799541Y-1753768D01*
X784402Y-1728114D01*
X770890Y-1701546D01*
X759104Y-1674215D01*
X749046Y-1646174D01*
X740765Y-1617573D01*
X734263Y-1588516D01*
X729640Y-1559102D01*
X726846Y-1529435D01*
X725932Y-1499463D01*
X725932Y7499451D01*
X726897Y7530084D01*
X729691Y7559700D01*
X734364Y7589113D01*
X740918Y7618171D01*
X749249Y7646771D01*
X759358Y7674813D01*
X771194Y7702143D01*
X784707Y7728661D01*
X799896Y7754264D01*
X816660Y7778902D01*
X834948Y7802422D01*
X854659Y7824724D01*
X875690Y7845806D01*
X898042Y7865465D01*
X921613Y7883702D01*
X946251Y7900416D01*
X971905Y7915554D01*
X998423Y7929067D01*
X1025753Y7940903D01*
X1053795Y7950962D01*
X1082395Y7959242D01*
X1111504Y7965694D01*
X1140917Y7970367D01*
X1170533Y7973161D01*
X1200556Y7974075D01*
X10199420Y7974075D01*
X10230053Y7973110D01*
X10259720Y7970266D01*
X10289133Y7965592D01*
X10318191Y7959090D01*
X10346791Y7950758D01*
X10374782Y7940649D01*
X10402112Y7928813D01*
X10428630Y7915249D01*
X10454284Y7900060D01*
X10478871Y7883347D01*
X10502392Y7865059D01*
X10524744Y7845348D01*
X10545775Y7824266D01*
X10565434Y7801914D01*
X10583672Y7778394D01*
X10600436Y7753756D01*
X10615574Y7728102D01*
X10629087Y7701534D01*
X10640872Y7674203D01*
X10650931Y7646162D01*
X10659211Y7617561D01*
X10665714Y7588503D01*
X10670336Y7559090D01*
X10673130Y7529423D01*
X10674096Y7499451D01*
X10674096Y-1499463D01*
X10673080Y-1530096D01*
X10670286Y-1559712D01*
X10665612Y-1589125D01*
X10659059Y-1618183D01*
X10650728Y-1646783D01*
X10640618Y-1674825D01*
X10628782Y-1702155D01*
X10615269Y-1728673D01*
X10600080Y-1754276D01*
X10583316Y-1778914D01*
X10565028Y-1802434D01*
X10545318Y-1824736D01*
X10524286Y-1845818D01*
X10501934Y-1865477D01*
X10478363Y-1883714D01*
X10453725Y-1900428D01*
X10428071Y-1915566D01*
X10401554Y-1929079D01*
X10374223Y-1940915D01*
X10346182Y-1950974D01*
X10317581Y-1959254D01*
X10288473Y-1965706D01*
X10259060Y-1970379D01*
X10229443Y-1973173D01*
X10199420Y-1974088D01*
X9777425Y-1974088D01*
X9773564Y-1973325D01*
X9770262Y-1971090D01*
X9768078Y-1967839D01*
X9767265Y-1963928D01*
X9768078Y-1960016D01*
X9770262Y-1956765D01*
X9986924Y-1740103D01*
X9993782Y-1732483D01*
X9995611Y-1730146D01*
X10001300Y-1721764D01*
X10002774Y-1719224D01*
X10008463Y-1707438D01*
X10011664Y-1697786D01*
X10012426Y-1694942D01*
X10014305Y-1684985D01*
X10014661Y-1682038D01*
X10015220Y-1671828D01*
X10015220Y-804265D01*
X10014661Y-794004D01*
X10014305Y-791108D01*
X10012426Y-781100D01*
X10011664Y-778256D01*
X10008463Y-768654D01*
X10002774Y-756818D01*
X10001300Y-754329D01*
X9995611Y-745896D01*
X9993782Y-743610D01*
X9986924Y-735990D01*
X9946741Y-695807D01*
X9944506Y-692505D01*
X9943744Y-688594D01*
X9943744Y-683412D01*
X9944506Y-679500D01*
X9946741Y-676198D01*
X9949992Y-674014D01*
X9953904Y-673252D01*
X10360964Y-673252D01*
X10367314Y-672490D01*
X10372750Y-670610D01*
X10377678Y-667512D01*
X10381742Y-663448D01*
X10384840Y-658520D01*
X10386720Y-653084D01*
X10387482Y-646734D01*
X10387482Y-634390D01*
X10388244Y-630478D01*
X10390428Y-627227D01*
X10393730Y-624992D01*
X10397642Y-624230D01*
X10446410Y-624230D01*
X10459821Y-623316D01*
X10472623Y-620623D01*
X10485069Y-616204D01*
X10491063Y-613308D01*
X10496600Y-610260D01*
X10502239Y-606501D01*
X10507319Y-602691D01*
X10512399Y-598220D01*
X10516819Y-593852D01*
X10523372Y-586079D01*
X10528960Y-577799D01*
X10530433Y-575310D01*
X10536123Y-563473D01*
X10539323Y-553872D01*
X10540085Y-551027D01*
X10541965Y-541020D01*
X10542320Y-538124D01*
X10542879Y-527862D01*
X10542879Y6633972D01*
X10541914Y6647383D01*
X10539272Y6660184D01*
X10534853Y6672630D01*
X10531906Y6678574D01*
X10528858Y6684162D01*
X10525099Y6689801D01*
X10521340Y6694830D01*
X10516870Y6699910D01*
X10512450Y6704330D01*
X10504728Y6710883D01*
X10496448Y6716522D01*
X10493908Y6717995D01*
X10484815Y6722516D01*
X10482122Y6723634D01*
X10472470Y6726885D01*
X10459669Y6729526D01*
X10456773Y6729882D01*
X10446512Y6730390D01*
X10397642Y6730390D01*
X10393730Y6731152D01*
X10390428Y6733387D01*
X10388244Y6736638D01*
X10387482Y6740550D01*
X10387482Y6752894D01*
X10386720Y6759244D01*
X10384840Y6764680D01*
X10381742Y6769608D01*
X10377678Y6773672D01*
X10372750Y6776770D01*
X10367314Y6778650D01*
X10360964Y6779361D01*
X9933635Y6779361D01*
X9927285Y6778650D01*
X9921849Y6776770D01*
X9916922Y6773672D01*
X9912858Y6769608D01*
X9909759Y6764680D01*
X9907879Y6759244D01*
X9907168Y6752894D01*
X9907168Y6516065D01*
X9907879Y6509715D01*
X9909759Y6504279D01*
X9912858Y6499352D01*
X9916922Y6495288D01*
X9921849Y6492189D01*
X9927285Y6490309D01*
X9933635Y6489547D01*
X10340898Y6489547D01*
X10344759Y6488785D01*
X10348061Y6486601D01*
X10350246Y6483299D01*
X10351058Y6479387D01*
X10351058Y6271361D01*
X10350246Y6267500D01*
X10348061Y6264198D01*
X10344759Y6262014D01*
X10340898Y6261201D01*
X9933635Y6261201D01*
X9927285Y6260490D01*
X9921849Y6258610D01*
X9916922Y6255512D01*
X9912858Y6251448D01*
X9909759Y6246520D01*
X9907879Y6241084D01*
X9907168Y6234734D01*
X9907168Y6222390D01*
X9906355Y6218478D01*
X9904171Y6215227D01*
X9900869Y6212992D01*
X9897008Y6212230D01*
X9231223Y6212230D01*
X9221012Y6211722D01*
X9218066Y6211366D01*
X9205264Y6208725D01*
X9195612Y6205474D01*
X9192920Y6204356D01*
X9183827Y6199835D01*
X9181287Y6198362D01*
X9170568Y6190843D01*
X9162948Y6183934D01*
X8847785Y5868771D01*
X8840927Y5861151D01*
X8839098Y5858865D01*
X8833408Y5850432D01*
X8831935Y5847943D01*
X8827414Y5838799D01*
X8826296Y5836107D01*
X8823045Y5826506D01*
X8822283Y5823661D01*
X8820404Y5813755D01*
X8819489Y5806998D01*
X8818473Y5804865D01*
X8813850Y5797651D01*
X8807653Y5784443D01*
X8803182Y5770626D01*
X8800439Y5756351D01*
X8799525Y5741466D01*
X8799525Y5662117D01*
X8800439Y5647283D01*
X8803182Y5633008D01*
X8807653Y5619140D01*
X8813850Y5605983D01*
X8821674Y5593689D01*
X8830919Y5582462D01*
X8841536Y5572506D01*
X8853322Y5563971D01*
X8866073Y5556961D01*
X8879586Y5551576D01*
X8893708Y5547969D01*
X8908135Y5546140D01*
X8922664Y5546140D01*
X8937142Y5547969D01*
X8951214Y5551576D01*
X8964777Y5556961D01*
X8977528Y5563971D01*
X8989263Y5572506D01*
X8999880Y5582462D01*
X9009176Y5593689D01*
X9016949Y5605983D01*
X9023146Y5619140D01*
X9027668Y5633008D01*
X9030411Y5647283D01*
X9031325Y5662117D01*
X9031325Y5741466D01*
X9030411Y5756351D01*
X9027566Y5771032D01*
X9027515Y5774283D01*
X9028480Y5777433D01*
X9030360Y5780074D01*
X9036151Y5785866D01*
X9039453Y5788101D01*
X9043365Y5788863D01*
X9047226Y5788101D01*
X9050528Y5785866D01*
X9052712Y5782564D01*
X9053525Y5778703D01*
X9053525Y5572353D01*
X9054236Y5566054D01*
X9056116Y5560618D01*
X9059214Y5555691D01*
X9063278Y5551627D01*
X9068206Y5548528D01*
X9073642Y5546598D01*
X9079992Y5545886D01*
X9258858Y5545886D01*
X9265158Y5546598D01*
X9270644Y5548528D01*
X9275521Y5551627D01*
X9279636Y5555691D01*
X9282684Y5560618D01*
X9284614Y5566054D01*
X9285325Y5572353D01*
X9285325Y5831230D01*
X9284614Y5837580D01*
X9282684Y5843016D01*
X9279636Y5847943D01*
X9275521Y5852007D01*
X9270644Y5855106D01*
X9265158Y5856986D01*
X9258858Y5857697D01*
X9132519Y5857697D01*
X9128658Y5858510D01*
X9125356Y5860694D01*
X9123121Y5863996D01*
X9122359Y5867857D01*
X9123121Y5871768D01*
X9125356Y5875070D01*
X9267698Y6017412D01*
X9271000Y6019647D01*
X9274911Y6020409D01*
X9897008Y6020409D01*
X9900869Y6019647D01*
X9904171Y6017412D01*
X9906355Y6014161D01*
X9907168Y6010249D01*
X9907168Y5997905D01*
X9907879Y5991555D01*
X9909759Y5986119D01*
X9912858Y5981192D01*
X9916922Y5977128D01*
X9921849Y5974029D01*
X9927285Y5972149D01*
X9933635Y5971387D01*
X10340898Y5971387D01*
X10344759Y5970625D01*
X10348061Y5968441D01*
X10350246Y5965139D01*
X10351058Y5961227D01*
X10351058Y5773521D01*
X10350246Y5769660D01*
X10348061Y5766358D01*
X10344759Y5764174D01*
X10340898Y5763361D01*
X9933635Y5763361D01*
X9927285Y5762650D01*
X9921849Y5760770D01*
X9916922Y5757672D01*
X9912858Y5753608D01*
X9909759Y5748680D01*
X9907879Y5743244D01*
X9907168Y5736894D01*
X9907168Y5500065D01*
X9907879Y5493715D01*
X9909759Y5488279D01*
X9912858Y5483352D01*
X9916922Y5479288D01*
X9921849Y5476189D01*
X9927285Y5474309D01*
X9933635Y5473547D01*
X10340898Y5473547D01*
X10344759Y5472785D01*
X10348061Y5470601D01*
X10350246Y5467299D01*
X10351058Y5463387D01*
X10351058Y5255361D01*
X10350246Y5251500D01*
X10348061Y5248198D01*
X10344759Y5246014D01*
X10340898Y5245201D01*
X9933635Y5245201D01*
X9927285Y5244490D01*
X9921849Y5242610D01*
X9916922Y5239512D01*
X9912858Y5235448D01*
X9909759Y5230520D01*
X9907879Y5225084D01*
X9907168Y5218734D01*
X9907168Y5206390D01*
X9906355Y5202478D01*
X9904171Y5199227D01*
X9900869Y5196992D01*
X9897008Y5196230D01*
X9847986Y5196230D01*
X9841280Y5195976D01*
X9834778Y5195316D01*
X9828326Y5194198D01*
X9821976Y5192674D01*
X9815728Y5190693D01*
X9809632Y5188305D01*
X9803739Y5185460D01*
X9797999Y5182260D01*
X9792512Y5178653D01*
X9787331Y5174691D01*
X9782403Y5170424D01*
X9777730Y5165801D01*
X9773462Y5160822D01*
X9769500Y5155641D01*
X9765893Y5150154D01*
X9762693Y5144465D01*
X9759899Y5138521D01*
X9757460Y5132425D01*
X9755479Y5126177D01*
X9753955Y5119827D01*
X9752838Y5113375D01*
X9752177Y5106873D01*
X9751923Y5100167D01*
X9751923Y4844796D01*
X9751161Y4840884D01*
X9748977Y4837582D01*
X8847785Y3936441D01*
X8840927Y3928821D01*
X8839098Y3926535D01*
X8833408Y3918102D01*
X8831935Y3915613D01*
X8827414Y3906469D01*
X8826296Y3903776D01*
X8823045Y3894175D01*
X8822283Y3891330D01*
X8820404Y3881323D01*
X8820048Y3878427D01*
X8819540Y3868165D01*
X8819540Y3853738D01*
X8819134Y3850894D01*
X8817914Y3848252D01*
X8813850Y3841851D01*
X8807653Y3828694D01*
X8803182Y3814826D01*
X8800439Y3800551D01*
X8799525Y3785717D01*
X8799525Y3706317D01*
X8800439Y3691483D01*
X8803182Y3677208D01*
X8807653Y3663340D01*
X8813850Y3650183D01*
X8821674Y3637889D01*
X8830919Y3626662D01*
X8841536Y3616706D01*
X8853322Y3608171D01*
X8866073Y3601161D01*
X8879586Y3595776D01*
X8893708Y3592169D01*
X8908135Y3590340D01*
X8922664Y3590340D01*
X8937142Y3592169D01*
X8951214Y3595776D01*
X8964777Y3601161D01*
X8977528Y3608171D01*
X8989263Y3616706D01*
X8999880Y3626662D01*
X9009176Y3637889D01*
X9016949Y3650183D01*
X9023146Y3663340D01*
X9027668Y3677208D01*
X9030411Y3691483D01*
X9031325Y3706317D01*
X9031325Y3785717D01*
X9030411Y3800551D01*
X9027668Y3814826D01*
X9023146Y3828694D01*
X9022384Y3830269D01*
X9021419Y3834282D01*
X9022130Y3838346D01*
X9024416Y3841800D01*
X9036151Y3853535D01*
X9039453Y3855770D01*
X9043365Y3856532D01*
X9047226Y3855770D01*
X9050528Y3853535D01*
X9052712Y3850233D01*
X9053525Y3846372D01*
X9053525Y3616604D01*
X9054236Y3610254D01*
X9056116Y3604818D01*
X9059214Y3599891D01*
X9063278Y3595827D01*
X9068206Y3592728D01*
X9073642Y3590798D01*
X9079992Y3590086D01*
X9258858Y3590086D01*
X9265158Y3590798D01*
X9270644Y3592728D01*
X9275521Y3595827D01*
X9279636Y3599891D01*
X9282684Y3604818D01*
X9284614Y3610254D01*
X9285325Y3616604D01*
X9285325Y3875430D01*
X9284614Y3881780D01*
X9282684Y3887215D01*
X9279636Y3892143D01*
X9275521Y3896207D01*
X9270644Y3899306D01*
X9265158Y3901186D01*
X9258858Y3901897D01*
X9109049Y3901897D01*
X9105188Y3902710D01*
X9101886Y3904894D01*
X9099702Y3908196D01*
X9098889Y3912057D01*
X9099702Y3915968D01*
X9101886Y3919270D01*
X9889794Y4707178D01*
X9893096Y4709363D01*
X9897008Y4710176D01*
X9900869Y4709363D01*
X9904171Y4707178D01*
X9906355Y4703876D01*
X9907168Y4700016D01*
X9907168Y4484065D01*
X9907879Y4477715D01*
X9909759Y4472279D01*
X9912858Y4467352D01*
X9916922Y4463288D01*
X9921849Y4460189D01*
X9927285Y4458309D01*
X9933635Y4457547D01*
X10340898Y4457547D01*
X10344759Y4456785D01*
X10348061Y4454601D01*
X10350246Y4451299D01*
X10351058Y4447387D01*
X10351058Y4239361D01*
X10350246Y4235500D01*
X10348061Y4232198D01*
X10344759Y4230014D01*
X10340898Y4229201D01*
X9933635Y4229201D01*
X9927285Y4228490D01*
X9921849Y4226610D01*
X9916922Y4223512D01*
X9912858Y4219448D01*
X9909759Y4214520D01*
X9907879Y4209084D01*
X9907168Y4202734D01*
X9907168Y3965905D01*
X9907879Y3959555D01*
X9909759Y3954119D01*
X9912858Y3949192D01*
X9916922Y3945128D01*
X9921849Y3942029D01*
X9927285Y3940149D01*
X9933635Y3939387D01*
X10340898Y3939387D01*
X10344759Y3938625D01*
X10348061Y3936441D01*
X10350246Y3933139D01*
X10351058Y3929227D01*
X10351058Y3741521D01*
X10350246Y3737660D01*
X10348061Y3734358D01*
X10344759Y3732174D01*
X10340898Y3731361D01*
X9933635Y3731361D01*
X9927285Y3730650D01*
X9921849Y3728770D01*
X9916922Y3725672D01*
X9912858Y3721608D01*
X9909759Y3716680D01*
X9907879Y3711244D01*
X9907168Y3704894D01*
X9907168Y3468065D01*
X9907879Y3461715D01*
X9909759Y3456279D01*
X9912858Y3451351D01*
X9916922Y3447287D01*
X9921849Y3444189D01*
X9927285Y3442309D01*
X9933635Y3441547D01*
X10340898Y3441547D01*
X10344759Y3440785D01*
X10348061Y3438601D01*
X10350246Y3435299D01*
X10351058Y3431387D01*
X10351058Y3210661D01*
X10350246Y3206800D01*
X10348061Y3203498D01*
X10344759Y3201314D01*
X10340898Y3200501D01*
X9933635Y3200501D01*
X9927285Y3199790D01*
X9921849Y3197910D01*
X9916922Y3194812D01*
X9912858Y3190748D01*
X9909759Y3185820D01*
X9907879Y3180384D01*
X9907168Y3174034D01*
X9907168Y2937205D01*
X9907879Y2930855D01*
X9909759Y2925419D01*
X9912858Y2920492D01*
X9916922Y2916428D01*
X9921849Y2913329D01*
X9927285Y2911449D01*
X9933635Y2910687D01*
X10340898Y2910687D01*
X10344759Y2909925D01*
X10348061Y2907741D01*
X10350246Y2904439D01*
X10351058Y2900527D01*
X10351058Y2712821D01*
X10350246Y2708960D01*
X10348061Y2705658D01*
X10344759Y2703474D01*
X10340898Y2702661D01*
X9933635Y2702661D01*
X9927285Y2701950D01*
X9921849Y2700070D01*
X9916922Y2696972D01*
X9912858Y2692908D01*
X9909759Y2687980D01*
X9907879Y2682544D01*
X9907168Y2676194D01*
X9907168Y2439365D01*
X9907879Y2433015D01*
X9909759Y2427579D01*
X9912858Y2422652D01*
X9916922Y2418588D01*
X9921849Y2415489D01*
X9927285Y2413609D01*
X9933635Y2412847D01*
X10340898Y2412847D01*
X10344759Y2412085D01*
X10348061Y2409901D01*
X10350246Y2406599D01*
X10351058Y2402687D01*
X10351058Y2181961D01*
X10350246Y2178100D01*
X10348061Y2174798D01*
X10344759Y2172614D01*
X10340898Y2171801D01*
X9933635Y2171801D01*
X9927285Y2171090D01*
X9921849Y2169210D01*
X9916922Y2166112D01*
X9912858Y2162048D01*
X9909759Y2157120D01*
X9907879Y2151684D01*
X9907168Y2145334D01*
X9907168Y2132990D01*
X9906355Y2129078D01*
X9904171Y2125827D01*
X9900869Y2123592D01*
X9897008Y2122830D01*
X9053423Y2122830D01*
X9043212Y2122322D01*
X9040266Y2121966D01*
X9027464Y2119325D01*
X9017812Y2116074D01*
X9015120Y2114956D01*
X9006027Y2110435D01*
X9003487Y2108962D01*
X8992768Y2101443D01*
X8985148Y2094534D01*
X8847785Y1957171D01*
X8840927Y1949551D01*
X8839098Y1947265D01*
X8833408Y1938832D01*
X8831935Y1936343D01*
X8827414Y1927199D01*
X8826296Y1924507D01*
X8823045Y1914906D01*
X8822283Y1912061D01*
X8820404Y1902155D01*
X8819489Y1895398D01*
X8818473Y1893265D01*
X8813850Y1886051D01*
X8807653Y1872843D01*
X8803182Y1859025D01*
X8800439Y1844751D01*
X8799525Y1829866D01*
X8799525Y1750517D01*
X8800439Y1735683D01*
X8803182Y1721408D01*
X8807653Y1707540D01*
X8813850Y1694383D01*
X8821674Y1682089D01*
X8830919Y1670862D01*
X8841536Y1660906D01*
X8853322Y1652371D01*
X8866073Y1645361D01*
X8879586Y1639976D01*
X8893708Y1636369D01*
X8908135Y1634540D01*
X8922664Y1634540D01*
X8937142Y1636369D01*
X8951214Y1639976D01*
X8964777Y1645361D01*
X8977528Y1652371D01*
X8989263Y1660906D01*
X8999880Y1670862D01*
X9009176Y1682089D01*
X9016949Y1694383D01*
X9023146Y1707540D01*
X9027668Y1721408D01*
X9030411Y1735683D01*
X9031325Y1750517D01*
X9031325Y1829866D01*
X9030411Y1844751D01*
X9027566Y1859432D01*
X9027515Y1862683D01*
X9028480Y1865833D01*
X9030360Y1868474D01*
X9036151Y1874266D01*
X9039453Y1876501D01*
X9043365Y1877263D01*
X9047226Y1876501D01*
X9050528Y1874266D01*
X9052712Y1870964D01*
X9053525Y1867103D01*
X9053525Y1660753D01*
X9054236Y1654454D01*
X9056116Y1649018D01*
X9059214Y1644091D01*
X9063278Y1640027D01*
X9068206Y1636928D01*
X9073642Y1634998D01*
X9079992Y1634286D01*
X9258858Y1634286D01*
X9265158Y1634998D01*
X9270644Y1636928D01*
X9275521Y1640027D01*
X9279636Y1644091D01*
X9282684Y1649018D01*
X9284614Y1654454D01*
X9285325Y1660753D01*
X9285325Y1919630D01*
X9285732Y1923948D01*
X9287814Y1927606D01*
X9291269Y1930146D01*
X9295384Y1931009D01*
X9897008Y1931009D01*
X9900869Y1930247D01*
X9904171Y1928012D01*
X9906355Y1924761D01*
X9907168Y1920849D01*
X9907168Y1908505D01*
X9907879Y1902155D01*
X9909759Y1896719D01*
X9912858Y1891792D01*
X9916922Y1887728D01*
X9921849Y1884629D01*
X9927285Y1882749D01*
X9933635Y1881987D01*
X10340898Y1881987D01*
X10344759Y1881225D01*
X10348061Y1879041D01*
X10350246Y1875739D01*
X10351058Y1871827D01*
X10351058Y1684121D01*
X10350246Y1680260D01*
X10348061Y1676958D01*
X10344759Y1674774D01*
X10340898Y1673961D01*
X9933635Y1673961D01*
X9927285Y1673250D01*
X9921849Y1671370D01*
X9916922Y1668272D01*
X9912858Y1664207D01*
X9909759Y1659280D01*
X9907879Y1653844D01*
X9907168Y1647494D01*
X9907168Y1410665D01*
X9907879Y1404315D01*
X9909759Y1398879D01*
X9912858Y1393952D01*
X9916922Y1389888D01*
X9921849Y1386789D01*
X9927285Y1384909D01*
X9933635Y1384147D01*
X10340898Y1384147D01*
X10344759Y1383385D01*
X10348061Y1381201D01*
X10350246Y1377899D01*
X10351058Y1373987D01*
X10351058Y1153261D01*
X10350246Y1149400D01*
X10348061Y1146098D01*
X10344759Y1143914D01*
X10340898Y1143101D01*
X9933635Y1143101D01*
X9927285Y1142390D01*
X9921849Y1140510D01*
X9916922Y1137412D01*
X9912858Y1133348D01*
X9909759Y1128420D01*
X9907879Y1122984D01*
X9907168Y1116634D01*
X9907168Y879805D01*
X9907879Y873455D01*
X9909759Y868019D01*
X9912858Y863092D01*
X9916922Y859028D01*
X9921849Y855929D01*
X9927285Y854049D01*
X9933635Y853287D01*
X10340898Y853287D01*
X10344759Y852525D01*
X10348061Y850341D01*
X10350246Y847039D01*
X10351058Y843127D01*
X10351058Y655421D01*
X10350246Y651560D01*
X10348061Y648258D01*
X10344759Y646074D01*
X10340898Y645261D01*
X9933635Y645261D01*
X9927285Y644550D01*
X9921849Y642670D01*
X9916922Y639572D01*
X9912858Y635508D01*
X9909759Y630580D01*
X9907879Y625144D01*
X9907168Y618794D01*
X9907168Y381965D01*
X9907879Y375615D01*
X9909759Y370179D01*
X9912858Y365252D01*
X9916922Y361188D01*
X9921849Y358089D01*
X9927285Y356209D01*
X9933635Y355447D01*
X10340898Y355447D01*
X10344759Y354685D01*
X10348061Y352501D01*
X10350246Y349199D01*
X10351058Y345287D01*
X10351058Y124561D01*
X10350246Y120700D01*
X10348061Y117398D01*
X10344759Y115214D01*
X10340898Y114401D01*
X9933635Y114401D01*
X9927285Y113690D01*
X9921849Y111810D01*
X9916922Y108712D01*
X9912858Y104648D01*
X9909759Y99720D01*
X9907879Y94284D01*
X9907168Y87934D01*
X9907168Y75590D01*
X9906355Y71678D01*
X9904171Y68427D01*
X9900869Y66192D01*
X9897008Y65430D01*
X9104223Y65430D01*
X9094012Y64922D01*
X9091066Y64566D01*
X9078264Y61925D01*
X9068612Y58674D01*
X9065920Y57556D01*
X9056827Y53035D01*
X9054287Y51562D01*
X9043568Y44043D01*
X9035948Y37134D01*
X8835085Y-163728D01*
X8828227Y-171348D01*
X8826398Y-173634D01*
X8820708Y-182067D01*
X8819235Y-184556D01*
X8814714Y-193700D01*
X8813596Y-196392D01*
X8810345Y-205994D01*
X8809583Y-208838D01*
X8807704Y-218744D01*
X8806789Y-225501D01*
X8805773Y-227634D01*
X8801150Y-234848D01*
X8794953Y-248056D01*
X8790482Y-261874D01*
X8787739Y-276148D01*
X8786825Y-291033D01*
X8786825Y-370382D01*
X8787739Y-385216D01*
X8790482Y-399491D01*
X8794953Y-413359D01*
X8801150Y-426516D01*
X8808974Y-438810D01*
X8818219Y-450037D01*
X8828836Y-459993D01*
X8840622Y-468528D01*
X8853373Y-475538D01*
X8866886Y-480923D01*
X8881008Y-484530D01*
X8895435Y-486359D01*
X8909964Y-486359D01*
X8924442Y-484530D01*
X8938514Y-480923D01*
X8952077Y-475538D01*
X8964828Y-468528D01*
X8976563Y-459993D01*
X8987180Y-450037D01*
X8996476Y-438810D01*
X9004249Y-426516D01*
X9010446Y-413359D01*
X9014968Y-399491D01*
X9017711Y-385216D01*
X9018625Y-370382D01*
X9018625Y-291033D01*
X9017711Y-276148D01*
X9014866Y-261467D01*
X9014815Y-258216D01*
X9015780Y-255066D01*
X9017660Y-252425D01*
X9023451Y-246634D01*
X9026753Y-244398D01*
X9030665Y-243636D01*
X9034526Y-244398D01*
X9037828Y-246634D01*
X9040012Y-249936D01*
X9040825Y-253796D01*
X9040825Y-460146D01*
X9041536Y-466445D01*
X9043416Y-471932D01*
X9046514Y-476808D01*
X9050578Y-480923D01*
X9055506Y-483971D01*
X9060942Y-485901D01*
X9067292Y-486613D01*
X9246158Y-486613D01*
X9252458Y-485901D01*
X9257944Y-483971D01*
X9262821Y-480923D01*
X9266936Y-476808D01*
X9269984Y-471932D01*
X9271914Y-466445D01*
X9272625Y-460146D01*
X9272625Y-201269D01*
X9271914Y-194919D01*
X9269984Y-189484D01*
X9266936Y-184607D01*
X9262821Y-180492D01*
X9257944Y-177393D01*
X9252458Y-175514D01*
X9246158Y-174802D01*
X9119819Y-174802D01*
X9115958Y-173990D01*
X9112656Y-171805D01*
X9110421Y-168503D01*
X9109659Y-164642D01*
X9110421Y-160731D01*
X9112656Y-157429D01*
X9140698Y-129387D01*
X9144000Y-127152D01*
X9147911Y-126390D01*
X9897008Y-126390D01*
X9900869Y-127152D01*
X9904171Y-129387D01*
X9906355Y-132638D01*
X9907168Y-136550D01*
X9907168Y-148894D01*
X9907879Y-155244D01*
X9909759Y-160680D01*
X9912858Y-165608D01*
X9916922Y-169672D01*
X9921849Y-172770D01*
X9927285Y-174650D01*
X9933635Y-175412D01*
X10340898Y-175412D01*
X10344759Y-176174D01*
X10348061Y-178358D01*
X10350246Y-181660D01*
X10351058Y-185572D01*
X10351058Y-373278D01*
X10350246Y-377139D01*
X10348061Y-380441D01*
X10344759Y-382625D01*
X10340898Y-383438D01*
X9933635Y-383438D01*
X9927285Y-384149D01*
X9921849Y-386029D01*
X9916922Y-389128D01*
X9912858Y-393192D01*
X9909759Y-398119D01*
X9907879Y-403555D01*
X9907168Y-409905D01*
X9907168Y-422249D01*
X9906355Y-426161D01*
X9904171Y-429412D01*
X9900869Y-431647D01*
X9897008Y-432409D01*
X9847986Y-432409D01*
X9841280Y-432663D01*
X9834778Y-433324D01*
X9828326Y-434441D01*
X9821976Y-435965D01*
X9815728Y-437946D01*
X9809632Y-440334D01*
X9803739Y-443179D01*
X9797999Y-446379D01*
X9792512Y-449986D01*
X9787331Y-453948D01*
X9782403Y-458216D01*
X9777730Y-462838D01*
X9773462Y-467817D01*
X9769500Y-472998D01*
X9765893Y-478485D01*
X9762693Y-484174D01*
X9759899Y-490118D01*
X9757460Y-496214D01*
X9755479Y-502462D01*
X9753955Y-508812D01*
X9752838Y-515264D01*
X9752177Y-521766D01*
X9751923Y-528472D01*
X9751923Y-732282D01*
X9752431Y-742492D01*
X9752787Y-745439D01*
X9755428Y-758240D01*
X9758680Y-767892D01*
X9759797Y-770585D01*
X9764318Y-779678D01*
X9765792Y-782218D01*
X9773310Y-792937D01*
X9780219Y-800557D01*
X9820402Y-840740D01*
X9822586Y-844042D01*
X9823399Y-847902D01*
X9823399Y-1184808D01*
X9822586Y-1188669D01*
X9820402Y-1191971D01*
X9817100Y-1194155D01*
X9813239Y-1194968D01*
X9745675Y-1194968D01*
X9742017Y-1194257D01*
X9738868Y-1192326D01*
X9736632Y-1189329D01*
X9733330Y-1178204D01*
X9729774Y-1171498D01*
X9724694Y-1165301D01*
X9387078Y-827735D01*
X9380880Y-822604D01*
X9374225Y-819048D01*
X9366961Y-816864D01*
X9358934Y-816051D01*
X8956243Y-816051D01*
X8952331Y-815289D01*
X8949029Y-813053D01*
X8600338Y-464362D01*
X8598154Y-461060D01*
X8597341Y-457200D01*
X8597341Y-401066D01*
X8541207Y-401066D01*
X8537346Y-400253D01*
X8534044Y-398068D01*
X7395006Y740968D01*
X7392619Y744677D01*
X7392060Y749046D01*
X7393381Y753211D01*
X7396378Y756462D01*
X7398969Y758291D01*
X7405928Y765251D01*
X7409738Y770686D01*
X7412990Y773684D01*
X7417155Y775004D01*
X7421524Y774446D01*
X7425232Y772058D01*
X8053070Y144272D01*
X8055051Y141376D01*
X8055965Y137972D01*
X8056676Y129895D01*
X8059216Y120396D01*
X8063382Y111506D01*
X8069021Y103479D01*
X8075980Y96520D01*
X8084007Y90881D01*
X8092948Y86715D01*
X8102396Y84175D01*
X8112201Y83312D01*
X8122005Y84175D01*
X8131505Y86715D01*
X8140395Y90881D01*
X8148421Y96520D01*
X8155381Y103479D01*
X8161020Y111506D01*
X8165185Y120396D01*
X8167725Y129895D01*
X8168589Y139700D01*
X8167725Y149504D01*
X8165185Y159004D01*
X8161020Y167894D01*
X8155381Y175920D01*
X8148421Y182880D01*
X8140395Y188518D01*
X8131505Y192684D01*
X8122005Y195224D01*
X8113928Y195935D01*
X8110524Y196850D01*
X8107629Y198831D01*
X7185914Y1120597D01*
X7183628Y1124153D01*
X7182967Y1128318D01*
X7184085Y1132433D01*
X7186726Y1135684D01*
X7190536Y1137615D01*
X7194753Y1137818D01*
X7198715Y1136243D01*
X7202779Y1133551D01*
X7216089Y1126947D01*
X7230109Y1121968D01*
X7244638Y1118819D01*
X7259472Y1117396D01*
X7274356Y1117904D01*
X7289088Y1120140D01*
X7303363Y1124254D01*
X7317079Y1130046D01*
X7329982Y1137462D01*
X7341870Y1146454D01*
X7352538Y1156817D01*
X7361885Y1168400D01*
X7369708Y1181049D01*
X7375906Y1194562D01*
X7380427Y1208786D01*
X7383170Y1223416D01*
X7384084Y1238250D01*
X7383170Y1253083D01*
X7380427Y1267714D01*
X7375906Y1281938D01*
X7369708Y1295450D01*
X7361885Y1308100D01*
X7352538Y1319682D01*
X7341870Y1330045D01*
X7329982Y1339037D01*
X7317079Y1346454D01*
X7303363Y1352245D01*
X7289088Y1356360D01*
X7274356Y1358646D01*
X7259472Y1359103D01*
X7244638Y1357731D01*
X7230109Y1354531D01*
X7216089Y1349603D01*
X7202779Y1342948D01*
X7190333Y1334719D01*
X7179056Y1325016D01*
X7168997Y1314043D01*
X7160412Y1301902D01*
X7153402Y1288796D01*
X7148017Y1274876D01*
X7144359Y1260449D01*
X7142530Y1245717D01*
X7142530Y1230833D01*
X7144359Y1216050D01*
X7148017Y1201623D01*
X7153351Y1187754D01*
X7161072Y1173581D01*
X7162241Y1169670D01*
X7161784Y1165555D01*
X7159752Y1161999D01*
X7156450Y1159560D01*
X7152436Y1158595D01*
X7148372Y1159306D01*
X7144969Y1161542D01*
X5227828Y3078683D01*
X5225592Y3081985D01*
X5224830Y3085896D01*
X5224830Y4603191D01*
X5225592Y4607052D01*
X5227828Y4610354D01*
X5229402Y4611979D01*
X5235041Y4620006D01*
X5239207Y4628896D01*
X5241747Y4638395D01*
X5242610Y4648200D01*
X5241747Y4658004D01*
X5239207Y4667504D01*
X5235041Y4676394D01*
X5229402Y4684420D01*
X5222443Y4691380D01*
X5214416Y4697018D01*
X5205526Y4701184D01*
X5196027Y4703724D01*
X5186222Y4704588D01*
X5176418Y4703724D01*
X5167985Y4701438D01*
X5164277Y4701133D01*
X5160721Y4702200D01*
X5157774Y4704486D01*
X5155844Y4707636D01*
X5155184Y4711242D01*
X5155184Y6048756D01*
X5154422Y6056782D01*
X5152186Y6063996D01*
X5148630Y6070650D01*
X5143550Y6076899D01*
X4653889Y6566509D01*
X4647641Y6571640D01*
X4640122Y6575704D01*
X4636770Y6578549D01*
X4634941Y6582562D01*
X4635195Y6587845D01*
X4636617Y6591147D01*
X4639106Y6593738D01*
X4650587Y6602222D01*
X4660392Y6611721D01*
X4668875Y6622440D01*
X4675835Y6634175D01*
X4681118Y6646722D01*
X4684725Y6659880D01*
X4685182Y6663131D01*
X4686757Y6667347D01*
X4689957Y6670446D01*
X4694174Y6671868D01*
X4698644Y6671360D01*
X4702454Y6668973D01*
X5455310Y5916066D01*
X5457545Y5912764D01*
X5458307Y5908852D01*
X5458307Y5768390D01*
X5457545Y5764530D01*
X5455310Y5761228D01*
X5453735Y5759602D01*
X5448096Y5751576D01*
X5443931Y5742686D01*
X5441391Y5733186D01*
X5440527Y5723382D01*
X5441391Y5713577D01*
X5443931Y5704078D01*
X5448096Y5695188D01*
X5453735Y5687161D01*
X5460695Y5680202D01*
X5468721Y5674563D01*
X5477662Y5670397D01*
X5487111Y5667857D01*
X5496915Y5666994D01*
X5506720Y5667857D01*
X5516219Y5670397D01*
X5525109Y5674563D01*
X5533136Y5680202D01*
X5540095Y5687161D01*
X5545734Y5695188D01*
X5549900Y5704078D01*
X5552440Y5713577D01*
X5553303Y5723382D01*
X5552440Y5733186D01*
X5549900Y5742686D01*
X5545734Y5751576D01*
X5540095Y5759602D01*
X5538520Y5761228D01*
X5536285Y5764530D01*
X5535523Y5768390D01*
X5535523Y5928563D01*
X5534761Y5936589D01*
X5532526Y5943803D01*
X5528970Y5950508D01*
X5523890Y5956706D01*
X4648962Y6831584D01*
X4644034Y6835648D01*
X4641646Y6838492D01*
X4640427Y6841947D01*
X4640529Y6845604D01*
X4641951Y6849008D01*
X4644440Y6851700D01*
X4650587Y6856222D01*
X4660392Y6865721D01*
X4668875Y6876440D01*
X4675835Y6888175D01*
X4681118Y6900722D01*
X4684725Y6913880D01*
X4686554Y6927392D01*
X4686554Y6941007D01*
X4684725Y6954520D01*
X4681118Y6967677D01*
X4675835Y6980224D01*
X4668875Y6991959D01*
X4660392Y7002678D01*
X4650587Y7012178D01*
X4639614Y7020255D01*
X4627676Y7026808D01*
X4614926Y7031685D01*
X4601667Y7034885D01*
X4588103Y7036206D01*
X4574489Y7035749D01*
X4561027Y7033514D01*
X4548022Y7029450D01*
X4535627Y7023709D01*
X4524146Y7016394D01*
X4513732Y7007606D01*
X4504588Y6997446D01*
X4496866Y6986219D01*
X4490720Y6974078D01*
X4486249Y6961174D01*
X4483506Y6947814D01*
X4482592Y6934200D01*
X4483506Y6920585D01*
X4486249Y6907225D01*
X4490720Y6894322D01*
X4496866Y6882180D01*
X4504588Y6870953D01*
X4513732Y6860794D01*
X4524146Y6852005D01*
X4527397Y6849922D01*
X4530140Y6847331D01*
X4531766Y6843877D01*
X4532020Y6840067D01*
X4530801Y6836460D01*
X4528362Y6833514D01*
X4526026Y6831584D01*
X4349191Y6654749D01*
X4344060Y6648551D01*
X4340504Y6641846D01*
X4338320Y6634632D01*
X4337558Y6626606D01*
X4337558Y5774690D01*
X4336745Y5770778D01*
X4334560Y5767476D01*
X3930548Y5363464D01*
X3927195Y5361228D01*
X3923182Y5360517D01*
X3919220Y5361381D01*
X3915968Y5363718D01*
X3913835Y5367172D01*
X3913225Y5371185D01*
X3913530Y5377180D01*
X3913530Y7261707D01*
X3914292Y7265619D01*
X3916527Y7268921D01*
X3919778Y7271105D01*
X3923690Y7271867D01*
X3936034Y7271867D01*
X3942384Y7272629D01*
X3947820Y7274509D01*
X3952748Y7277608D01*
X3956812Y7281672D01*
X3959910Y7286599D01*
X3961790Y7292035D01*
X3962552Y7298385D01*
X3962552Y7725714D01*
X3961790Y7732064D01*
X3959910Y7737500D01*
X3956812Y7742428D01*
X3952748Y7746492D01*
X3947820Y7749590D01*
X3942384Y7751470D01*
X3936034Y7752181D01*
X3699205Y7752181D01*
X3692855Y7751470D01*
X3687419Y7749590D01*
X3682492Y7746492D01*
X3678428Y7742428D01*
X3675329Y7737500D01*
X3673449Y7732064D01*
X3672738Y7725714D01*
X3672738Y7298385D01*
X3673449Y7292035D01*
X3675329Y7286599D01*
X3678428Y7281672D01*
X3682492Y7277608D01*
X3687419Y7274509D01*
X3692855Y7272629D01*
X3699205Y7271867D01*
X3711549Y7271867D01*
X3715461Y7271105D01*
X3718763Y7268921D01*
X3720947Y7265619D01*
X3721709Y7261707D01*
X3721709Y5420868D01*
X3720947Y5416956D01*
X3718763Y5413654D01*
X2904337Y4599228D01*
X2901188Y4597095D01*
X2897479Y4596282D01*
X2893720Y4596841D01*
X2890469Y4598771D01*
X2888132Y4601768D01*
X2887014Y4605375D01*
X2885948Y4616094D01*
X2882849Y4628794D01*
X2878023Y4640986D01*
X2871622Y4652365D01*
X2863697Y4662779D01*
X2854452Y4672076D01*
X2844038Y4679950D01*
X2832608Y4686401D01*
X2820466Y4691176D01*
X2807716Y4694275D01*
X2794711Y4695596D01*
X2781655Y4695190D01*
X2768752Y4692954D01*
X2756255Y4688992D01*
X2744419Y4683353D01*
X2733497Y4676190D01*
X2723388Y4667351D01*
X2144217Y4088180D01*
X2137308Y4080560D01*
X2135530Y4078274D01*
X2129790Y4069842D01*
X2128316Y4067352D01*
X2123795Y4058208D01*
X2122678Y4055516D01*
X2119426Y4045915D01*
X2116785Y4033062D01*
X2116429Y4030167D01*
X2115921Y4019905D01*
X2115921Y2537917D01*
X2116429Y2527706D01*
X2116785Y2524760D01*
X2119426Y2511958D01*
X2122678Y2502306D01*
X2123795Y2499614D01*
X2128316Y2490520D01*
X2129790Y2487980D01*
X2137308Y2477262D01*
X2144217Y2469642D01*
X2290521Y2323338D01*
X2300681Y2314498D01*
X2311603Y2307336D01*
X2323439Y2301697D01*
X2335885Y2297734D01*
X2348788Y2295499D01*
X2361844Y2295093D01*
X2374900Y2296414D01*
X2387600Y2299512D01*
X2399792Y2304288D01*
X2411171Y2310739D01*
X2421636Y2318613D01*
X2430881Y2327910D01*
X2438755Y2338324D01*
X2445207Y2349703D01*
X2449982Y2361895D01*
X2453081Y2374595D01*
X2454402Y2387650D01*
X2453995Y2400706D01*
X2451760Y2413609D01*
X2447798Y2426055D01*
X2442159Y2437892D01*
X2434996Y2448814D01*
X2426157Y2458974D01*
X2310739Y2574391D01*
X2308504Y2577693D01*
X2307742Y2581605D01*
X2307742Y3837635D01*
X2308656Y3841902D01*
X2311298Y3845407D01*
X2315159Y3847439D01*
X2319477Y3847693D01*
X2323541Y3846118D01*
X2324760Y3845306D01*
X2337155Y3839159D01*
X2350312Y3834739D01*
X2363876Y3831996D01*
X2377694Y3831132D01*
X2391511Y3831996D01*
X2405075Y3834739D01*
X2418232Y3839159D01*
X2430627Y3845306D01*
X2442159Y3852976D01*
X2452573Y3862120D01*
X2461717Y3872534D01*
X2469388Y3884066D01*
X2475534Y3896461D01*
X2477160Y3900424D01*
X2478582Y3902252D01*
X2547670Y3971340D01*
X2550972Y3973525D01*
X2554884Y3974337D01*
X2558745Y3973525D01*
X2562047Y3971340D01*
X2564231Y3968038D01*
X2565044Y3964178D01*
X2565044Y1453286D01*
X2564231Y1449425D01*
X2562047Y1446123D01*
X1533855Y417931D01*
X1530553Y415696D01*
X1526692Y414934D01*
X1522780Y415696D01*
X1519478Y417931D01*
X1517294Y421233D01*
X1516532Y425094D01*
X1516532Y466394D01*
X1515770Y472744D01*
X1513890Y478180D01*
X1510792Y483108D01*
X1506728Y487172D01*
X1501800Y490270D01*
X1496364Y492150D01*
X1490014Y492861D01*
X1082802Y492861D01*
X1078890Y493674D01*
X1075588Y495858D01*
X1073404Y499160D01*
X1072642Y503021D01*
X1072642Y690727D01*
X1073404Y694639D01*
X1075588Y697941D01*
X1078890Y700125D01*
X1082802Y700887D01*
X1490014Y700887D01*
X1496364Y701649D01*
X1501800Y703529D01*
X1506728Y706628D01*
X1510792Y710692D01*
X1513890Y715619D01*
X1515770Y721055D01*
X1516532Y727405D01*
X1516532Y964234D01*
X1515770Y970584D01*
X1513890Y976020D01*
X1510792Y980948D01*
X1506728Y985012D01*
X1501800Y988110D01*
X1496364Y989990D01*
X1490014Y990701D01*
X1082802Y990701D01*
X1078890Y991514D01*
X1075588Y993698D01*
X1073404Y997000D01*
X1072642Y1000861D01*
X1072642Y1209040D01*
X1073404Y1212900D01*
X1075588Y1216202D01*
X1078890Y1218438D01*
X1082802Y1219200D01*
X1490014Y1219200D01*
X1496364Y1219911D01*
X1501800Y1221790D01*
X1506728Y1224889D01*
X1510792Y1229004D01*
X1513890Y1233881D01*
X1515770Y1239367D01*
X1516532Y1245666D01*
X1516532Y1482547D01*
X1515770Y1488846D01*
X1513890Y1494282D01*
X1510792Y1499209D01*
X1506728Y1503273D01*
X1501800Y1506372D01*
X1496364Y1508302D01*
X1490014Y1509014D01*
X1082802Y1509014D01*
X1078890Y1509776D01*
X1075588Y1511960D01*
X1073404Y1515262D01*
X1072642Y1519174D01*
X1072642Y1706880D01*
X1073404Y1710740D01*
X1075588Y1714042D01*
X1078890Y1716278D01*
X1082802Y1717039D01*
X1490014Y1717039D01*
X1496364Y1717751D01*
X1501800Y1719630D01*
X1506728Y1722729D01*
X1510792Y1726844D01*
X1513890Y1731721D01*
X1515770Y1737207D01*
X1516532Y1743506D01*
X1516532Y1755851D01*
X1517294Y1759762D01*
X1519478Y1763014D01*
X1522780Y1765249D01*
X1526692Y1766011D01*
X2134870Y1766011D01*
X2145131Y1766519D01*
X2148027Y1766874D01*
X2160879Y1769516D01*
X2170480Y1772767D01*
X2173224Y1773885D01*
X2182317Y1778406D01*
X2184857Y1779879D01*
X2193239Y1785620D01*
X2195525Y1787398D01*
X2203145Y1794306D01*
X2427224Y2018334D01*
X2436063Y2028494D01*
X2443226Y2039416D01*
X2448814Y2051253D01*
X2452776Y2063699D01*
X2455011Y2076602D01*
X2455468Y2089657D01*
X2454148Y2102713D01*
X2451049Y2115413D01*
X2446223Y2127605D01*
X2439822Y2138984D01*
X2431897Y2149398D01*
X2422652Y2158695D01*
X2412238Y2166569D01*
X2400808Y2173020D01*
X2388666Y2177796D01*
X2375916Y2180894D01*
X2362911Y2182215D01*
X2349855Y2181809D01*
X2336952Y2179574D01*
X2324455Y2175611D01*
X2312619Y2169972D01*
X2301697Y2162810D01*
X2291588Y2153970D01*
X2098395Y1960829D01*
X2095093Y1958593D01*
X2091232Y1957832D01*
X1526692Y1957832D01*
X1522780Y1958593D01*
X1519478Y1960829D01*
X1517294Y1964080D01*
X1516532Y1967992D01*
X1516532Y1980387D01*
X1515770Y1986686D01*
X1513890Y1992122D01*
X1510792Y1997049D01*
X1506728Y2001113D01*
X1501800Y2004212D01*
X1496364Y2006142D01*
X1490014Y2006854D01*
X1082802Y2006854D01*
X1078890Y2007616D01*
X1075588Y2009800D01*
X1073404Y2013102D01*
X1072642Y2017014D01*
X1072642Y2237740D01*
X1073404Y2241600D01*
X1075588Y2244902D01*
X1078890Y2247138D01*
X1082802Y2247900D01*
X1490014Y2247900D01*
X1496364Y2248611D01*
X1501800Y2250490D01*
X1506728Y2253589D01*
X1510792Y2257704D01*
X1513890Y2262581D01*
X1515770Y2268067D01*
X1516532Y2274366D01*
X1516532Y2511247D01*
X1515770Y2517546D01*
X1513890Y2522982D01*
X1510792Y2527909D01*
X1506728Y2531973D01*
X1501800Y2535072D01*
X1496364Y2537002D01*
X1490014Y2537714D01*
X1082802Y2537714D01*
X1078890Y2538476D01*
X1075588Y2540660D01*
X1073404Y2543962D01*
X1072642Y2547874D01*
X1072642Y2735580D01*
X1073404Y2739440D01*
X1075588Y2742742D01*
X1078890Y2744978D01*
X1082802Y2745740D01*
X1490014Y2745740D01*
X1496364Y2746451D01*
X1501800Y2748330D01*
X1506728Y2751429D01*
X1510792Y2755544D01*
X1513890Y2760421D01*
X1515770Y2765907D01*
X1516532Y2772206D01*
X1516532Y3009087D01*
X1515770Y3015386D01*
X1513890Y3020822D01*
X1510792Y3025749D01*
X1506728Y3029813D01*
X1501800Y3032912D01*
X1496364Y3034842D01*
X1490014Y3035554D01*
X1082802Y3035554D01*
X1078890Y3036316D01*
X1075588Y3038500D01*
X1073404Y3041802D01*
X1072642Y3045714D01*
X1072642Y3253740D01*
X1073404Y3257600D01*
X1075588Y3260902D01*
X1078890Y3263138D01*
X1082802Y3263900D01*
X1490014Y3263900D01*
X1496364Y3264611D01*
X1501800Y3266490D01*
X1506728Y3269589D01*
X1510792Y3273704D01*
X1513890Y3278581D01*
X1515770Y3284067D01*
X1516532Y3290366D01*
X1516532Y3527247D01*
X1515770Y3533546D01*
X1513890Y3538982D01*
X1510792Y3543909D01*
X1506728Y3547973D01*
X1501800Y3551072D01*
X1496364Y3553002D01*
X1490014Y3553714D01*
X1082802Y3553714D01*
X1078890Y3554476D01*
X1075588Y3556660D01*
X1073404Y3559962D01*
X1072642Y3563874D01*
X1072642Y3751579D01*
X1073404Y3755440D01*
X1075588Y3758742D01*
X1078890Y3760978D01*
X1082802Y3761740D01*
X1490014Y3761740D01*
X1496364Y3762451D01*
X1501800Y3764330D01*
X1506728Y3767429D01*
X1510792Y3771544D01*
X1513890Y3776421D01*
X1515770Y3781907D01*
X1516532Y3788206D01*
X1516532Y3858666D01*
X1517192Y3862324D01*
X1519123Y3865473D01*
X1522120Y3867708D01*
X1533296Y3871010D01*
X1539951Y3874566D01*
X1546148Y3879697D01*
X2963926Y5297424D01*
X2967228Y5299659D01*
X2971139Y5300421D01*
X3151581Y5300421D01*
X3155492Y5299659D01*
X3158794Y5297424D01*
X3160369Y5295849D01*
X3168446Y5290210D01*
X3177336Y5286044D01*
X3186836Y5283504D01*
X3196640Y5282641D01*
X3206394Y5283504D01*
X3215894Y5286044D01*
X3224784Y5290210D01*
X3232861Y5295849D01*
X3239820Y5302808D01*
X3245459Y5310835D01*
X3249574Y5319725D01*
X3252114Y5329224D01*
X3252978Y5339029D01*
X3252114Y5348833D01*
X3249574Y5358333D01*
X3245459Y5367223D01*
X3239820Y5375249D01*
X3232861Y5382209D01*
X3224479Y5388051D01*
X3221634Y5389676D01*
X3218586Y5392318D01*
X3216808Y5396026D01*
X3216605Y5400090D01*
X3217976Y5403900D01*
X3220821Y5406847D01*
X3229559Y5412994D01*
X3236518Y5419953D01*
X3242157Y5427980D01*
X3245256Y5434634D01*
X3247542Y5437784D01*
X3250793Y5439816D01*
X3254654Y5440476D01*
X3258413Y5439664D01*
X3261664Y5437530D01*
X3267811Y5431332D01*
X3270046Y5427929D01*
X3270758Y5423865D01*
X3269843Y5419852D01*
X3268421Y5416905D01*
X3265881Y5407406D01*
X3265017Y5397601D01*
X3265881Y5387797D01*
X3268421Y5378297D01*
X3272586Y5369407D01*
X3278225Y5361381D01*
X3285185Y5354421D01*
X3293211Y5348782D01*
X3302152Y5344617D01*
X3311601Y5342077D01*
X3321405Y5341213D01*
X3331210Y5342077D01*
X3340709Y5344617D01*
X3349599Y5348782D01*
X3357626Y5354421D01*
X3364585Y5361381D01*
X3370224Y5369407D01*
X3374390Y5378297D01*
X3376929Y5387797D01*
X3377793Y5397601D01*
X3376929Y5407406D01*
X3374390Y5416905D01*
X3370224Y5425795D01*
X3364585Y5433822D01*
X3361334Y5437124D01*
X3359810Y5439054D01*
X3358794Y5441340D01*
X3357016Y5447080D01*
X3353460Y5453786D01*
X3348380Y5459984D01*
X2855468Y5952845D01*
X2849270Y5957976D01*
X2842615Y5961532D01*
X2835351Y5963716D01*
X2827324Y5964529D01*
X1526692Y5964529D01*
X1522780Y5965291D01*
X1519478Y5967526D01*
X1517294Y5970778D01*
X1516532Y5974689D01*
X1516532Y6044387D01*
X1515770Y6050686D01*
X1513890Y6056122D01*
X1510792Y6061049D01*
X1506728Y6065113D01*
X1501800Y6068212D01*
X1496364Y6070142D01*
X1490014Y6070854D01*
X1082802Y6070854D01*
X1078890Y6071616D01*
X1075588Y6073800D01*
X1073404Y6077102D01*
X1072642Y6081014D01*
X1072642Y6289040D01*
X1073404Y6292900D01*
X1075588Y6296202D01*
X1078890Y6298438D01*
X1082802Y6299200D01*
X1490014Y6299200D01*
X1496364Y6299911D01*
X1501800Y6301790D01*
X1506728Y6304889D01*
X1510792Y6309004D01*
X1513890Y6313881D01*
X1515770Y6319367D01*
X1516532Y6325666D01*
X1516532Y6562547D01*
X1515770Y6568846D01*
X1513890Y6574281D01*
X1510792Y6579209D01*
X1506728Y6583273D01*
X1501800Y6586372D01*
X1496364Y6588302D01*
X1490014Y6589014D01*
X1062685Y6589014D01*
X1056335Y6588302D01*
X1050899Y6586372D01*
X1045971Y6583273D01*
X1041908Y6579209D01*
X1038809Y6574281D01*
X1036929Y6568846D01*
X1036218Y6562547D01*
X1036218Y6550152D01*
X1035405Y6546240D01*
X1033221Y6542989D01*
X1029919Y6540754D01*
X1026058Y6539992D01*
X977239Y6539992D01*
X963828Y6539077D01*
X951026Y6536385D01*
X938580Y6531965D01*
X932586Y6529070D01*
X927049Y6526022D01*
X921410Y6522262D01*
X916330Y6518452D01*
X911250Y6513982D01*
X906830Y6509613D01*
X900277Y6501841D01*
X894689Y6493560D01*
X893216Y6491071D01*
X888695Y6481927D01*
X887577Y6479235D01*
X884326Y6469634D01*
X883564Y6466789D01*
X881684Y6456781D01*
X881329Y6453886D01*
X880821Y6443624D01*
X880821Y-169672D01*
X881735Y-183083D01*
X884377Y-195884D01*
X888796Y-208330D01*
X891743Y-214274D01*
X894791Y-219862D01*
X898550Y-225501D01*
X902309Y-230530D01*
X906780Y-235610D01*
X911199Y-240029D01*
X918971Y-246583D01*
X927201Y-252221D01*
X929741Y-253695D01*
X938834Y-258216D01*
X941527Y-259334D01*
X951179Y-262585D01*
X963980Y-265226D01*
X966927Y-265582D01*
X977137Y-266090D01*
X1026058Y-266090D01*
X1029919Y-266852D01*
X1033221Y-269087D01*
X1035405Y-272338D01*
X1036218Y-276250D01*
X1036218Y-288594D01*
X1036929Y-294944D01*
X1038809Y-300380D01*
X1041908Y-305308D01*
X1045971Y-309372D01*
X1050899Y-312470D01*
X1056335Y-314350D01*
X1062685Y-315112D01*
X1490014Y-315112D01*
X1496364Y-314350D01*
X1501800Y-312470D01*
X1506728Y-309372D01*
X1510792Y-305308D01*
X1513890Y-300380D01*
X1515770Y-294944D01*
X1516532Y-288594D01*
X1516532Y-276250D01*
X1517294Y-272338D01*
X1519478Y-269087D01*
X1522780Y-266852D01*
X1526692Y-266090D01*
X1531874Y-266090D01*
X1535785Y-266852D01*
X1539087Y-269087D01*
X1925523Y-655472D01*
X1927707Y-658774D01*
X1928469Y-662686D01*
X1928469Y-1184808D01*
X1927707Y-1188669D01*
X1925523Y-1191971D01*
X1922221Y-1194155D01*
X1918309Y-1194968D01*
X1905965Y-1194968D01*
X1899615Y-1195679D01*
X1894179Y-1197559D01*
X1889252Y-1200658D01*
X1885188Y-1204722D01*
X1882089Y-1209649D01*
X1880209Y-1215085D01*
X1879498Y-1221435D01*
X1879498Y-1648764D01*
X1880209Y-1655114D01*
X1882089Y-1660550D01*
X1885188Y-1665478D01*
X1889252Y-1669542D01*
X1894179Y-1672640D01*
X1899615Y-1674520D01*
X1905965Y-1675282D01*
X2142794Y-1675282D01*
X2149144Y-1674520D01*
X2154580Y-1672640D01*
X2159508Y-1669542D01*
X2163572Y-1665478D01*
X2166670Y-1660550D01*
X2168550Y-1655114D01*
X2169261Y-1648764D01*
X2169261Y-1221435D01*
X2168550Y-1215085D01*
X2166670Y-1209649D01*
X2163572Y-1204722D01*
X2159508Y-1200658D01*
X2154580Y-1197559D01*
X2149144Y-1195679D01*
X2142794Y-1194968D01*
X2130450Y-1194968D01*
X2126538Y-1194155D01*
X2123287Y-1191971D01*
X2121052Y-1188669D01*
X2120290Y-1184808D01*
X2120290Y-618998D01*
X2119782Y-608787D01*
X2119426Y-605840D01*
X2116785Y-593039D01*
X2113534Y-583387D01*
X2112416Y-580694D01*
X2107895Y-571601D01*
X2106422Y-569061D01*
X2098903Y-558342D01*
X2091994Y-550722D01*
X1643837Y-102565D01*
X1636217Y-95656D01*
X1625498Y-88138D01*
X1622958Y-86664D01*
X1613865Y-82143D01*
X1611172Y-81026D01*
X1601520Y-77774D01*
X1588719Y-75133D01*
X1585823Y-74777D01*
X1575562Y-74269D01*
X1526692Y-74269D01*
X1522780Y-73507D01*
X1519478Y-71272D01*
X1517294Y-68021D01*
X1516532Y-64109D01*
X1516532Y-51765D01*
X1515770Y-45415D01*
X1513890Y-39979D01*
X1510792Y-35052D01*
X1506728Y-30988D01*
X1501800Y-27889D01*
X1496364Y-26009D01*
X1490014Y-25298D01*
X1082802Y-25298D01*
X1078890Y-24485D01*
X1075588Y-22301D01*
X1073404Y-18999D01*
X1072642Y-15138D01*
X1072642Y192887D01*
X1073404Y196799D01*
X1075588Y200101D01*
X1078890Y202285D01*
X1082802Y203047D01*
X1490014Y203047D01*
X1496364Y203809D01*
X1501800Y205689D01*
X1506728Y208788D01*
X1510792Y212852D01*
X1513890Y217779D01*
X1515770Y223215D01*
X1516532Y229565D01*
X1516532Y300024D01*
X1517192Y303682D01*
X1519123Y306832D01*
X1522120Y309067D01*
X1533296Y312369D01*
X1539951Y315925D01*
X1546148Y321056D01*
X2630576Y1405432D01*
X2635707Y1411681D01*
X2639263Y1418336D01*
X2641447Y1425549D01*
X2642260Y1433576D01*
X2642260Y3849014D01*
X2642971Y3852773D01*
X2645054Y3856024D01*
X2648204Y3858260D01*
X2651963Y3859123D01*
X2655773Y3858564D01*
X2659075Y3856634D01*
X2663240Y3852976D01*
X2674772Y3845306D01*
X2681376Y3842054D01*
X2681376Y3890670D01*
X2652420Y3890670D01*
X2648508Y3891432D01*
X2645206Y3893616D01*
X2643022Y3896918D01*
X2642260Y3900830D01*
X2642260Y3961739D01*
X2643022Y3965651D01*
X2645206Y3968953D01*
X2656636Y3980383D01*
X2659938Y3982567D01*
X2663850Y3983329D01*
X2681376Y3983329D01*
X2681376Y4000855D01*
X2682138Y4004767D01*
X2684322Y4008069D01*
X4379061Y5702757D01*
X4382363Y5704992D01*
X4386224Y5705754D01*
X4390136Y5704992D01*
X4393387Y5702757D01*
X4395622Y5699455D01*
X4396384Y5695594D01*
X4396384Y5681065D01*
X4395622Y5677154D01*
X4393387Y5673852D01*
X2808884Y4089298D01*
X2803753Y4083100D01*
X2800197Y4076395D01*
X2798013Y4069181D01*
X2797200Y4061155D01*
X2797200Y4036669D01*
X2796286Y4032402D01*
X2793644Y4028897D01*
X2789783Y4026865D01*
X2785465Y4026611D01*
X2780639Y4028694D01*
X2774035Y4031945D01*
X2774035Y3983329D01*
X2787040Y3983329D01*
X2790952Y3982567D01*
X2794203Y3980383D01*
X2796438Y3977081D01*
X2797200Y3973169D01*
X2797200Y3900830D01*
X2796438Y3896918D01*
X2794203Y3893616D01*
X2790952Y3891432D01*
X2787040Y3890670D01*
X2774035Y3890670D01*
X2774035Y3842054D01*
X2781401Y3845814D01*
X2785465Y3847388D01*
X2789783Y3847134D01*
X2793644Y3845102D01*
X2796286Y3841597D01*
X2797200Y3837330D01*
X2797200Y1022502D01*
X2796438Y1018590D01*
X2794203Y1015288D01*
X2131212Y352247D01*
X2128316Y350266D01*
X2124913Y349351D01*
X2116836Y348640D01*
X2107387Y346100D01*
X2098446Y341934D01*
X2090420Y336296D01*
X2083460Y329336D01*
X2077821Y321310D01*
X2073656Y312420D01*
X2071116Y302920D01*
X2070252Y293116D01*
X2071116Y283311D01*
X2073656Y273812D01*
X2077821Y264922D01*
X2083460Y256895D01*
X2090420Y249936D01*
X2098446Y244297D01*
X2107387Y240131D01*
X2116836Y237591D01*
X2126640Y236728D01*
X2136444Y237591D01*
X2145944Y240131D01*
X2154834Y244297D01*
X2162860Y249936D01*
X2169820Y256895D01*
X2175459Y264922D01*
X2179624Y273812D01*
X2182164Y283311D01*
X2182876Y291388D01*
X2183790Y294792D01*
X2185822Y297688D01*
X2832049Y943914D01*
X2835351Y946150D01*
X2839262Y946912D01*
X2843123Y946150D01*
X2846425Y943914D01*
X2848610Y940612D01*
X2849422Y936752D01*
X2849422Y-806958D01*
X2848610Y-810818D01*
X2846425Y-814120D01*
X2495296Y-1165301D01*
X2490165Y-1171498D01*
X2486609Y-1178204D01*
X2483358Y-1189329D01*
X2481072Y-1192326D01*
X2477922Y-1194257D01*
X2474264Y-1194968D01*
X2403805Y-1194968D01*
X2397455Y-1195679D01*
X2392019Y-1197559D01*
X2387092Y-1200658D01*
X2383028Y-1204722D01*
X2379929Y-1209649D01*
X2378049Y-1215085D01*
X2377338Y-1221435D01*
X2377338Y-1648764D01*
X2378049Y-1655114D01*
X2379929Y-1660550D01*
X2383028Y-1665478D01*
X2387092Y-1669542D01*
X2392019Y-1672640D01*
X2397455Y-1674520D01*
X2403805Y-1675282D01*
X2640634Y-1675282D01*
X2646984Y-1674520D01*
X2652420Y-1672640D01*
X2657348Y-1669542D01*
X2661412Y-1665478D01*
X2664510Y-1660550D01*
X2666390Y-1655114D01*
X2667152Y-1648764D01*
X2667152Y-1221435D01*
X2666390Y-1215085D01*
X2664510Y-1209649D01*
X2661412Y-1204722D01*
X2657348Y-1200658D01*
X2652420Y-1197559D01*
X2646984Y-1195679D01*
X2640634Y-1194968D01*
X2599334Y-1194968D01*
X2595473Y-1194155D01*
X2592171Y-1191971D01*
X2589936Y-1188669D01*
X2589174Y-1184808D01*
X2589936Y-1180896D01*
X2592171Y-1177594D01*
X2914954Y-854811D01*
X2920085Y-848563D01*
X2923641Y-841908D01*
X2925826Y-834694D01*
X2926638Y-826668D01*
X2926638Y530555D01*
X2927553Y534822D01*
X2930144Y538276D01*
X2934004Y540359D01*
X2938322Y540613D01*
X2942386Y539038D01*
X2950667Y533552D01*
X2963976Y526948D01*
X2977997Y521970D01*
X2992577Y518820D01*
X3007360Y517398D01*
X3022244Y517906D01*
X3036976Y520141D01*
X3051302Y524256D01*
X3064967Y530047D01*
X3077870Y537464D01*
X3089757Y546455D01*
X3100425Y556818D01*
X3109772Y568401D01*
X3117596Y581050D01*
X3123844Y594563D01*
X3128365Y608787D01*
X3131058Y623417D01*
X3131972Y638251D01*
X3131058Y653084D01*
X3128365Y667715D01*
X3123844Y681939D01*
X3117596Y695452D01*
X3109772Y708101D01*
X3100425Y719683D01*
X3089757Y730046D01*
X3077870Y739038D01*
X3064967Y746455D01*
X3051302Y752246D01*
X3036976Y756361D01*
X3022244Y758647D01*
X3007360Y759104D01*
X2992577Y757732D01*
X2977997Y754532D01*
X2963976Y749604D01*
X2950667Y742950D01*
X2942386Y737463D01*
X2938322Y735888D01*
X2934004Y736142D01*
X2930144Y738225D01*
X2927553Y741680D01*
X2926638Y745947D01*
X2926638Y1730552D01*
X2927553Y1734820D01*
X2930144Y1738274D01*
X2934004Y1740357D01*
X2938322Y1740611D01*
X2942386Y1739036D01*
X2950667Y1733550D01*
X2963976Y1726946D01*
X2977997Y1721967D01*
X2992577Y1718818D01*
X3007360Y1717446D01*
X3022244Y1717903D01*
X3036976Y1720138D01*
X3051302Y1724253D01*
X3064967Y1730044D01*
X3077870Y1737461D01*
X3089757Y1746453D01*
X3100425Y1756816D01*
X3109772Y1768398D01*
X3117596Y1781048D01*
X3123844Y1794560D01*
X3128365Y1808784D01*
X3131058Y1823415D01*
X3131972Y1838248D01*
X3131058Y1853133D01*
X3128365Y1867763D01*
X3123844Y1881936D01*
X3117596Y1895449D01*
X3109772Y1908098D01*
X3100425Y1919681D01*
X3089757Y1930044D01*
X3077870Y1939036D01*
X3064967Y1946452D01*
X3051302Y1952294D01*
X3036976Y1956358D01*
X3022244Y1958644D01*
X3007360Y1959102D01*
X2992577Y1957730D01*
X2977997Y1954530D01*
X2963976Y1949602D01*
X2950667Y1942947D01*
X2942386Y1937461D01*
X2938322Y1935886D01*
X2934004Y1936140D01*
X2930144Y1938223D01*
X2927553Y1941677D01*
X2926638Y1945944D01*
X2926638Y3180486D01*
X2927299Y3184093D01*
X2929229Y3187242D01*
X2932176Y3189528D01*
X2935732Y3190595D01*
X2939389Y3190290D01*
X2941523Y3189732D01*
X2951327Y3188868D01*
X2961081Y3189732D01*
X2970580Y3192272D01*
X2979470Y3196437D01*
X2987548Y3202025D01*
X2994507Y3208985D01*
X3000146Y3217062D01*
X3004261Y3225952D01*
X3006801Y3235452D01*
X3007664Y3245205D01*
X3006801Y3255010D01*
X3004261Y3264509D01*
X3000146Y3273399D01*
X2994507Y3281476D01*
X2992882Y3283051D01*
X2990697Y3286353D01*
X2989935Y3290265D01*
X2989935Y3594252D01*
X2990697Y3598164D01*
X2992882Y3601465D01*
X3144062Y3752596D01*
X3147364Y3754831D01*
X3151225Y3755593D01*
X3155137Y3754831D01*
X3158388Y3752596D01*
X3160623Y3749294D01*
X3161385Y3745433D01*
X3161385Y-1025804D01*
X3160623Y-1029716D01*
X3158388Y-1033018D01*
X3026156Y-1165301D01*
X3021025Y-1171498D01*
X3017469Y-1178204D01*
X3014218Y-1189329D01*
X3011932Y-1192326D01*
X3008782Y-1194257D01*
X3005124Y-1194968D01*
X2934665Y-1194968D01*
X2928315Y-1195679D01*
X2922879Y-1197559D01*
X2917952Y-1200658D01*
X2913888Y-1204722D01*
X2910789Y-1209649D01*
X2908909Y-1215085D01*
X2908198Y-1221435D01*
X2908198Y-1648764D01*
X2908909Y-1655114D01*
X2910789Y-1660550D01*
X2913888Y-1665478D01*
X2917952Y-1669542D01*
X2922879Y-1672640D01*
X2928315Y-1674520D01*
X2934665Y-1675282D01*
X3171494Y-1675282D01*
X3177844Y-1674520D01*
X3183280Y-1672640D01*
X3188208Y-1669542D01*
X3192272Y-1665478D01*
X3195370Y-1660550D01*
X3197250Y-1655114D01*
X3197961Y-1648764D01*
X3197961Y-1221435D01*
X3197250Y-1215085D01*
X3195370Y-1209649D01*
X3192272Y-1204722D01*
X3188208Y-1200658D01*
X3183280Y-1197559D01*
X3177844Y-1195679D01*
X3171494Y-1194968D01*
X3130194Y-1194968D01*
X3126333Y-1194155D01*
X3123031Y-1191971D01*
X3120796Y-1188669D01*
X3120034Y-1184808D01*
X3120796Y-1180896D01*
X3123031Y-1177594D01*
X3226968Y-1073658D01*
X3232048Y-1067460D01*
X3235604Y-1060754D01*
X3237839Y-1053541D01*
X3238601Y-1045514D01*
X3238601Y3780485D01*
X3239363Y3784396D01*
X3241598Y3787698D01*
X3434283Y3980383D01*
X3437585Y3982567D01*
X3441446Y3983329D01*
X3448964Y3983329D01*
X3448964Y3990848D01*
X3449726Y3994708D01*
X3451910Y3998010D01*
X3557473Y4103573D01*
X3560775Y4105757D01*
X3564636Y4106519D01*
X3774490Y4106519D01*
X3778554Y4105706D01*
X3781907Y4103370D01*
X3784041Y4099864D01*
X3784650Y4095800D01*
X3783584Y4091838D01*
X3781094Y4088637D01*
X3777487Y4086656D01*
X3774135Y4085640D01*
X3767480Y4082084D01*
X3761232Y4076954D01*
X3577894Y3893616D01*
X3574592Y3891432D01*
X3570732Y3890670D01*
X3541623Y3890670D01*
X3541623Y3861562D01*
X3540861Y3857701D01*
X3538677Y3854399D01*
X3523996Y3839718D01*
X3518865Y3833469D01*
X3515309Y3826814D01*
X3513074Y3819448D01*
X3512312Y3811574D01*
X3512312Y-1184808D01*
X3511550Y-1188669D01*
X3509314Y-1191971D01*
X3506063Y-1194155D01*
X3502151Y-1194968D01*
X3432505Y-1194968D01*
X3426155Y-1195679D01*
X3420719Y-1197559D01*
X3415792Y-1200658D01*
X3411728Y-1204722D01*
X3408629Y-1209649D01*
X3406749Y-1215085D01*
X3406038Y-1221435D01*
X3406038Y-1648764D01*
X3406749Y-1655114D01*
X3408629Y-1660550D01*
X3411728Y-1665478D01*
X3415792Y-1669542D01*
X3420719Y-1672640D01*
X3426155Y-1674520D01*
X3432505Y-1675282D01*
X3669334Y-1675282D01*
X3675684Y-1674520D01*
X3681120Y-1672640D01*
X3686048Y-1669542D01*
X3690112Y-1665478D01*
X3693210Y-1660550D01*
X3695090Y-1655114D01*
X3695852Y-1648764D01*
X3695852Y-1221435D01*
X3695090Y-1215085D01*
X3693210Y-1209649D01*
X3690112Y-1204722D01*
X3686048Y-1200658D01*
X3681120Y-1197559D01*
X3675684Y-1195679D01*
X3669334Y-1194968D01*
X3599687Y-1194968D01*
X3595827Y-1194155D01*
X3592525Y-1191971D01*
X3590290Y-1188669D01*
X3589528Y-1184808D01*
X3589528Y3791864D01*
X3590290Y3795725D01*
X3592525Y3799027D01*
X3723030Y3929532D01*
X3726687Y3931920D01*
X3731006Y3932478D01*
X3735171Y3931208D01*
X3738422Y3928313D01*
X3740150Y3924300D01*
X3743045Y3909568D01*
X3747465Y3896461D01*
X3753612Y3884066D01*
X3761282Y3872534D01*
X3770426Y3862120D01*
X3780840Y3852976D01*
X3792372Y3845306D01*
X3804767Y3839159D01*
X3808729Y3837533D01*
X3810558Y3836111D01*
X3935933Y3710736D01*
X3938117Y3707434D01*
X3938930Y3703574D01*
X3938930Y-1101090D01*
X3939438Y-1111351D01*
X3939794Y-1114247D01*
X3941673Y-1124254D01*
X3942435Y-1127099D01*
X3945686Y-1136700D01*
X3946804Y-1139393D01*
X3951325Y-1148537D01*
X3952798Y-1151026D01*
X3958488Y-1159459D01*
X3960317Y-1161745D01*
X3967175Y-1169365D01*
X3970223Y-1172362D01*
X3972407Y-1175664D01*
X3973169Y-1179576D01*
X3973169Y-1184808D01*
X3972407Y-1188669D01*
X3970223Y-1191971D01*
X3966921Y-1194155D01*
X3963009Y-1194968D01*
X3950665Y-1194968D01*
X3944315Y-1195679D01*
X3938879Y-1197559D01*
X3933951Y-1200658D01*
X3929887Y-1204722D01*
X3926789Y-1209649D01*
X3924909Y-1215085D01*
X3924198Y-1221435D01*
X3924198Y-1648764D01*
X3924909Y-1655114D01*
X3926789Y-1660550D01*
X3929887Y-1665478D01*
X3933951Y-1669542D01*
X3938879Y-1672640D01*
X3944315Y-1674520D01*
X3950665Y-1675282D01*
X4187494Y-1675282D01*
X4193844Y-1674520D01*
X4199280Y-1672640D01*
X4204208Y-1669542D01*
X4208272Y-1665478D01*
X4211370Y-1660550D01*
X4213250Y-1655114D01*
X4213961Y-1648764D01*
X4213961Y-1221435D01*
X4213250Y-1215085D01*
X4211370Y-1209649D01*
X4208272Y-1204722D01*
X4204208Y-1200658D01*
X4199280Y-1197559D01*
X4193844Y-1195679D01*
X4187494Y-1194968D01*
X4175150Y-1194968D01*
X4171238Y-1194155D01*
X4167987Y-1191971D01*
X4165752Y-1188669D01*
X4164990Y-1184808D01*
X4164990Y-1135888D01*
X4164482Y-1125677D01*
X4164126Y-1122730D01*
X4161485Y-1109929D01*
X4158234Y-1100277D01*
X4157116Y-1097584D01*
X4152595Y-1088491D01*
X4151122Y-1085951D01*
X4143603Y-1075232D01*
X4136694Y-1067612D01*
X4133697Y-1064615D01*
X4131513Y-1061313D01*
X4130751Y-1057452D01*
X4130751Y543306D01*
X4131462Y547065D01*
X4133494Y550265D01*
X4136644Y552500D01*
X4140352Y553415D01*
X4144162Y552907D01*
X4147515Y550976D01*
X4158234Y541782D01*
X4170679Y533552D01*
X4183989Y526948D01*
X4198010Y521970D01*
X4212539Y518820D01*
X4227372Y517398D01*
X4242257Y517906D01*
X4256989Y520141D01*
X4271264Y524256D01*
X4284980Y530047D01*
X4297883Y537464D01*
X4309770Y546455D01*
X4320438Y556818D01*
X4329785Y568401D01*
X4337608Y581050D01*
X4343806Y594563D01*
X4348327Y608787D01*
X4351070Y623417D01*
X4351985Y638251D01*
X4351070Y653084D01*
X4348327Y667715D01*
X4343806Y681939D01*
X4337608Y695452D01*
X4329785Y708101D01*
X4320438Y719683D01*
X4309770Y730046D01*
X4297883Y739038D01*
X4284980Y746455D01*
X4271264Y752246D01*
X4256989Y756361D01*
X4242257Y758647D01*
X4227372Y759104D01*
X4212539Y757732D01*
X4198010Y754532D01*
X4183989Y749604D01*
X4170679Y742950D01*
X4158234Y734720D01*
X4147515Y725525D01*
X4144162Y723595D01*
X4140352Y723087D01*
X4136644Y724001D01*
X4133494Y726236D01*
X4131462Y729437D01*
X4130751Y733247D01*
X4130751Y1732178D01*
X4131513Y1736089D01*
X4133697Y1739341D01*
X4136999Y1741576D01*
X4140911Y1742338D01*
X4154373Y1742338D01*
X4157268Y1741932D01*
X4159961Y1740662D01*
X4170679Y1733550D01*
X4183989Y1726946D01*
X4198010Y1721967D01*
X4212539Y1718818D01*
X4227372Y1717446D01*
X4242257Y1717903D01*
X4256989Y1720138D01*
X4271264Y1724253D01*
X4284980Y1730044D01*
X4297883Y1737461D01*
X4310024Y1746707D01*
X4313326Y1748891D01*
X4317238Y1749602D01*
X4321098Y1748789D01*
X4324350Y1746554D01*
X4326534Y1743303D01*
X4327296Y1739442D01*
X4327296Y1678990D01*
X4326483Y1675130D01*
X4324299Y1671828D01*
X4231132Y1578610D01*
X4226001Y1572412D01*
X4222445Y1565706D01*
X4220260Y1558493D01*
X4219448Y1550466D01*
X4219448Y895045D01*
X4220260Y887018D01*
X4222445Y879805D01*
X4226001Y873150D01*
X4231132Y866902D01*
X5030774Y67208D01*
X5033010Y63906D01*
X5033772Y60045D01*
X5033772Y-1184808D01*
X5033010Y-1188669D01*
X5030774Y-1191971D01*
X5027523Y-1194155D01*
X5023612Y-1194968D01*
X4953965Y-1194968D01*
X4947615Y-1195679D01*
X4942179Y-1197559D01*
X4937252Y-1200658D01*
X4933188Y-1204722D01*
X4930089Y-1209649D01*
X4928209Y-1215085D01*
X4927498Y-1221435D01*
X4927498Y-1648764D01*
X4928209Y-1655114D01*
X4930089Y-1660550D01*
X4933188Y-1665478D01*
X4937252Y-1669542D01*
X4942179Y-1672640D01*
X4947615Y-1674520D01*
X4953965Y-1675282D01*
X5190794Y-1675282D01*
X5197144Y-1674520D01*
X5202580Y-1672640D01*
X5207508Y-1669542D01*
X5211572Y-1665478D01*
X5214670Y-1660550D01*
X5216550Y-1655114D01*
X5217312Y-1648764D01*
X5217312Y-1221435D01*
X5216550Y-1215085D01*
X5214670Y-1209649D01*
X5211572Y-1204722D01*
X5207508Y-1200658D01*
X5202580Y-1197559D01*
X5197144Y-1195679D01*
X5190794Y-1194968D01*
X5121148Y-1194968D01*
X5117287Y-1194155D01*
X5113985Y-1191971D01*
X5111750Y-1188669D01*
X5110988Y-1184808D01*
X5110988Y72186D01*
X5111750Y76047D01*
X5113985Y79349D01*
X5117287Y81584D01*
X5121148Y82346D01*
X5125059Y81584D01*
X5128310Y79349D01*
X5528614Y-320954D01*
X5530850Y-324256D01*
X5531612Y-328117D01*
X5531612Y-1184808D01*
X5530850Y-1188669D01*
X5528614Y-1191971D01*
X5525363Y-1194155D01*
X5521452Y-1194968D01*
X5451805Y-1194968D01*
X5445455Y-1195679D01*
X5440019Y-1197559D01*
X5435092Y-1200658D01*
X5431028Y-1204722D01*
X5427929Y-1209649D01*
X5426049Y-1215085D01*
X5425338Y-1221435D01*
X5425338Y-1648764D01*
X5426049Y-1655114D01*
X5427929Y-1660550D01*
X5431028Y-1665478D01*
X5435092Y-1669542D01*
X5440019Y-1672640D01*
X5445455Y-1674520D01*
X5451805Y-1675282D01*
X5688634Y-1675282D01*
X5694984Y-1674520D01*
X5700420Y-1672640D01*
X5705348Y-1669542D01*
X5709412Y-1665478D01*
X5712510Y-1660550D01*
X5714390Y-1655114D01*
X5715152Y-1648764D01*
X5715152Y-1221435D01*
X5714390Y-1215085D01*
X5712510Y-1209649D01*
X5709412Y-1204722D01*
X5705348Y-1200658D01*
X5700420Y-1197559D01*
X5694984Y-1195679D01*
X5688634Y-1194968D01*
X5618988Y-1194968D01*
X5615127Y-1194155D01*
X5611825Y-1191971D01*
X5609590Y-1188669D01*
X5608828Y-1184808D01*
X5608828Y-308406D01*
X5608066Y-300380D01*
X5605830Y-293166D01*
X5602274Y-286512D01*
X5597194Y-280263D01*
X4340606Y976274D01*
X4338421Y979576D01*
X4337659Y983487D01*
X4337659Y1137361D01*
X4338370Y1141120D01*
X4340453Y1144371D01*
X4343552Y1146606D01*
X4347260Y1147521D01*
X4351070Y1146962D01*
X4354423Y1145082D01*
X4358233Y1141780D01*
X4370679Y1133551D01*
X4383989Y1126947D01*
X4390440Y1124661D01*
X4394250Y1122273D01*
X5749442Y-232968D01*
X5757062Y-239826D01*
X5759399Y-241655D01*
X5767781Y-247345D01*
X5770321Y-248818D01*
X5779414Y-253339D01*
X5782106Y-254457D01*
X5791758Y-257708D01*
X5794603Y-258470D01*
X5804560Y-260350D01*
X5807506Y-260705D01*
X5817717Y-261213D01*
X5984240Y-261213D01*
X5987999Y-261975D01*
X5991250Y-264058D01*
X5993485Y-267208D01*
X5994349Y-270916D01*
X5993485Y-275640D01*
X5992774Y-281990D01*
X5992774Y-540816D01*
X5993485Y-547166D01*
X5995416Y-552602D01*
X5998464Y-557530D01*
X6002578Y-561594D01*
X6007455Y-564692D01*
X6012942Y-566572D01*
X6019241Y-567283D01*
X6198108Y-567283D01*
X6204458Y-566572D01*
X6209893Y-564692D01*
X6214821Y-561594D01*
X6218885Y-557530D01*
X6221984Y-552602D01*
X6223863Y-547166D01*
X6224574Y-540816D01*
X6224574Y-281990D01*
X6223863Y-275640D01*
X6223000Y-270916D01*
X6223914Y-267208D01*
X6226149Y-264058D01*
X6229400Y-261975D01*
X6233160Y-261213D01*
X6286296Y-261213D01*
X6290411Y-262128D01*
X6293815Y-264617D01*
X6295948Y-268274D01*
X6296355Y-272440D01*
X6295085Y-276453D01*
X6292240Y-279603D01*
X6288836Y-282092D01*
X6278219Y-292049D01*
X6268923Y-303276D01*
X6261150Y-315569D01*
X6254953Y-328726D01*
X6250432Y-342595D01*
X6247688Y-356870D01*
X6246774Y-371703D01*
X6246774Y-451104D01*
X6247688Y-465937D01*
X6250432Y-480212D01*
X6254953Y-494080D01*
X6261150Y-507238D01*
X6265164Y-513638D01*
X6266383Y-516229D01*
X6266789Y-519074D01*
X6266789Y-886409D01*
X6267297Y-896670D01*
X6267653Y-899566D01*
X6269532Y-909574D01*
X6270294Y-912418D01*
X6273546Y-922019D01*
X6274663Y-924712D01*
X6279184Y-933856D01*
X6280658Y-936345D01*
X6286347Y-944778D01*
X6288176Y-947064D01*
X6295034Y-954684D01*
X6512763Y-1172362D01*
X6514947Y-1175664D01*
X6515709Y-1179576D01*
X6515709Y-1184808D01*
X6514947Y-1188669D01*
X6512763Y-1191971D01*
X6509461Y-1194155D01*
X6505549Y-1194968D01*
X6493205Y-1194968D01*
X6486855Y-1195679D01*
X6481419Y-1197559D01*
X6476492Y-1200658D01*
X6472428Y-1204722D01*
X6469329Y-1209649D01*
X6467449Y-1215085D01*
X6466738Y-1221435D01*
X6466738Y-1648764D01*
X6467449Y-1655114D01*
X6469329Y-1660550D01*
X6472428Y-1665478D01*
X6476492Y-1669542D01*
X6481419Y-1672640D01*
X6486855Y-1674520D01*
X6493205Y-1675282D01*
X6730034Y-1675282D01*
X6736384Y-1674520D01*
X6741820Y-1672640D01*
X6746748Y-1669542D01*
X6750812Y-1665478D01*
X6753910Y-1660550D01*
X6755790Y-1655114D01*
X6756552Y-1648764D01*
X6756552Y-1221435D01*
X6755790Y-1215085D01*
X6753910Y-1209649D01*
X6750812Y-1204722D01*
X6746748Y-1200658D01*
X6741820Y-1197559D01*
X6736384Y-1195679D01*
X6730034Y-1194968D01*
X6717690Y-1194968D01*
X6713778Y-1194155D01*
X6710527Y-1191971D01*
X6708292Y-1188669D01*
X6707530Y-1184808D01*
X6707530Y-1135888D01*
X6707022Y-1125677D01*
X6706666Y-1122730D01*
X6704025Y-1109929D01*
X6700774Y-1100277D01*
X6699656Y-1097584D01*
X6695135Y-1088491D01*
X6693662Y-1085951D01*
X6686143Y-1075232D01*
X6679234Y-1067612D01*
X6461556Y-849934D01*
X6459372Y-846632D01*
X6458610Y-842771D01*
X6458610Y-519074D01*
X6458966Y-516280D01*
X6460185Y-513638D01*
X6464249Y-507238D01*
X6470446Y-494080D01*
X6474917Y-480212D01*
X6477660Y-465937D01*
X6478574Y-451104D01*
X6478574Y-371703D01*
X6477660Y-356870D01*
X6474917Y-342595D01*
X6470446Y-328726D01*
X6464249Y-315569D01*
X6456426Y-303276D01*
X6447180Y-292049D01*
X6436563Y-282092D01*
X6433108Y-279603D01*
X6430314Y-276453D01*
X6428994Y-272440D01*
X6429451Y-268274D01*
X6431534Y-264617D01*
X6434988Y-262128D01*
X6439103Y-261213D01*
X6541668Y-261213D01*
X6545783Y-262128D01*
X6549186Y-264617D01*
X6551320Y-268274D01*
X6551777Y-272440D01*
X6550456Y-276453D01*
X6547612Y-279603D01*
X6542836Y-283108D01*
X6532219Y-293065D01*
X6522923Y-304292D01*
X6515150Y-316585D01*
X6508953Y-329742D01*
X6505244Y-341071D01*
X6565341Y-341071D01*
X6565341Y-271373D01*
X6566103Y-267512D01*
X6568338Y-264210D01*
X6571589Y-262026D01*
X6575501Y-261213D01*
X6624929Y-261213D01*
X6628790Y-262026D01*
X6632092Y-264210D01*
X6665061Y-297180D01*
X6667246Y-300482D01*
X6668058Y-304342D01*
X6668058Y-341071D01*
X6704736Y-341071D01*
X6708597Y-341833D01*
X6711899Y-344017D01*
X7247991Y-880110D01*
X7250175Y-883412D01*
X7250988Y-887272D01*
X7250988Y-1184808D01*
X7250175Y-1188669D01*
X7247991Y-1191971D01*
X7244689Y-1194155D01*
X7240828Y-1194968D01*
X7024065Y-1194968D01*
X7017715Y-1195679D01*
X7012279Y-1197559D01*
X7007352Y-1200658D01*
X7003288Y-1204722D01*
X7000189Y-1209649D01*
X6998309Y-1215085D01*
X6997598Y-1221435D01*
X6997598Y-1648764D01*
X6998309Y-1655114D01*
X7000189Y-1660550D01*
X7003288Y-1665478D01*
X7007352Y-1669542D01*
X7012279Y-1672640D01*
X7017715Y-1674520D01*
X7024065Y-1675282D01*
X7260894Y-1675282D01*
X7267244Y-1674520D01*
X7272375Y-1672742D01*
X7276134Y-1672183D01*
X7279792Y-1672996D01*
X7282942Y-1675130D01*
X7395616Y-1787855D01*
X7397851Y-1791157D01*
X7398613Y-1795018D01*
X7397851Y-1798929D01*
X7395616Y-1802180D01*
X7392314Y-1804416D01*
X7388453Y-1805178D01*
X6324244Y-1805178D01*
X6320332Y-1804416D01*
X6317030Y-1802180D01*
X6212687Y-1697837D01*
X6210452Y-1694535D01*
X6209690Y-1690624D01*
X6209690Y-1685442D01*
X6210452Y-1681530D01*
X6212687Y-1678228D01*
X6215938Y-1676044D01*
X6219850Y-1675282D01*
X6232194Y-1675282D01*
X6238544Y-1674520D01*
X6243980Y-1672640D01*
X6248908Y-1669542D01*
X6252972Y-1665478D01*
X6256070Y-1660550D01*
X6257950Y-1655114D01*
X6258712Y-1648764D01*
X6258712Y-1221435D01*
X6257950Y-1215085D01*
X6256070Y-1209649D01*
X6252972Y-1204722D01*
X6248908Y-1200658D01*
X6243980Y-1197559D01*
X6238544Y-1195679D01*
X6232194Y-1194968D01*
X5995365Y-1194968D01*
X5989015Y-1195679D01*
X5983579Y-1197559D01*
X5978652Y-1200658D01*
X5974588Y-1204722D01*
X5971489Y-1209649D01*
X5969609Y-1215085D01*
X5968898Y-1221435D01*
X5968898Y-1648764D01*
X5969609Y-1655114D01*
X5971489Y-1660550D01*
X5974588Y-1665478D01*
X5978652Y-1669542D01*
X5983579Y-1672640D01*
X5989015Y-1674520D01*
X5995365Y-1675282D01*
X6007709Y-1675282D01*
X6011621Y-1676044D01*
X6014923Y-1678228D01*
X6017107Y-1681530D01*
X6017869Y-1685442D01*
X6017869Y-1734312D01*
X6018377Y-1744522D01*
X6018733Y-1747469D01*
X6021374Y-1760270D01*
X6024626Y-1769922D01*
X6025743Y-1772615D01*
X6030264Y-1781708D01*
X6031738Y-1784248D01*
X6039256Y-1794967D01*
X6046165Y-1802587D01*
X6200343Y-1956765D01*
X6202527Y-1960016D01*
X6203289Y-1963928D01*
X6202527Y-1967839D01*
X6200343Y-1971090D01*
X6197041Y-1973325D01*
X6193129Y-1974088D01*
G37*

%LPC*%
G36*
X1176324Y-1752955D02*
G01*
X1195374Y-1752447D01*
X1214272Y-1750110D01*
X1232814Y-1745843D01*
X1250848Y-1739798D01*
X1268171Y-1731975D01*
X1284681Y-1722475D01*
X1300124Y-1711350D01*
X1314399Y-1698752D01*
X1327353Y-1684782D01*
X1338834Y-1669643D01*
X1348740Y-1653387D01*
X1357020Y-1636268D01*
X1363522Y-1618386D01*
X1368196Y-1599946D01*
X1371041Y-1581099D01*
X1372006Y-1562100D01*
X1371041Y-1543100D01*
X1368196Y-1524254D01*
X1363522Y-1505813D01*
X1357020Y-1487932D01*
X1348740Y-1470812D01*
X1338834Y-1454556D01*
X1327353Y-1439418D01*
X1314399Y-1425448D01*
X1300124Y-1412849D01*
X1284681Y-1401724D01*
X1268171Y-1392224D01*
X1250848Y-1384401D01*
X1232814Y-1378356D01*
X1214272Y-1374089D01*
X1195374Y-1371752D01*
X1176324Y-1371244D01*
X1157376Y-1372666D01*
X1138631Y-1375968D01*
X1120292Y-1381150D01*
X1102563Y-1388110D01*
X1085646Y-1396796D01*
X1069644Y-1407109D01*
X1054811Y-1418945D01*
X1041146Y-1432255D01*
X1028953Y-1446834D01*
X1018235Y-1462582D01*
X1009091Y-1479296D01*
X1001725Y-1496822D01*
X996086Y-1515008D01*
X992327Y-1533652D01*
X990447Y-1552600D01*
X990447Y-1571599D01*
X992327Y-1590548D01*
X996086Y-1609191D01*
X1001725Y-1627378D01*
X1009091Y-1644904D01*
X1018235Y-1661617D01*
X1028953Y-1677365D01*
X1041146Y-1691944D01*
X1054811Y-1705254D01*
X1069644Y-1717090D01*
X1085646Y-1727403D01*
X1102563Y-1736089D01*
X1120292Y-1743049D01*
X1138631Y-1748231D01*
X1157376Y-1751533D01*
G37*
G36*
X10256824Y-1752955D02*
G01*
X10275874Y-1752447D01*
X10294772Y-1750110D01*
X10313314Y-1745843D01*
X10331348Y-1739798D01*
X10348671Y-1731975D01*
X10365181Y-1722475D01*
X10380624Y-1711350D01*
X10394899Y-1698752D01*
X10407853Y-1684782D01*
X10419334Y-1669643D01*
X10429240Y-1653387D01*
X10437520Y-1636268D01*
X10444022Y-1618386D01*
X10448696Y-1599946D01*
X10451541Y-1581099D01*
X10452506Y-1562100D01*
X10451541Y-1543100D01*
X10448696Y-1524254D01*
X10444022Y-1505813D01*
X10437520Y-1487932D01*
X10429240Y-1470812D01*
X10419334Y-1454556D01*
X10407853Y-1439418D01*
X10394899Y-1425448D01*
X10380624Y-1412849D01*
X10365181Y-1401724D01*
X10348671Y-1392224D01*
X10331348Y-1384401D01*
X10313314Y-1378356D01*
X10294772Y-1374089D01*
X10275874Y-1371752D01*
X10256824Y-1371244D01*
X10237876Y-1372666D01*
X10219131Y-1375968D01*
X10200792Y-1381150D01*
X10183063Y-1388110D01*
X10166146Y-1396796D01*
X10150144Y-1407109D01*
X10135311Y-1418945D01*
X10121646Y-1432255D01*
X10109454Y-1446834D01*
X10098735Y-1462582D01*
X10089591Y-1479296D01*
X10082225Y-1496822D01*
X10076586Y-1515008D01*
X10072827Y-1533652D01*
X10070947Y-1552600D01*
X10070947Y-1571599D01*
X10072827Y-1590548D01*
X10076586Y-1609191D01*
X10082225Y-1627378D01*
X10089591Y-1644904D01*
X10098735Y-1661617D01*
X10109454Y-1677365D01*
X10121646Y-1691944D01*
X10135311Y-1705254D01*
X10150144Y-1717090D01*
X10166146Y-1727403D01*
X10183063Y-1736089D01*
X10200792Y-1743049D01*
X10219131Y-1748231D01*
X10237876Y-1751533D01*
G37*
G36*
X4448505Y-1675282D02*
G01*
X4685334Y-1675282D01*
X4691684Y-1674520D01*
X4697120Y-1672640D01*
X4702048Y-1669542D01*
X4706112Y-1665478D01*
X4709210Y-1660550D01*
X4711090Y-1655114D01*
X4711852Y-1648764D01*
X4711852Y-1221435D01*
X4711090Y-1215085D01*
X4709210Y-1209649D01*
X4706112Y-1204722D01*
X4702048Y-1200658D01*
X4697120Y-1197559D01*
X4691684Y-1195679D01*
X4685334Y-1194968D01*
X4448505Y-1194968D01*
X4442155Y-1195679D01*
X4436719Y-1197559D01*
X4431792Y-1200658D01*
X4427728Y-1204722D01*
X4424629Y-1209649D01*
X4422749Y-1215085D01*
X4422038Y-1221435D01*
X4422038Y-1648764D01*
X4422749Y-1655114D01*
X4424629Y-1660550D01*
X4427728Y-1665478D01*
X4431792Y-1669542D01*
X4436719Y-1672640D01*
X4442155Y-1674520D01*
G37*
G36*
X1062685Y-812952D02*
G01*
X1490014Y-812952D01*
X1496364Y-812190D01*
X1501800Y-810310D01*
X1506728Y-807212D01*
X1510792Y-803148D01*
X1513890Y-798220D01*
X1515770Y-792784D01*
X1516532Y-786434D01*
X1516532Y-549605D01*
X1515770Y-543255D01*
X1513890Y-537819D01*
X1510792Y-532892D01*
X1506728Y-528828D01*
X1501800Y-525729D01*
X1496364Y-523849D01*
X1490014Y-523138D01*
X1062685Y-523138D01*
X1056335Y-523849D01*
X1050899Y-525729D01*
X1045971Y-528828D01*
X1041908Y-532892D01*
X1038809Y-537819D01*
X1036929Y-543255D01*
X1036218Y-549605D01*
X1036218Y-786434D01*
X1036929Y-792784D01*
X1038809Y-798220D01*
X1041908Y-803148D01*
X1045971Y-807212D01*
X1050899Y-810310D01*
X1056335Y-812190D01*
G37*
G36*
X6565341Y-556158D02*
G01*
X6565341Y-483768D01*
X6505244Y-483768D01*
X6508953Y-495046D01*
X6515150Y-508254D01*
X6522923Y-520496D01*
X6532219Y-531723D01*
X6542836Y-541680D01*
X6554571Y-550265D01*
G37*
G36*
X6668058Y-556158D02*
G01*
X6678777Y-550265D01*
X6690563Y-541680D01*
X6701180Y-531723D01*
X6710425Y-520496D01*
X6718249Y-508254D01*
X6724446Y-495046D01*
X6728104Y-483768D01*
X6668058Y-483768D01*
G37*
G36*
X8700058Y-473456D02*
G01*
X8710828Y-467563D01*
X8722563Y-458978D01*
X8733180Y-449021D01*
X8742476Y-437794D01*
X8750249Y-425500D01*
X8756446Y-412343D01*
X8760155Y-401066D01*
X8700058Y-401066D01*
G37*
G36*
X8537295Y-258368D02*
G01*
X8597341Y-258368D01*
X8597341Y-185928D01*
X8586622Y-191871D01*
X8574836Y-200406D01*
X8564219Y-210362D01*
X8554974Y-221589D01*
X8547150Y-233883D01*
X8540953Y-247040D01*
G37*
G36*
X8700058Y-258368D02*
G01*
X8760155Y-258368D01*
X8756446Y-247040D01*
X8750249Y-233883D01*
X8742476Y-221589D01*
X8733180Y-210362D01*
X8722563Y-200406D01*
X8710828Y-191871D01*
X8700058Y-185928D01*
G37*
G36*
X9092692Y656386D02*
G01*
X9271558Y656386D01*
X9277858Y657098D01*
X9283344Y659028D01*
X9288221Y662076D01*
X9292336Y666191D01*
X9295384Y671068D01*
X9297314Y676554D01*
X9298025Y682853D01*
X9298025Y941730D01*
X9297314Y948080D01*
X9295384Y953516D01*
X9292336Y958392D01*
X9288221Y962507D01*
X9283344Y965606D01*
X9277858Y967486D01*
X9271558Y968197D01*
X9092692Y968197D01*
X9086342Y967486D01*
X9080906Y965606D01*
X9075978Y962507D01*
X9071914Y958392D01*
X9068816Y953516D01*
X9066936Y948080D01*
X9066225Y941730D01*
X9066225Y682853D01*
X9066936Y676554D01*
X9068816Y671068D01*
X9071914Y666191D01*
X9075978Y662076D01*
X9080906Y659028D01*
X9086342Y657098D01*
G37*
G36*
X8920835Y656640D02*
G01*
X8935364Y656640D01*
X8949842Y658469D01*
X8963914Y662076D01*
X8977477Y667461D01*
X8990228Y674471D01*
X9001963Y683006D01*
X9012580Y692962D01*
X9021876Y704189D01*
X9029649Y716483D01*
X9035846Y729640D01*
X9040368Y743508D01*
X9043111Y757783D01*
X9044025Y772617D01*
X9044025Y851966D01*
X9043111Y866851D01*
X9040368Y881126D01*
X9035846Y894943D01*
X9029649Y908151D01*
X9021876Y920445D01*
X9012580Y931621D01*
X9001963Y941578D01*
X8990228Y950163D01*
X8977477Y957173D01*
X8963914Y962507D01*
X8949842Y966114D01*
X8935364Y967943D01*
X8920835Y967943D01*
X8906408Y966114D01*
X8892286Y962507D01*
X8878773Y957173D01*
X8866022Y950163D01*
X8854236Y941578D01*
X8843619Y931621D01*
X8834374Y920445D01*
X8826550Y908151D01*
X8820353Y894943D01*
X8815882Y881126D01*
X8813139Y866851D01*
X8812225Y851966D01*
X8812225Y772617D01*
X8813139Y757783D01*
X8815882Y743508D01*
X8820353Y729640D01*
X8826550Y716483D01*
X8834374Y704189D01*
X8843619Y692962D01*
X8854236Y683006D01*
X8866022Y674471D01*
X8878773Y667461D01*
X8892286Y662076D01*
X8906408Y658469D01*
G37*
G36*
X8725458Y669544D02*
G01*
X8736228Y675436D01*
X8747963Y684022D01*
X8758580Y693978D01*
X8767876Y705205D01*
X8775649Y717499D01*
X8781846Y730656D01*
X8785555Y741934D01*
X8725458Y741934D01*
G37*
G36*
X8622741Y669544D02*
G01*
X8622741Y741934D01*
X8562695Y741934D01*
X8566353Y730656D01*
X8572550Y717499D01*
X8580374Y705205D01*
X8589619Y693978D01*
X8600236Y684022D01*
X8612022Y675436D01*
G37*
G36*
X7858353Y863346D02*
G01*
X8117230Y863346D01*
X8123580Y864057D01*
X8129016Y865936D01*
X8133892Y869035D01*
X8138007Y873150D01*
X8141106Y878027D01*
X8142986Y883513D01*
X8143697Y889812D01*
X8143697Y1068679D01*
X8142986Y1074978D01*
X8141106Y1080465D01*
X8138007Y1085342D01*
X8133892Y1089456D01*
X8129016Y1092555D01*
X8123580Y1094435D01*
X8117230Y1095146D01*
X7858353Y1095146D01*
X7852054Y1094435D01*
X7846568Y1092555D01*
X7841691Y1089456D01*
X7837576Y1085342D01*
X7834528Y1080465D01*
X7832598Y1074978D01*
X7831886Y1068679D01*
X7831886Y889812D01*
X7832598Y883513D01*
X7834528Y878027D01*
X7837576Y873150D01*
X7841691Y869035D01*
X7846568Y865936D01*
X7852054Y864057D01*
G37*
G36*
X8725458Y884631D02*
G01*
X8785555Y884631D01*
X8781846Y895959D01*
X8775649Y909116D01*
X8767876Y921410D01*
X8758580Y932637D01*
X8747963Y942594D01*
X8736228Y951128D01*
X8725458Y957071D01*
G37*
G36*
X8562695Y884631D02*
G01*
X8622741Y884631D01*
X8622741Y957071D01*
X8612022Y951128D01*
X8600236Y942594D01*
X8589619Y932637D01*
X8580374Y921410D01*
X8572550Y909116D01*
X8566353Y895959D01*
G37*
G36*
X7948117Y1117346D02*
G01*
X8027466Y1117346D01*
X8042351Y1118260D01*
X8056625Y1121003D01*
X8070443Y1125474D01*
X8083651Y1131671D01*
X8095945Y1139494D01*
X8107121Y1148791D01*
X8117078Y1159357D01*
X8125663Y1171143D01*
X8132673Y1183894D01*
X8138007Y1197457D01*
X8141614Y1211529D01*
X8143443Y1225956D01*
X8143443Y1240536D01*
X8141614Y1254963D01*
X8138007Y1269034D01*
X8132673Y1282598D01*
X8125663Y1295349D01*
X8117078Y1307134D01*
X8107121Y1317701D01*
X8095945Y1326997D01*
X8083651Y1334820D01*
X8070443Y1341018D01*
X8056625Y1345488D01*
X8042351Y1348232D01*
X8027466Y1349146D01*
X7948117Y1349146D01*
X7933283Y1348232D01*
X7919008Y1345488D01*
X7905140Y1341018D01*
X7891983Y1334820D01*
X7879689Y1326997D01*
X7868462Y1317701D01*
X7858506Y1307134D01*
X7849971Y1295349D01*
X7842961Y1282598D01*
X7837576Y1269034D01*
X7833969Y1254963D01*
X7832140Y1240536D01*
X7832140Y1225956D01*
X7833969Y1211529D01*
X7837576Y1197457D01*
X7842961Y1183894D01*
X7849971Y1171143D01*
X7858506Y1159357D01*
X7868462Y1148791D01*
X7879689Y1139494D01*
X7891983Y1131671D01*
X7905140Y1125474D01*
X7919008Y1121003D01*
X7933283Y1118260D01*
G37*
G36*
X7917434Y1375816D02*
G01*
X7917434Y1435912D01*
X7845044Y1435912D01*
X7850936Y1425143D01*
X7859522Y1413357D01*
X7869478Y1402791D01*
X7880705Y1393494D01*
X7892999Y1385671D01*
X7906156Y1379474D01*
G37*
G36*
X8060131Y1375816D02*
G01*
X8071459Y1379474D01*
X8084616Y1385671D01*
X8096910Y1393494D01*
X8108137Y1402791D01*
X8118094Y1413357D01*
X8126628Y1425143D01*
X8132572Y1435912D01*
X8060131Y1435912D01*
G37*
G36*
X8060131Y1538579D02*
G01*
X8132572Y1538579D01*
X8126628Y1549349D01*
X8118094Y1561134D01*
X8108137Y1571701D01*
X8096910Y1580997D01*
X8084616Y1588820D01*
X8071459Y1595018D01*
X8060131Y1598676D01*
G37*
G36*
X7845044Y1538579D02*
G01*
X7917434Y1538579D01*
X7917434Y1598676D01*
X7906156Y1595018D01*
X7892999Y1588820D01*
X7880705Y1580997D01*
X7869478Y1571701D01*
X7859522Y1561134D01*
X7850936Y1549349D01*
G37*
G36*
X8610041Y1647443D02*
G01*
X8610041Y1719834D01*
X8549995Y1719834D01*
X8553653Y1708556D01*
X8559850Y1695399D01*
X8567674Y1683105D01*
X8576919Y1671878D01*
X8587536Y1661922D01*
X8599322Y1653336D01*
G37*
G36*
X8712758Y1647443D02*
G01*
X8723528Y1653336D01*
X8735263Y1661922D01*
X8745880Y1671878D01*
X8755176Y1683105D01*
X8762949Y1695399D01*
X8769146Y1708556D01*
X8772855Y1719834D01*
X8712758Y1719834D01*
G37*
G36*
X7059472Y1717446D02*
G01*
X7074357Y1717903D01*
X7089089Y1720138D01*
X7103364Y1724253D01*
X7117080Y1730044D01*
X7129983Y1737461D01*
X7141870Y1746453D01*
X7152538Y1756816D01*
X7161885Y1768398D01*
X7169708Y1781048D01*
X7175906Y1794560D01*
X7180427Y1808784D01*
X7183170Y1823415D01*
X7184085Y1838248D01*
X7183170Y1853133D01*
X7180427Y1867763D01*
X7175906Y1881936D01*
X7169708Y1895449D01*
X7161885Y1908098D01*
X7152538Y1919681D01*
X7141870Y1930044D01*
X7129983Y1939036D01*
X7117080Y1946452D01*
X7103364Y1952294D01*
X7089089Y1956358D01*
X7082485Y1957374D01*
X7079437Y1958339D01*
X7076897Y1960219D01*
X6878980Y2158136D01*
X6876745Y2161438D01*
X6875983Y2165299D01*
X6875983Y3210102D01*
X6876643Y3213760D01*
X6878574Y3216910D01*
X6881520Y3219145D01*
X6885076Y3220212D01*
X6888784Y3219907D01*
X6894626Y3218332D01*
X6904431Y3217468D01*
X6914184Y3218332D01*
X6923684Y3220872D01*
X6932574Y3225038D01*
X6940651Y3230676D01*
X6947611Y3237636D01*
X6953250Y3245662D01*
X6957364Y3254552D01*
X6959904Y3264052D01*
X6960768Y3273856D01*
X6960311Y3278936D01*
X6960870Y3283102D01*
X6963003Y3286760D01*
X6966458Y3289147D01*
X6970623Y3289960D01*
X6975094Y3288842D01*
X6988149Y3284829D01*
X7001560Y3282543D01*
X7015225Y3282086D01*
X7028789Y3283458D01*
X7042048Y3286607D01*
X7054748Y3291535D01*
X7066737Y3298088D01*
X7077709Y3306165D01*
X7087514Y3315665D01*
X7095947Y3326333D01*
X7102906Y3338068D01*
X7108240Y3350615D01*
X7111847Y3363772D01*
X7113676Y3377285D01*
X7113676Y3390950D01*
X7111847Y3404463D01*
X7108240Y3417620D01*
X7102906Y3430168D01*
X7095947Y3441903D01*
X7087514Y3452571D01*
X7077709Y3462070D01*
X7066737Y3470148D01*
X7054748Y3476701D01*
X7042048Y3481628D01*
X7028789Y3484778D01*
X7015225Y3486150D01*
X7001560Y3485692D01*
X6988149Y3483406D01*
X6975094Y3479393D01*
X6962749Y3473653D01*
X6958634Y3471011D01*
X6954621Y3469538D01*
X6950303Y3469843D01*
X6946493Y3471926D01*
X6943953Y3475380D01*
X6943039Y3479596D01*
X6943039Y3542639D01*
X6943953Y3546856D01*
X6946493Y3550310D01*
X6950303Y3552393D01*
X6954621Y3552698D01*
X6958634Y3551224D01*
X6962749Y3548583D01*
X6975094Y3542842D01*
X6988149Y3538829D01*
X7001560Y3536543D01*
X7015225Y3536086D01*
X7028789Y3537458D01*
X7042048Y3540607D01*
X7054748Y3545535D01*
X7066737Y3552088D01*
X7077709Y3560165D01*
X7087514Y3569665D01*
X7095947Y3580333D01*
X7102906Y3592068D01*
X7108240Y3604615D01*
X7111847Y3617772D01*
X7113676Y3631285D01*
X7113676Y3644950D01*
X7111847Y3658463D01*
X7108240Y3671620D01*
X7102906Y3684168D01*
X7095947Y3695903D01*
X7087514Y3706571D01*
X7077709Y3716070D01*
X7066737Y3724148D01*
X7054748Y3730701D01*
X7042048Y3735628D01*
X7028789Y3738778D01*
X7015225Y3740150D01*
X7001560Y3739692D01*
X6988149Y3737406D01*
X6975094Y3733393D01*
X6962749Y3727653D01*
X6958634Y3725011D01*
X6954621Y3723538D01*
X6950303Y3723843D01*
X6946493Y3725926D01*
X6943953Y3729380D01*
X6943039Y3733596D01*
X6943039Y3796639D01*
X6943953Y3800856D01*
X6946493Y3804310D01*
X6950303Y3806393D01*
X6954621Y3806698D01*
X6958634Y3805224D01*
X6962749Y3802583D01*
X6975094Y3796842D01*
X6988149Y3792829D01*
X7001560Y3790543D01*
X7015225Y3790086D01*
X7028789Y3791458D01*
X7042048Y3794607D01*
X7054748Y3799535D01*
X7066737Y3806088D01*
X7077709Y3814165D01*
X7087514Y3823665D01*
X7095947Y3834333D01*
X7102906Y3846068D01*
X7108240Y3858615D01*
X7111847Y3871772D01*
X7113676Y3885285D01*
X7113676Y3898950D01*
X7111847Y3912463D01*
X7108240Y3925620D01*
X7102906Y3938168D01*
X7095947Y3949903D01*
X7087514Y3960571D01*
X7077709Y3970070D01*
X7066737Y3978148D01*
X7054748Y3984701D01*
X7042048Y3989628D01*
X7028789Y3992778D01*
X7015225Y3994150D01*
X7001560Y3993692D01*
X6988149Y3991406D01*
X6975094Y3987393D01*
X6962749Y3981653D01*
X6958634Y3979011D01*
X6954621Y3977538D01*
X6950303Y3977843D01*
X6946493Y3979926D01*
X6943953Y3983380D01*
X6943039Y3987596D01*
X6943039Y4050639D01*
X6943953Y4054856D01*
X6946493Y4058310D01*
X6950303Y4060393D01*
X6954621Y4060698D01*
X6958634Y4059224D01*
X6962749Y4056583D01*
X6975094Y4050842D01*
X6988149Y4046829D01*
X7001560Y4044543D01*
X7015225Y4044086D01*
X7028789Y4045458D01*
X7042048Y4048607D01*
X7054748Y4053535D01*
X7066737Y4060088D01*
X7077709Y4068165D01*
X7087514Y4077665D01*
X7095947Y4088333D01*
X7102906Y4100068D01*
X7108240Y4112615D01*
X7111847Y4125772D01*
X7113676Y4139285D01*
X7113676Y4152950D01*
X7111847Y4166463D01*
X7108240Y4179620D01*
X7102906Y4192168D01*
X7095947Y4203903D01*
X7087514Y4214571D01*
X7077709Y4224070D01*
X7066737Y4232148D01*
X7054748Y4238701D01*
X7042048Y4243628D01*
X7028789Y4246778D01*
X7015225Y4248150D01*
X7001560Y4247692D01*
X6988149Y4245406D01*
X6975094Y4241393D01*
X6962749Y4235653D01*
X6958634Y4233011D01*
X6954621Y4231538D01*
X6950303Y4231843D01*
X6946493Y4233926D01*
X6943953Y4237380D01*
X6943039Y4241596D01*
X6943039Y4304639D01*
X6943953Y4308856D01*
X6946493Y4312310D01*
X6950303Y4314393D01*
X6954621Y4314698D01*
X6958634Y4313224D01*
X6962749Y4310583D01*
X6975094Y4304842D01*
X6988149Y4300829D01*
X7001560Y4298543D01*
X7015225Y4298086D01*
X7028789Y4299458D01*
X7042048Y4302607D01*
X7054748Y4307535D01*
X7066737Y4314088D01*
X7077709Y4322165D01*
X7087514Y4331665D01*
X7095947Y4342333D01*
X7102906Y4354068D01*
X7108240Y4366615D01*
X7111847Y4379772D01*
X7113676Y4393285D01*
X7113676Y4406950D01*
X7111847Y4420463D01*
X7108240Y4433620D01*
X7102906Y4446168D01*
X7095947Y4457903D01*
X7087514Y4468571D01*
X7077709Y4478070D01*
X7066737Y4486148D01*
X7054748Y4492701D01*
X7042048Y4497628D01*
X7028789Y4500778D01*
X7015225Y4502150D01*
X7001560Y4501692D01*
X6988149Y4499406D01*
X6975094Y4495393D01*
X6962749Y4489653D01*
X6958634Y4487011D01*
X6954621Y4485538D01*
X6950303Y4485843D01*
X6946493Y4487926D01*
X6943953Y4491380D01*
X6943039Y4495596D01*
X6943039Y4558639D01*
X6943953Y4562856D01*
X6946493Y4566310D01*
X6950303Y4568393D01*
X6954621Y4568698D01*
X6958634Y4567224D01*
X6962749Y4564583D01*
X6975094Y4558842D01*
X6988149Y4554829D01*
X7001560Y4552543D01*
X7015225Y4552086D01*
X7028789Y4553458D01*
X7042048Y4556607D01*
X7054748Y4561535D01*
X7066737Y4568088D01*
X7077709Y4576165D01*
X7087514Y4585665D01*
X7095947Y4596333D01*
X7102906Y4608068D01*
X7108240Y4620615D01*
X7111847Y4633772D01*
X7113676Y4647285D01*
X7113676Y4660950D01*
X7111847Y4674463D01*
X7108240Y4687620D01*
X7102906Y4700168D01*
X7095947Y4711903D01*
X7087514Y4722571D01*
X7077709Y4732070D01*
X7066737Y4740148D01*
X7054748Y4746701D01*
X7042048Y4751628D01*
X7028789Y4754778D01*
X7015225Y4756150D01*
X7001560Y4755692D01*
X6988149Y4753406D01*
X6975094Y4749393D01*
X6962749Y4743653D01*
X6958634Y4741011D01*
X6954621Y4739538D01*
X6950303Y4739843D01*
X6946493Y4741926D01*
X6943953Y4745380D01*
X6943039Y4749596D01*
X6943039Y4812639D01*
X6943953Y4816856D01*
X6946493Y4820310D01*
X6950303Y4822393D01*
X6954621Y4822698D01*
X6958634Y4821224D01*
X6962749Y4818583D01*
X6975094Y4812842D01*
X6988149Y4808829D01*
X7001560Y4806543D01*
X7015225Y4806086D01*
X7028789Y4807458D01*
X7042048Y4810607D01*
X7054748Y4815535D01*
X7066737Y4822088D01*
X7077709Y4830165D01*
X7087514Y4839665D01*
X7095947Y4850333D01*
X7102906Y4862068D01*
X7108240Y4874615D01*
X7111847Y4887772D01*
X7113676Y4901285D01*
X7113676Y4914950D01*
X7111847Y4928463D01*
X7108240Y4941620D01*
X7102906Y4954168D01*
X7095947Y4965903D01*
X7087514Y4976571D01*
X7077709Y4986070D01*
X7066737Y4994148D01*
X7054748Y5000701D01*
X7042048Y5005628D01*
X7028789Y5008778D01*
X7015225Y5010150D01*
X7001560Y5009692D01*
X6988149Y5007406D01*
X6975094Y5003393D01*
X6962749Y4997653D01*
X6958634Y4995011D01*
X6954621Y4993538D01*
X6950303Y4993843D01*
X6946493Y4995926D01*
X6943953Y4999380D01*
X6943039Y5003596D01*
X6943039Y5066639D01*
X6943953Y5070856D01*
X6946493Y5074310D01*
X6950303Y5076393D01*
X6954621Y5076698D01*
X6958634Y5075224D01*
X6962749Y5072583D01*
X6975094Y5066842D01*
X6988149Y5062829D01*
X7001560Y5060543D01*
X7015225Y5060086D01*
X7028789Y5061458D01*
X7042048Y5064607D01*
X7054748Y5069535D01*
X7066737Y5076088D01*
X7077709Y5084165D01*
X7087514Y5093665D01*
X7095947Y5104333D01*
X7102906Y5116068D01*
X7108240Y5128615D01*
X7111847Y5141772D01*
X7113676Y5155285D01*
X7113676Y5168950D01*
X7111847Y5182463D01*
X7108240Y5195620D01*
X7102906Y5208168D01*
X7095947Y5219903D01*
X7087514Y5230571D01*
X7077709Y5240070D01*
X7066737Y5248148D01*
X7054748Y5254701D01*
X7042048Y5259628D01*
X7028789Y5262778D01*
X7015225Y5264150D01*
X7001560Y5263692D01*
X6988149Y5261406D01*
X6975094Y5257393D01*
X6962749Y5251653D01*
X6958634Y5249011D01*
X6954621Y5247538D01*
X6950303Y5247843D01*
X6946493Y5249926D01*
X6943953Y5253380D01*
X6943039Y5257596D01*
X6943039Y5320639D01*
X6943953Y5324856D01*
X6946493Y5328310D01*
X6950303Y5330393D01*
X6954621Y5330698D01*
X6958634Y5329224D01*
X6962749Y5326583D01*
X6975094Y5320842D01*
X6988149Y5316829D01*
X7001560Y5314543D01*
X7015225Y5314086D01*
X7028789Y5315458D01*
X7042048Y5318607D01*
X7054748Y5323535D01*
X7066737Y5330088D01*
X7077709Y5338165D01*
X7087514Y5347665D01*
X7095947Y5358333D01*
X7102906Y5370068D01*
X7108240Y5382615D01*
X7111847Y5395772D01*
X7113676Y5409285D01*
X7113676Y5422950D01*
X7111847Y5436463D01*
X7108240Y5449620D01*
X7102906Y5462168D01*
X7095947Y5473903D01*
X7087514Y5484571D01*
X7077709Y5494070D01*
X7066737Y5502148D01*
X7057390Y5507278D01*
X7054138Y5510072D01*
X7052360Y5513933D01*
X7052309Y5518251D01*
X7054037Y5522163D01*
X7057186Y5525008D01*
X7069581Y5528614D01*
X7076236Y5532170D01*
X7082434Y5537301D01*
X7150760Y5605576D01*
X7155840Y5611774D01*
X7159396Y5618480D01*
X7161631Y5625693D01*
X7162393Y5633720D01*
X7162393Y5713984D01*
X7161631Y5722010D01*
X7159396Y5729224D01*
X7155840Y5735929D01*
X7150760Y5742127D01*
X7068820Y5824067D01*
X7066483Y5826912D01*
X7065314Y5830366D01*
X7065467Y5833973D01*
X7066838Y5837326D01*
X7069328Y5840018D01*
X7077709Y5846165D01*
X7087514Y5855665D01*
X7095947Y5866333D01*
X7102906Y5878068D01*
X7108240Y5890615D01*
X7111847Y5903772D01*
X7113676Y5917285D01*
X7113676Y5930950D01*
X7111847Y5944463D01*
X7108240Y5957620D01*
X7102906Y5970168D01*
X7095947Y5981903D01*
X7087514Y5992571D01*
X7077709Y6002070D01*
X7066737Y6010148D01*
X7054748Y6016701D01*
X7042048Y6021628D01*
X7028789Y6024778D01*
X7015225Y6026150D01*
X7001560Y6025692D01*
X6988149Y6023406D01*
X6975094Y6019393D01*
X6962749Y6013653D01*
X6956653Y6009741D01*
X6952640Y6008268D01*
X6948322Y6008573D01*
X6944512Y6010656D01*
X6941972Y6014110D01*
X6941058Y6018326D01*
X6941058Y6083909D01*
X6941972Y6088126D01*
X6944512Y6091580D01*
X6948322Y6093663D01*
X6952640Y6093968D01*
X6956653Y6092494D01*
X6962749Y6088583D01*
X6967372Y6086449D01*
X6967372Y6133642D01*
X6951218Y6133642D01*
X6947306Y6134455D01*
X6944004Y6136640D01*
X6941820Y6139942D01*
X6941058Y6143802D01*
X6941058Y6212382D01*
X6941820Y6216294D01*
X6944004Y6219596D01*
X6947306Y6221780D01*
X6951218Y6222542D01*
X6967372Y6222542D01*
X6967372Y6269786D01*
X6962749Y6267653D01*
X6956653Y6263741D01*
X6952640Y6262268D01*
X6948322Y6262573D01*
X6944512Y6264656D01*
X6941972Y6268110D01*
X6941058Y6272326D01*
X6941058Y6302552D01*
X6941820Y6306413D01*
X6944004Y6309715D01*
X6967728Y6333439D01*
X6970725Y6335522D01*
X6974281Y6336436D01*
X6977938Y6335979D01*
X6988149Y6332829D01*
X7001560Y6330543D01*
X7015225Y6330086D01*
X7028789Y6331458D01*
X7042048Y6334607D01*
X7054748Y6339535D01*
X7066737Y6346088D01*
X7077709Y6354165D01*
X7087514Y6363665D01*
X7095947Y6374333D01*
X7102906Y6386068D01*
X7108240Y6398615D01*
X7111847Y6411772D01*
X7113676Y6425285D01*
X7113676Y6438950D01*
X7111847Y6452463D01*
X7108240Y6465620D01*
X7102906Y6478168D01*
X7095947Y6489903D01*
X7087514Y6500571D01*
X7077709Y6510070D01*
X7066737Y6518148D01*
X7054748Y6524701D01*
X7042048Y6529628D01*
X7028789Y6532778D01*
X7015225Y6534150D01*
X7001560Y6533692D01*
X6988149Y6531406D01*
X6975094Y6527393D01*
X6962749Y6521653D01*
X6951218Y6514287D01*
X6940803Y6505498D01*
X6931659Y6495389D01*
X6923938Y6484162D01*
X6917791Y6471970D01*
X6913321Y6459067D01*
X6910628Y6445707D01*
X6909714Y6432092D01*
X6910628Y6418529D01*
X6913321Y6405168D01*
X6915607Y6398615D01*
X6916166Y6394907D01*
X6915302Y6391198D01*
X6913168Y6388100D01*
X6893306Y6368237D01*
X6890054Y6366052D01*
X6886143Y6365290D01*
X6882231Y6366052D01*
X6878980Y6368237D01*
X6876745Y6371539D01*
X6875983Y6375450D01*
X6875983Y7172452D01*
X6876745Y7176363D01*
X6878980Y7179665D01*
X6892848Y7193534D01*
X6896049Y7195718D01*
X6899808Y7196531D01*
X6903618Y7195870D01*
X6906920Y7193838D01*
X6909206Y7190790D01*
X6910171Y7187031D01*
X6910628Y7180529D01*
X6913321Y7167168D01*
X6917791Y7154265D01*
X6923938Y7142073D01*
X6931659Y7130846D01*
X6940803Y7120737D01*
X6951218Y7111949D01*
X6962749Y7104583D01*
X6975094Y7098842D01*
X6988149Y7094829D01*
X7001560Y7092543D01*
X7015225Y7092086D01*
X7028789Y7093458D01*
X7042048Y7096607D01*
X7054748Y7101535D01*
X7066737Y7108088D01*
X7077709Y7116165D01*
X7087514Y7125665D01*
X7095947Y7136333D01*
X7102906Y7148068D01*
X7108240Y7160615D01*
X7111847Y7173772D01*
X7113676Y7187285D01*
X7113676Y7200950D01*
X7111847Y7214463D01*
X7108240Y7227620D01*
X7102906Y7240168D01*
X7095947Y7251903D01*
X7087514Y7262571D01*
X7077709Y7272070D01*
X7066737Y7280148D01*
X7054748Y7286701D01*
X7042048Y7291628D01*
X7028789Y7294778D01*
X7018578Y7295794D01*
X7014921Y7296861D01*
X7011974Y7299248D01*
X7010044Y7302500D01*
X7009434Y7306259D01*
X7010298Y7309967D01*
X7012431Y7313117D01*
X7053884Y7354570D01*
X7056170Y7356297D01*
X7066737Y7362088D01*
X7077709Y7370165D01*
X7087514Y7379665D01*
X7095947Y7390333D01*
X7102906Y7402068D01*
X7108240Y7414615D01*
X7111847Y7427772D01*
X7113676Y7441285D01*
X7113676Y7454950D01*
X7111847Y7468463D01*
X7108240Y7481620D01*
X7102906Y7494168D01*
X7095947Y7505903D01*
X7087514Y7516571D01*
X7077709Y7526070D01*
X7066737Y7534148D01*
X7054748Y7540701D01*
X7042048Y7545628D01*
X7028789Y7548778D01*
X7015225Y7550150D01*
X7001560Y7549692D01*
X6988149Y7547406D01*
X6975094Y7543393D01*
X6962749Y7537653D01*
X6951218Y7530287D01*
X6940803Y7521498D01*
X6931659Y7511389D01*
X6923938Y7500162D01*
X6920382Y7493050D01*
X6918502Y7490459D01*
X6712458Y7284415D01*
X6705549Y7276795D01*
X6698030Y7266076D01*
X6696557Y7263536D01*
X6692036Y7254443D01*
X6690918Y7251750D01*
X6687667Y7242098D01*
X6685025Y7229297D01*
X6684670Y7226350D01*
X6684162Y7216140D01*
X6684162Y2121662D01*
X6684670Y2111400D01*
X6685025Y2108504D01*
X6687667Y2095652D01*
X6690918Y2086051D01*
X6692036Y2083358D01*
X6696557Y2074214D01*
X6698030Y2071725D01*
X6703771Y2063292D01*
X6705549Y2061006D01*
X6712458Y2053386D01*
X6941159Y1824685D01*
X6943090Y1821942D01*
X6944055Y1818741D01*
X6944359Y1816049D01*
X6948017Y1801622D01*
X6953402Y1787702D01*
X6960412Y1774596D01*
X6968998Y1762455D01*
X6979056Y1751482D01*
X6990334Y1741779D01*
X7002780Y1733550D01*
X7016089Y1726946D01*
X7030110Y1721967D01*
X7044639Y1718818D01*
G37*
G36*
X8549995Y1862582D02*
G01*
X8610041Y1862582D01*
X8610041Y1934972D01*
X8599322Y1929079D01*
X8587536Y1920493D01*
X8576919Y1910537D01*
X8567674Y1899310D01*
X8559850Y1887016D01*
X8553653Y1873859D01*
G37*
G36*
X8712758Y1862582D02*
G01*
X8772855Y1862582D01*
X8769146Y1873859D01*
X8762949Y1887016D01*
X8755176Y1899310D01*
X8745880Y1910537D01*
X8735263Y1920493D01*
X8723528Y1929079D01*
X8712758Y1934972D01*
G37*
G36*
X9079992Y2612186D02*
G01*
X9258858Y2612186D01*
X9265158Y2612898D01*
X9270644Y2614828D01*
X9275521Y2617927D01*
X9279636Y2621991D01*
X9282684Y2626918D01*
X9284614Y2632354D01*
X9285325Y2638704D01*
X9285325Y2897530D01*
X9284614Y2903880D01*
X9282684Y2909316D01*
X9279636Y2914243D01*
X9275521Y2918307D01*
X9270644Y2921406D01*
X9265158Y2923286D01*
X9258858Y2923997D01*
X9079992Y2923997D01*
X9073642Y2923286D01*
X9068206Y2921406D01*
X9063278Y2918307D01*
X9059214Y2914243D01*
X9056116Y2909316D01*
X9054236Y2903880D01*
X9053525Y2897530D01*
X9053525Y2638704D01*
X9054236Y2632354D01*
X9056116Y2626918D01*
X9059214Y2621991D01*
X9063278Y2617927D01*
X9068206Y2614828D01*
X9073642Y2612898D01*
G37*
G36*
X8908135Y2612440D02*
G01*
X8922664Y2612440D01*
X8937142Y2614269D01*
X8951214Y2617876D01*
X8964777Y2623261D01*
X8977528Y2630271D01*
X8989263Y2638806D01*
X8999880Y2648762D01*
X9009176Y2659989D01*
X9016949Y2672283D01*
X9023146Y2685440D01*
X9027668Y2699308D01*
X9030411Y2713583D01*
X9031325Y2728417D01*
X9031325Y2807766D01*
X9030411Y2822651D01*
X9027668Y2836926D01*
X9023146Y2850794D01*
X9016949Y2863951D01*
X9009176Y2876245D01*
X8999880Y2887421D01*
X8989263Y2897378D01*
X8977528Y2905963D01*
X8964777Y2912973D01*
X8951214Y2918307D01*
X8937142Y2921965D01*
X8922664Y2923794D01*
X8908135Y2923794D01*
X8893708Y2921965D01*
X8879586Y2918307D01*
X8866073Y2912973D01*
X8853322Y2905963D01*
X8841536Y2897378D01*
X8830919Y2887421D01*
X8821674Y2876245D01*
X8813850Y2863951D01*
X8807653Y2850794D01*
X8803182Y2836926D01*
X8800439Y2822651D01*
X8799525Y2807766D01*
X8799525Y2728417D01*
X8800439Y2713583D01*
X8803182Y2699308D01*
X8807653Y2685440D01*
X8813850Y2672283D01*
X8821674Y2659989D01*
X8830919Y2648762D01*
X8841536Y2638806D01*
X8853322Y2630271D01*
X8866073Y2623261D01*
X8879586Y2617876D01*
X8893708Y2614269D01*
G37*
G36*
X8712758Y2625344D02*
G01*
X8723528Y2631287D01*
X8735263Y2639822D01*
X8745880Y2649778D01*
X8755176Y2661005D01*
X8762949Y2673299D01*
X8769146Y2686456D01*
X8772855Y2697784D01*
X8712758Y2697784D01*
G37*
G36*
X8610041Y2625344D02*
G01*
X8610041Y2697784D01*
X8549995Y2697784D01*
X8553653Y2686456D01*
X8559850Y2673299D01*
X8567674Y2661005D01*
X8576919Y2649778D01*
X8587536Y2639822D01*
X8599322Y2631287D01*
G37*
G36*
X7015225Y2774086D02*
G01*
X7028789Y2775458D01*
X7042048Y2778607D01*
X7054748Y2783535D01*
X7066737Y2790088D01*
X7077709Y2798165D01*
X7087514Y2807665D01*
X7095947Y2818333D01*
X7105446Y2834132D01*
X8428278Y4156964D01*
X8435187Y4164584D01*
X8442706Y4175302D01*
X8444179Y4177842D01*
X8448700Y4186936D01*
X8449818Y4189628D01*
X8453069Y4199280D01*
X8455710Y4212082D01*
X8456066Y4215028D01*
X8456574Y4225239D01*
X8456574Y6964425D01*
X8457336Y6968337D01*
X8459571Y6971639D01*
X8632494Y7144562D01*
X8639403Y7152182D01*
X8646922Y7162901D01*
X8648395Y7165441D01*
X8652916Y7174534D01*
X8654034Y7177227D01*
X8657285Y7186879D01*
X8659926Y7199680D01*
X8660282Y7202627D01*
X8660790Y7212838D01*
X8660790Y7261707D01*
X8661552Y7265619D01*
X8663787Y7268921D01*
X8667038Y7271105D01*
X8670950Y7271867D01*
X8683294Y7271867D01*
X8689644Y7272629D01*
X8695080Y7274509D01*
X8700008Y7277608D01*
X8704072Y7281672D01*
X8707170Y7286599D01*
X8709050Y7292035D01*
X8709812Y7298385D01*
X8709812Y7725714D01*
X8709050Y7732064D01*
X8707170Y7737500D01*
X8704072Y7742428D01*
X8700008Y7746492D01*
X8695080Y7749590D01*
X8689644Y7751470D01*
X8683294Y7752181D01*
X8446465Y7752181D01*
X8440115Y7751470D01*
X8434679Y7749590D01*
X8429752Y7746492D01*
X8425688Y7742428D01*
X8422589Y7737500D01*
X8420709Y7732064D01*
X8419998Y7725714D01*
X8419998Y7298385D01*
X8420709Y7292035D01*
X8422589Y7286599D01*
X8425688Y7281672D01*
X8429752Y7277608D01*
X8434679Y7274509D01*
X8440115Y7272629D01*
X8446465Y7271867D01*
X8458809Y7271867D01*
X8462721Y7271105D01*
X8466023Y7268921D01*
X8468207Y7265619D01*
X8468969Y7261707D01*
X8468969Y7256525D01*
X8468207Y7252614D01*
X8466023Y7249312D01*
X8293049Y7076389D01*
X8286140Y7068769D01*
X8278622Y7058050D01*
X8277148Y7055510D01*
X8272627Y7046417D01*
X8271509Y7043724D01*
X8268258Y7034072D01*
X8265617Y7021271D01*
X8265261Y7018324D01*
X8264753Y7008114D01*
X8264753Y4268927D01*
X8263991Y4265015D01*
X8261807Y4261713D01*
X7130948Y3130905D01*
X7127138Y3128518D01*
X7122718Y3127959D01*
X7118451Y3129381D01*
X7115251Y3132531D01*
X7113676Y3136696D01*
X7111847Y3150463D01*
X7108240Y3163620D01*
X7102906Y3176168D01*
X7095947Y3187903D01*
X7087514Y3198571D01*
X7077709Y3208070D01*
X7066737Y3216148D01*
X7054748Y3222701D01*
X7042048Y3227628D01*
X7028789Y3230778D01*
X7015225Y3232150D01*
X7001560Y3231692D01*
X6988149Y3229406D01*
X6975094Y3225393D01*
X6962749Y3219653D01*
X6951218Y3212287D01*
X6940803Y3203498D01*
X6931659Y3193389D01*
X6923938Y3182162D01*
X6917791Y3169970D01*
X6913321Y3157067D01*
X6910628Y3143707D01*
X6909714Y3130092D01*
X6910628Y3116529D01*
X6913321Y3103168D01*
X6917791Y3090265D01*
X6923938Y3078073D01*
X6931659Y3066846D01*
X6940803Y3056737D01*
X6951218Y3047949D01*
X6962749Y3040583D01*
X6975094Y3034842D01*
X6988149Y3030829D01*
X7001560Y3028543D01*
X7004303Y3028442D01*
X7008114Y3027578D01*
X7011314Y3025343D01*
X7013448Y3022041D01*
X7014159Y3018180D01*
X7013346Y3014370D01*
X7011162Y3011119D01*
X6969506Y2969463D01*
X6966610Y2967431D01*
X6962749Y2965653D01*
X6951218Y2958287D01*
X6940803Y2949498D01*
X6931659Y2939389D01*
X6923938Y2928162D01*
X6917791Y2915970D01*
X6913321Y2903067D01*
X6910628Y2889707D01*
X6909714Y2876092D01*
X6910628Y2862529D01*
X6913321Y2849168D01*
X6917791Y2836265D01*
X6923938Y2824073D01*
X6931659Y2812846D01*
X6940803Y2802737D01*
X6951218Y2793949D01*
X6962749Y2786583D01*
X6975094Y2780842D01*
X6988149Y2776829D01*
X7001560Y2774543D01*
G37*
G36*
X8712758Y2840482D02*
G01*
X8772855Y2840482D01*
X8769146Y2851759D01*
X8762949Y2864916D01*
X8755176Y2877210D01*
X8745880Y2888437D01*
X8735263Y2898394D01*
X8723528Y2906979D01*
X8712758Y2912872D01*
G37*
G36*
X8549995Y2840482D02*
G01*
X8610041Y2840482D01*
X8610041Y2912872D01*
X8599322Y2906979D01*
X8587536Y2898394D01*
X8576919Y2888437D01*
X8567674Y2877210D01*
X8559850Y2864916D01*
X8553653Y2851759D01*
G37*
G36*
X8610041Y3603244D02*
G01*
X8610041Y3675684D01*
X8549995Y3675684D01*
X8553653Y3664356D01*
X8559850Y3651199D01*
X8567674Y3638905D01*
X8576919Y3627678D01*
X8587536Y3617722D01*
X8599322Y3609187D01*
G37*
G36*
X8712758Y3603244D02*
G01*
X8723528Y3609187D01*
X8735263Y3617722D01*
X8745880Y3627678D01*
X8755176Y3638905D01*
X8762949Y3651199D01*
X8769146Y3664356D01*
X8772855Y3675684D01*
X8712758Y3675684D01*
G37*
G36*
X8549995Y3818382D02*
G01*
X8610041Y3818382D01*
X8610041Y3890772D01*
X8599322Y3884879D01*
X8587536Y3876294D01*
X8576919Y3866337D01*
X8567674Y3855110D01*
X8559850Y3842867D01*
X8553653Y3829659D01*
G37*
G36*
X8712758Y3818382D02*
G01*
X8772855Y3818382D01*
X8769146Y3829659D01*
X8762949Y3842867D01*
X8755176Y3855110D01*
X8745880Y3866337D01*
X8735263Y3876294D01*
X8723528Y3884879D01*
X8712758Y3890772D01*
G37*
G36*
X3448964Y3842054D02*
G01*
X3448964Y3890670D01*
X3400348Y3890670D01*
X3403600Y3884066D01*
X3411270Y3872534D01*
X3420414Y3862120D01*
X3430828Y3852976D01*
X3442360Y3845306D01*
G37*
G36*
X3541623Y3983329D02*
G01*
X3590239Y3983329D01*
X3586987Y3989933D01*
X3579317Y4001465D01*
X3570173Y4011879D01*
X3559759Y4021023D01*
X3548227Y4028694D01*
X3541623Y4031945D01*
G37*
G36*
X9079992Y4567986D02*
G01*
X9258858Y4567986D01*
X9265158Y4568698D01*
X9270644Y4570628D01*
X9275521Y4573727D01*
X9279636Y4577791D01*
X9282684Y4582718D01*
X9284614Y4588154D01*
X9285325Y4594504D01*
X9285325Y4853330D01*
X9284614Y4859680D01*
X9282684Y4865116D01*
X9279636Y4870043D01*
X9275521Y4874107D01*
X9270644Y4877206D01*
X9265158Y4879086D01*
X9258858Y4879797D01*
X9079992Y4879797D01*
X9073642Y4879086D01*
X9068206Y4877206D01*
X9063278Y4874107D01*
X9059214Y4870043D01*
X9056116Y4865116D01*
X9054236Y4859680D01*
X9053525Y4853330D01*
X9053525Y4594504D01*
X9054236Y4588154D01*
X9056116Y4582718D01*
X9059214Y4577791D01*
X9063278Y4573727D01*
X9068206Y4570628D01*
X9073642Y4568698D01*
G37*
G36*
X8908135Y4568240D02*
G01*
X8922664Y4568240D01*
X8937142Y4570069D01*
X8951214Y4573676D01*
X8964777Y4579061D01*
X8977528Y4586071D01*
X8989263Y4594606D01*
X8999880Y4604562D01*
X9009176Y4615789D01*
X9016949Y4628083D01*
X9023146Y4641240D01*
X9027668Y4655108D01*
X9030411Y4669383D01*
X9031325Y4684217D01*
X9031325Y4763566D01*
X9030411Y4778451D01*
X9027668Y4792726D01*
X9023146Y4806594D01*
X9016949Y4819751D01*
X9009176Y4832045D01*
X8999880Y4843221D01*
X8989263Y4853178D01*
X8977528Y4861763D01*
X8964777Y4868773D01*
X8951214Y4874107D01*
X8937142Y4877765D01*
X8922664Y4879594D01*
X8908135Y4879594D01*
X8893708Y4877765D01*
X8879586Y4874107D01*
X8866073Y4868773D01*
X8853322Y4861763D01*
X8841536Y4853178D01*
X8830919Y4843221D01*
X8821674Y4832045D01*
X8813850Y4819751D01*
X8807653Y4806594D01*
X8803182Y4792726D01*
X8800439Y4778451D01*
X8799525Y4763566D01*
X8799525Y4684217D01*
X8800439Y4669383D01*
X8803182Y4655108D01*
X8807653Y4641240D01*
X8813850Y4628083D01*
X8821674Y4615789D01*
X8830919Y4604562D01*
X8841536Y4594606D01*
X8853322Y4586071D01*
X8866073Y4579061D01*
X8879586Y4573676D01*
X8893708Y4570069D01*
G37*
G36*
X8712758Y4581144D02*
G01*
X8723528Y4587087D01*
X8735263Y4595622D01*
X8745880Y4605578D01*
X8755176Y4616805D01*
X8762949Y4629099D01*
X8769146Y4642256D01*
X8772855Y4653584D01*
X8712758Y4653584D01*
G37*
G36*
X8610041Y4581144D02*
G01*
X8610041Y4653584D01*
X8549995Y4653584D01*
X8553653Y4642256D01*
X8559850Y4629099D01*
X8567674Y4616805D01*
X8576919Y4605578D01*
X8587536Y4595622D01*
X8599322Y4587087D01*
G37*
G36*
X8712758Y4796282D02*
G01*
X8772855Y4796282D01*
X8769146Y4807559D01*
X8762949Y4820716D01*
X8755176Y4833010D01*
X8745880Y4844237D01*
X8735263Y4854194D01*
X8723528Y4862779D01*
X8712758Y4868672D01*
G37*
G36*
X8549995Y4796282D02*
G01*
X8610041Y4796282D01*
X8610041Y4868672D01*
X8599322Y4862779D01*
X8587536Y4854194D01*
X8576919Y4844237D01*
X8567674Y4833010D01*
X8559850Y4820716D01*
X8553653Y4807559D01*
G37*
G36*
X8712758Y5559044D02*
G01*
X8723528Y5564936D01*
X8735263Y5573522D01*
X8745880Y5583478D01*
X8755176Y5594705D01*
X8762949Y5606999D01*
X8769146Y5620156D01*
X8772855Y5631434D01*
X8712758Y5631434D01*
G37*
G36*
X8610041Y5559044D02*
G01*
X8610041Y5631434D01*
X8549995Y5631434D01*
X8553653Y5620156D01*
X8559850Y5606999D01*
X8567674Y5594705D01*
X8576919Y5583478D01*
X8587536Y5573522D01*
X8599322Y5564936D01*
G37*
G36*
X8712758Y5774182D02*
G01*
X8772855Y5774182D01*
X8769146Y5785459D01*
X8762949Y5798616D01*
X8755176Y5810910D01*
X8745880Y5822137D01*
X8735263Y5832094D01*
X8723528Y5840679D01*
X8712758Y5846572D01*
G37*
G36*
X8549995Y5774182D02*
G01*
X8610041Y5774182D01*
X8610041Y5846572D01*
X8599322Y5840679D01*
X8587536Y5832094D01*
X8576919Y5822137D01*
X8567674Y5810910D01*
X8559850Y5798616D01*
X8553653Y5785459D01*
G37*
G36*
X7056272Y6086348D02*
G01*
X7066737Y6092088D01*
X7077709Y6100165D01*
X7087514Y6109665D01*
X7095947Y6120333D01*
X7102906Y6132068D01*
X7103567Y6133642D01*
X7056272Y6133642D01*
G37*
G36*
X7056272Y6222542D02*
G01*
X7103567Y6222542D01*
X7102906Y6224168D01*
X7095947Y6235903D01*
X7087514Y6246571D01*
X7077709Y6256070D01*
X7066737Y6264148D01*
X7056272Y6269888D01*
G37*
G36*
X7696200Y6374892D02*
G01*
X7711592Y6375857D01*
X7726730Y6378600D01*
X7741412Y6383172D01*
X7755432Y6389522D01*
X7768640Y6397498D01*
X7780731Y6406997D01*
X7791602Y6417868D01*
X7801102Y6429959D01*
X7809077Y6443167D01*
X7815427Y6457188D01*
X7819999Y6471869D01*
X7822742Y6487007D01*
X7823708Y6502400D01*
X7822742Y6517792D01*
X7819999Y6532930D01*
X7815427Y6547612D01*
X7809077Y6561632D01*
X7801102Y6574840D01*
X7791602Y6586931D01*
X7780731Y6597802D01*
X7768640Y6607302D01*
X7755432Y6615277D01*
X7741412Y6621627D01*
X7726730Y6626199D01*
X7711592Y6628942D01*
X7696200Y6629908D01*
X7680807Y6628942D01*
X7665669Y6626199D01*
X7650988Y6621627D01*
X7636967Y6615277D01*
X7623759Y6607302D01*
X7611668Y6597802D01*
X7600797Y6586931D01*
X7591298Y6574840D01*
X7583322Y6561632D01*
X7576972Y6547612D01*
X7572400Y6532930D01*
X7569657Y6517792D01*
X7568692Y6502400D01*
X7569657Y6487007D01*
X7572400Y6471869D01*
X7576972Y6457188D01*
X7583322Y6443167D01*
X7591298Y6429959D01*
X7600797Y6417868D01*
X7611668Y6406997D01*
X7623759Y6397498D01*
X7636967Y6389522D01*
X7650988Y6383172D01*
X7665669Y6378600D01*
X7680807Y6375857D01*
G37*
G36*
X9079992Y6523786D02*
G01*
X9258858Y6523786D01*
X9265158Y6524498D01*
X9270644Y6526428D01*
X9275521Y6529476D01*
X9279636Y6533591D01*
X9282684Y6538468D01*
X9284614Y6543954D01*
X9285325Y6550253D01*
X9285325Y6809130D01*
X9284614Y6815480D01*
X9282684Y6820916D01*
X9279636Y6825792D01*
X9275521Y6829907D01*
X9270644Y6833006D01*
X9265158Y6834886D01*
X9258858Y6835597D01*
X9079992Y6835597D01*
X9073642Y6834886D01*
X9068206Y6833006D01*
X9063278Y6829907D01*
X9059214Y6825792D01*
X9056116Y6820916D01*
X9054236Y6815480D01*
X9053525Y6809130D01*
X9053525Y6550253D01*
X9054236Y6543954D01*
X9056116Y6538468D01*
X9059214Y6533591D01*
X9063278Y6529476D01*
X9068206Y6526428D01*
X9073642Y6524498D01*
G37*
G36*
X8908135Y6524040D02*
G01*
X8922664Y6524040D01*
X8937142Y6525869D01*
X8951214Y6529476D01*
X8964777Y6534861D01*
X8977528Y6541871D01*
X8989263Y6550406D01*
X8999880Y6560362D01*
X9009176Y6571589D01*
X9016949Y6583883D01*
X9023146Y6597040D01*
X9027668Y6610908D01*
X9030411Y6625183D01*
X9031325Y6640017D01*
X9031325Y6719366D01*
X9030411Y6734251D01*
X9027668Y6748525D01*
X9023146Y6762343D01*
X9016949Y6775551D01*
X9009176Y6787845D01*
X8999880Y6799021D01*
X8989263Y6808978D01*
X8977528Y6817563D01*
X8964777Y6824573D01*
X8951214Y6829907D01*
X8937142Y6833514D01*
X8922664Y6835343D01*
X8908135Y6835343D01*
X8893708Y6833514D01*
X8879586Y6829907D01*
X8866073Y6824573D01*
X8853322Y6817563D01*
X8841536Y6808978D01*
X8830919Y6799021D01*
X8821674Y6787845D01*
X8813850Y6775551D01*
X8807653Y6762343D01*
X8803182Y6748525D01*
X8800439Y6734251D01*
X8799525Y6719366D01*
X8799525Y6640017D01*
X8800439Y6625183D01*
X8803182Y6610908D01*
X8807653Y6597040D01*
X8813850Y6583883D01*
X8821674Y6571589D01*
X8830919Y6560362D01*
X8841536Y6550406D01*
X8853322Y6541871D01*
X8866073Y6534861D01*
X8879586Y6529476D01*
X8893708Y6525869D01*
G37*
G36*
X8712758Y6536944D02*
G01*
X8723528Y6542836D01*
X8735263Y6551422D01*
X8745880Y6561378D01*
X8755176Y6572605D01*
X8762949Y6584899D01*
X8769146Y6598056D01*
X8772855Y6609334D01*
X8712758Y6609334D01*
G37*
G36*
X8610041Y6536944D02*
G01*
X8610041Y6609334D01*
X8549995Y6609334D01*
X8553653Y6598056D01*
X8559850Y6584899D01*
X8567674Y6572605D01*
X8576919Y6561378D01*
X8587536Y6551422D01*
X8599322Y6542836D01*
G37*
G36*
X7015225Y6584086D02*
G01*
X7028789Y6585458D01*
X7042048Y6588607D01*
X7054748Y6593535D01*
X7066737Y6600088D01*
X7077709Y6608165D01*
X7087514Y6617665D01*
X7095947Y6628333D01*
X7102906Y6640068D01*
X7108240Y6652615D01*
X7111847Y6665772D01*
X7113676Y6679285D01*
X7113676Y6692950D01*
X7111847Y6706463D01*
X7108240Y6719620D01*
X7102906Y6732168D01*
X7095947Y6743903D01*
X7087514Y6754571D01*
X7077709Y6764070D01*
X7066737Y6772148D01*
X7054748Y6778701D01*
X7042048Y6783628D01*
X7028789Y6786778D01*
X7015225Y6788150D01*
X7001560Y6787692D01*
X6988149Y6785406D01*
X6975094Y6781393D01*
X6962749Y6775653D01*
X6951218Y6768287D01*
X6940803Y6759498D01*
X6931659Y6749389D01*
X6923938Y6738162D01*
X6917791Y6725970D01*
X6913321Y6713067D01*
X6910628Y6699707D01*
X6909714Y6686092D01*
X6910628Y6672529D01*
X6913321Y6659168D01*
X6917791Y6646265D01*
X6923938Y6634073D01*
X6931659Y6622846D01*
X6940803Y6612737D01*
X6951218Y6603949D01*
X6962749Y6596583D01*
X6975094Y6590842D01*
X6988149Y6586829D01*
X7001560Y6584543D01*
G37*
G36*
X8712758Y6752031D02*
G01*
X8772855Y6752031D01*
X8769146Y6763359D01*
X8762949Y6776516D01*
X8755176Y6788810D01*
X8745880Y6800037D01*
X8735263Y6809994D01*
X8723528Y6818528D01*
X8712758Y6824472D01*
G37*
G36*
X8549995Y6752031D02*
G01*
X8610041Y6752031D01*
X8610041Y6824472D01*
X8599322Y6818528D01*
X8587536Y6809994D01*
X8576919Y6800037D01*
X8567674Y6788810D01*
X8559850Y6776516D01*
X8553653Y6763359D01*
G37*
G36*
X1389837Y6797040D02*
G01*
X1490014Y6797040D01*
X1496364Y6797751D01*
X1501800Y6799630D01*
X1506728Y6802729D01*
X1510792Y6806844D01*
X1513890Y6811721D01*
X1515770Y6817207D01*
X1516532Y6823506D01*
X1516532Y6876084D01*
X1389837Y6876084D01*
G37*
G36*
X1062685Y6797040D02*
G01*
X1162862Y6797040D01*
X1162862Y6876084D01*
X1036218Y6876084D01*
X1036218Y6823506D01*
X1036929Y6817207D01*
X1038809Y6811721D01*
X1041908Y6806844D01*
X1045971Y6802729D01*
X1050899Y6799630D01*
X1056335Y6797751D01*
G37*
G36*
X7015225Y6838086D02*
G01*
X7028789Y6839458D01*
X7042048Y6842607D01*
X7054748Y6847535D01*
X7066737Y6854088D01*
X7077709Y6862165D01*
X7087514Y6871665D01*
X7095947Y6882333D01*
X7102906Y6894068D01*
X7108240Y6906615D01*
X7111847Y6919772D01*
X7113676Y6933285D01*
X7113676Y6946950D01*
X7111847Y6960463D01*
X7108240Y6973620D01*
X7102906Y6986168D01*
X7095947Y6997903D01*
X7087514Y7008571D01*
X7077709Y7018070D01*
X7066737Y7026148D01*
X7054748Y7032701D01*
X7042048Y7037628D01*
X7028789Y7040778D01*
X7015225Y7042150D01*
X7001560Y7041692D01*
X6988149Y7039406D01*
X6975094Y7035393D01*
X6962749Y7029653D01*
X6951218Y7022287D01*
X6940803Y7013498D01*
X6931659Y7003389D01*
X6923938Y6992162D01*
X6917791Y6979970D01*
X6913321Y6967067D01*
X6910628Y6953707D01*
X6909714Y6940092D01*
X6910628Y6926529D01*
X6913321Y6913168D01*
X6917791Y6900265D01*
X6923938Y6888073D01*
X6931659Y6876846D01*
X6940803Y6866737D01*
X6951218Y6857949D01*
X6962749Y6850583D01*
X6975094Y6844842D01*
X6988149Y6840829D01*
X7001560Y6838543D01*
G37*
G36*
X9933635Y6987387D02*
G01*
X10360964Y6987387D01*
X10367314Y6988149D01*
X10372750Y6990029D01*
X10377678Y6993128D01*
X10381742Y6997192D01*
X10384840Y7002119D01*
X10386720Y7007555D01*
X10387482Y7013905D01*
X10387482Y7250734D01*
X10386720Y7257084D01*
X10384840Y7262520D01*
X10381742Y7267448D01*
X10377678Y7271512D01*
X10372750Y7274610D01*
X10367314Y7276490D01*
X10360964Y7277201D01*
X9933635Y7277201D01*
X9927285Y7276490D01*
X9921849Y7274610D01*
X9916922Y7271512D01*
X9912858Y7267448D01*
X9909759Y7262520D01*
X9907879Y7257084D01*
X9907168Y7250734D01*
X9907168Y7013905D01*
X9907879Y7007555D01*
X9909759Y7002119D01*
X9912858Y6997192D01*
X9916922Y6993128D01*
X9921849Y6990029D01*
X9927285Y6988149D01*
G37*
G36*
X1036218Y7007758D02*
G01*
X1162862Y7007758D01*
X1162862Y7086853D01*
X1062685Y7086853D01*
X1056335Y7086142D01*
X1050899Y7084212D01*
X1045971Y7081113D01*
X1041908Y7077049D01*
X1038809Y7072122D01*
X1036929Y7066686D01*
X1036218Y7060387D01*
G37*
G36*
X1389837Y7007758D02*
G01*
X1516532Y7007758D01*
X1516532Y7060387D01*
X1515770Y7066686D01*
X1513890Y7072122D01*
X1510792Y7077049D01*
X1506728Y7081113D01*
X1501800Y7084212D01*
X1496364Y7086142D01*
X1490014Y7086853D01*
X1389837Y7086853D01*
G37*
G36*
X4588103Y7086193D02*
G01*
X4601667Y7087514D01*
X4614926Y7090714D01*
X4627676Y7095591D01*
X4639614Y7102144D01*
X4650587Y7110222D01*
X4660392Y7119721D01*
X4668875Y7130440D01*
X4675835Y7142175D01*
X4681118Y7154722D01*
X4684725Y7167880D01*
X4686554Y7181392D01*
X4686554Y7195007D01*
X4684725Y7208520D01*
X4681118Y7221677D01*
X4675835Y7234224D01*
X4668875Y7245959D01*
X4660392Y7256678D01*
X4650587Y7266178D01*
X4639614Y7274255D01*
X4627676Y7280808D01*
X4614926Y7285685D01*
X4601667Y7288885D01*
X4588103Y7290206D01*
X4574489Y7289749D01*
X4561027Y7287514D01*
X4548022Y7283450D01*
X4535627Y7277709D01*
X4524146Y7270394D01*
X4513732Y7261606D01*
X4504588Y7251446D01*
X4496866Y7240219D01*
X4490720Y7228078D01*
X4486249Y7215174D01*
X4483506Y7201814D01*
X4482592Y7188200D01*
X4483506Y7174585D01*
X4486249Y7161225D01*
X4490720Y7148322D01*
X4496866Y7136180D01*
X4504588Y7124953D01*
X4513732Y7114794D01*
X4524146Y7106005D01*
X4535627Y7098690D01*
X4548022Y7092950D01*
X4561027Y7088886D01*
X4574489Y7086650D01*
G37*
G36*
X2185365Y7265517D02*
G01*
X2237943Y7265517D01*
X2237943Y7392212D01*
X2158898Y7392212D01*
X2158898Y7292035D01*
X2159609Y7285685D01*
X2161489Y7280249D01*
X2164588Y7275322D01*
X2168652Y7271258D01*
X2173579Y7268159D01*
X2179015Y7266279D01*
G37*
G36*
X2369616Y7265517D02*
G01*
X2422194Y7265517D01*
X2428544Y7266279D01*
X2433980Y7268159D01*
X2438908Y7271258D01*
X2442972Y7275322D01*
X2446070Y7280249D01*
X2447950Y7285685D01*
X2448661Y7292035D01*
X2448661Y7392212D01*
X2369616Y7392212D01*
G37*
G36*
X2683205Y7265517D02*
G01*
X2920034Y7265517D01*
X2926384Y7266279D01*
X2931820Y7268159D01*
X2936748Y7271258D01*
X2940812Y7275322D01*
X2943910Y7280249D01*
X2945790Y7285685D01*
X2946552Y7292035D01*
X2946552Y7719364D01*
X2945790Y7725714D01*
X2943910Y7731150D01*
X2940812Y7736078D01*
X2936748Y7740142D01*
X2931820Y7743240D01*
X2926384Y7745120D01*
X2920034Y7745831D01*
X2683205Y7745831D01*
X2676855Y7745120D01*
X2671419Y7743240D01*
X2666492Y7740142D01*
X2662428Y7736078D01*
X2659329Y7731150D01*
X2657449Y7725714D01*
X2656738Y7719364D01*
X2656738Y7292035D01*
X2657449Y7285685D01*
X2659329Y7280249D01*
X2662428Y7275322D01*
X2666492Y7271258D01*
X2671419Y7268159D01*
X2676855Y7266279D01*
G37*
G36*
X7928305Y7271867D02*
G01*
X7980883Y7271867D01*
X7980883Y7398562D01*
X7901838Y7398562D01*
X7901838Y7298385D01*
X7902549Y7292035D01*
X7904429Y7286599D01*
X7907528Y7281672D01*
X7911592Y7277608D01*
X7916519Y7274509D01*
X7921955Y7272629D01*
G37*
G36*
X7430465Y7271867D02*
G01*
X7483043Y7271867D01*
X7483043Y7398562D01*
X7403998Y7398562D01*
X7403998Y7298385D01*
X7404709Y7292035D01*
X7406589Y7286599D01*
X7409688Y7281672D01*
X7413752Y7277608D01*
X7418679Y7274509D01*
X7424115Y7272629D01*
G37*
G36*
X8112556Y7271867D02*
G01*
X8165134Y7271867D01*
X8171484Y7272629D01*
X8176920Y7274509D01*
X8181848Y7277608D01*
X8185912Y7281672D01*
X8189010Y7286599D01*
X8190890Y7292035D01*
X8191652Y7298385D01*
X8191652Y7398562D01*
X8112556Y7398562D01*
G37*
G36*
X7614716Y7271867D02*
G01*
X7667294Y7271867D01*
X7673644Y7272629D01*
X7679080Y7274509D01*
X7684008Y7277608D01*
X7688072Y7281672D01*
X7691170Y7286599D01*
X7693050Y7292035D01*
X7693812Y7298385D01*
X7693812Y7398562D01*
X7614716Y7398562D01*
G37*
G36*
X3201365Y7271867D02*
G01*
X3438194Y7271867D01*
X3444544Y7272629D01*
X3449980Y7274509D01*
X3454908Y7277608D01*
X3458972Y7281672D01*
X3462070Y7286599D01*
X3463950Y7292035D01*
X3464661Y7298385D01*
X3464661Y7725714D01*
X3463950Y7732064D01*
X3462070Y7737500D01*
X3458972Y7742428D01*
X3454908Y7746492D01*
X3449980Y7749590D01*
X3444544Y7751470D01*
X3438194Y7752181D01*
X3201365Y7752181D01*
X3195015Y7751470D01*
X3189579Y7749590D01*
X3184652Y7746492D01*
X3180588Y7742428D01*
X3177489Y7737500D01*
X3175609Y7732064D01*
X3174898Y7725714D01*
X3174898Y7298385D01*
X3175609Y7292035D01*
X3177489Y7286599D01*
X3180588Y7281672D01*
X3184652Y7277608D01*
X3189579Y7274509D01*
X3195015Y7272629D01*
G37*
G36*
X8944305Y7271867D02*
G01*
X9181134Y7271867D01*
X9187484Y7272629D01*
X9192920Y7274509D01*
X9197848Y7277608D01*
X9201912Y7281672D01*
X9205010Y7286599D01*
X9206890Y7292035D01*
X9207652Y7298385D01*
X9207652Y7529677D01*
X9208617Y7534046D01*
X9211411Y7537602D01*
X9215475Y7539583D01*
X9219996Y7539583D01*
X9224060Y7537653D01*
X9236659Y7527798D01*
X9249867Y7519822D01*
X9263888Y7513472D01*
X9278569Y7508900D01*
X9293707Y7506157D01*
X9309100Y7505192D01*
X9324492Y7506157D01*
X9339630Y7508900D01*
X9354312Y7513472D01*
X9368332Y7519822D01*
X9381540Y7527798D01*
X9393631Y7537297D01*
X9404502Y7548168D01*
X9414002Y7560259D01*
X9421977Y7573467D01*
X9428327Y7587488D01*
X9432899Y7602169D01*
X9435642Y7617307D01*
X9436608Y7632700D01*
X9435642Y7648092D01*
X9432899Y7663230D01*
X9428327Y7677912D01*
X9421977Y7691932D01*
X9414002Y7705140D01*
X9404502Y7717231D01*
X9393631Y7728102D01*
X9381540Y7737602D01*
X9368332Y7745577D01*
X9354312Y7751927D01*
X9339630Y7756499D01*
X9324492Y7759242D01*
X9309100Y7760208D01*
X9293707Y7759242D01*
X9278569Y7756499D01*
X9263888Y7751927D01*
X9249867Y7745577D01*
X9236659Y7737602D01*
X9224568Y7728102D01*
X9220555Y7725257D01*
X9216542Y7724546D01*
X9212529Y7725460D01*
X9209278Y7727848D01*
X9207144Y7731353D01*
X9205010Y7737500D01*
X9201912Y7742428D01*
X9197848Y7746492D01*
X9192920Y7749590D01*
X9187484Y7751470D01*
X9181134Y7752181D01*
X8944305Y7752181D01*
X8937955Y7751470D01*
X8932519Y7749590D01*
X8927592Y7746492D01*
X8923528Y7742428D01*
X8920429Y7737500D01*
X8918549Y7732064D01*
X8917838Y7725714D01*
X8917838Y7298385D01*
X8918549Y7292035D01*
X8920429Y7286599D01*
X8923528Y7281672D01*
X8927592Y7277608D01*
X8932519Y7274509D01*
X8937955Y7272629D01*
G37*
G36*
X4588103Y7352893D02*
G01*
X4601667Y7354214D01*
X4614926Y7357414D01*
X4627676Y7362291D01*
X4639614Y7368844D01*
X4650587Y7376922D01*
X4660392Y7386421D01*
X4668875Y7397140D01*
X4675835Y7408875D01*
X4681118Y7421422D01*
X4684725Y7434580D01*
X4686554Y7448092D01*
X4686554Y7461707D01*
X4684725Y7475220D01*
X4681118Y7488377D01*
X4675835Y7500924D01*
X4668875Y7512659D01*
X4660392Y7523378D01*
X4650587Y7532878D01*
X4639614Y7540955D01*
X4627676Y7547508D01*
X4614926Y7552385D01*
X4601667Y7555585D01*
X4588103Y7556906D01*
X4574489Y7556449D01*
X4561027Y7554214D01*
X4548022Y7550150D01*
X4535627Y7544409D01*
X4524146Y7537094D01*
X4513732Y7528306D01*
X4504588Y7518146D01*
X4496866Y7506919D01*
X4490720Y7494778D01*
X4486249Y7481874D01*
X4483506Y7468514D01*
X4482592Y7454900D01*
X4483506Y7441285D01*
X4486249Y7427925D01*
X4490720Y7415022D01*
X4496866Y7402880D01*
X4504588Y7391653D01*
X4513732Y7381494D01*
X4524146Y7372705D01*
X4535627Y7365390D01*
X4548022Y7359650D01*
X4561027Y7355586D01*
X4574489Y7353350D01*
G37*
G36*
X1176324Y7454544D02*
G01*
X1195374Y7455052D01*
X1214272Y7457389D01*
X1232814Y7461656D01*
X1250848Y7467701D01*
X1268171Y7475524D01*
X1284681Y7485024D01*
X1300124Y7496149D01*
X1314399Y7508748D01*
X1327353Y7522718D01*
X1338834Y7537856D01*
X1348740Y7554112D01*
X1357020Y7571231D01*
X1363522Y7589113D01*
X1368196Y7607553D01*
X1371041Y7626400D01*
X1372006Y7645400D01*
X1371041Y7664399D01*
X1368196Y7683246D01*
X1363522Y7701686D01*
X1357020Y7719568D01*
X1348740Y7736687D01*
X1338834Y7752943D01*
X1327353Y7768081D01*
X1314399Y7782052D01*
X1300124Y7794650D01*
X1284681Y7805775D01*
X1268171Y7815275D01*
X1250848Y7823098D01*
X1232814Y7829143D01*
X1214272Y7833410D01*
X1195374Y7835747D01*
X1176324Y7836255D01*
X1157376Y7834833D01*
X1138631Y7831531D01*
X1120292Y7826349D01*
X1102563Y7819390D01*
X1085646Y7810703D01*
X1069644Y7800390D01*
X1054811Y7788554D01*
X1041146Y7775244D01*
X1028953Y7760665D01*
X1018235Y7744917D01*
X1009091Y7728203D01*
X1001725Y7710678D01*
X996086Y7692491D01*
X992327Y7673848D01*
X990447Y7654899D01*
X990447Y7635900D01*
X992327Y7616952D01*
X996086Y7598308D01*
X1001725Y7580122D01*
X1009091Y7562596D01*
X1018235Y7545882D01*
X1028953Y7530134D01*
X1041146Y7515555D01*
X1054811Y7502245D01*
X1069644Y7490409D01*
X1085646Y7480096D01*
X1102563Y7471409D01*
X1120292Y7464450D01*
X1138631Y7459268D01*
X1157376Y7455966D01*
G37*
G36*
X10218724Y7479944D02*
G01*
X10237774Y7480452D01*
X10256672Y7482789D01*
X10275214Y7487056D01*
X10293248Y7493101D01*
X10310571Y7500924D01*
X10327081Y7510424D01*
X10342524Y7521549D01*
X10356799Y7534148D01*
X10369753Y7548118D01*
X10381234Y7563256D01*
X10391140Y7579512D01*
X10399420Y7596631D01*
X10405922Y7614513D01*
X10410596Y7632953D01*
X10413441Y7651800D01*
X10414406Y7670800D01*
X10413441Y7689799D01*
X10410596Y7708646D01*
X10405922Y7727086D01*
X10399420Y7744968D01*
X10391140Y7762087D01*
X10381234Y7778343D01*
X10369753Y7793481D01*
X10356799Y7807452D01*
X10342524Y7820050D01*
X10327081Y7831175D01*
X10310571Y7840675D01*
X10293248Y7848498D01*
X10275214Y7854543D01*
X10256672Y7858810D01*
X10237774Y7861147D01*
X10218724Y7861655D01*
X10199776Y7860233D01*
X10181031Y7856931D01*
X10162692Y7851749D01*
X10144963Y7844790D01*
X10128046Y7836103D01*
X10112044Y7825790D01*
X10097211Y7813954D01*
X10083546Y7800644D01*
X10071354Y7786065D01*
X10060635Y7770317D01*
X10051491Y7753603D01*
X10044125Y7736078D01*
X10038486Y7717891D01*
X10034727Y7699248D01*
X10032847Y7680299D01*
X10032847Y7661300D01*
X10034727Y7642352D01*
X10038486Y7623708D01*
X10044125Y7605522D01*
X10051491Y7587996D01*
X10060635Y7571282D01*
X10071354Y7555534D01*
X10083546Y7540955D01*
X10097211Y7527645D01*
X10112044Y7515809D01*
X10128046Y7505496D01*
X10144963Y7496809D01*
X10162692Y7489850D01*
X10181031Y7484668D01*
X10199776Y7481366D01*
G37*
G36*
X2369616Y7619187D02*
G01*
X2448661Y7619187D01*
X2448661Y7719364D01*
X2447950Y7725714D01*
X2446070Y7731150D01*
X2442972Y7736078D01*
X2438908Y7740142D01*
X2433980Y7743240D01*
X2428544Y7745120D01*
X2422194Y7745831D01*
X2369616Y7745831D01*
G37*
G36*
X2158898Y7619187D02*
G01*
X2237943Y7619187D01*
X2237943Y7745831D01*
X2185365Y7745831D01*
X2179015Y7745120D01*
X2173579Y7743240D01*
X2168652Y7740142D01*
X2164588Y7736078D01*
X2161489Y7731150D01*
X2159609Y7725714D01*
X2158898Y7719364D01*
G37*
G36*
X8112556Y7625537D02*
G01*
X8191652Y7625537D01*
X8191652Y7725714D01*
X8190890Y7732064D01*
X8189010Y7737500D01*
X8185912Y7742428D01*
X8181848Y7746492D01*
X8176920Y7749590D01*
X8171484Y7751470D01*
X8165134Y7752181D01*
X8112556Y7752181D01*
G37*
G36*
X7614716Y7625537D02*
G01*
X7693812Y7625537D01*
X7693812Y7725714D01*
X7693050Y7732064D01*
X7691170Y7737500D01*
X7688072Y7742428D01*
X7684008Y7746492D01*
X7679080Y7749590D01*
X7673644Y7751470D01*
X7667294Y7752181D01*
X7614716Y7752181D01*
G37*
G36*
X7403998Y7625537D02*
G01*
X7483043Y7625537D01*
X7483043Y7752181D01*
X7430465Y7752181D01*
X7424115Y7751470D01*
X7418679Y7749590D01*
X7413752Y7746492D01*
X7409688Y7742428D01*
X7406589Y7737500D01*
X7404709Y7732064D01*
X7403998Y7725714D01*
G37*
G36*
X7901838Y7625537D02*
G01*
X7980883Y7625537D01*
X7980883Y7752181D01*
X7928305Y7752181D01*
X7921955Y7751470D01*
X7916519Y7749590D01*
X7911592Y7746492D01*
X7907528Y7742428D01*
X7904429Y7737500D01*
X7902549Y7732064D01*
X7901838Y7725714D01*
G37*

%LPD*%
G36*
X6887921Y5626709D02*
G01*
X6883501Y5626912D01*
X6879590Y5628944D01*
X6876948Y5632399D01*
X6875983Y5636717D01*
X6875983Y5816295D01*
X6876745Y5820206D01*
X6878980Y5823508D01*
X6882231Y5825693D01*
X6886143Y5826455D01*
X6890054Y5825693D01*
X6893306Y5823508D01*
X6946646Y5770168D01*
X6950303Y5767222D01*
X6952996Y5763717D01*
X6954012Y5759399D01*
X6953046Y5755081D01*
X6950405Y5751576D01*
X6940803Y5743498D01*
X6931659Y5733389D01*
X6923938Y5722162D01*
X6917791Y5709970D01*
X6913321Y5697067D01*
X6910628Y5683707D01*
X6909714Y5670092D01*
X6910628Y5656529D01*
X6912508Y5647131D01*
X6912559Y5643321D01*
X6911238Y5639765D01*
X6908647Y5636920D01*
X6895642Y5630926D01*
X6891985Y5628386D01*
G37*

%LPD*%
G36*
X6886143Y5511393D02*
G01*
X6882231Y5512155D01*
X6878980Y5514340D01*
X6876745Y5517642D01*
X6875983Y5521553D01*
X6875983Y5527548D01*
X6876948Y5531866D01*
X6879590Y5535320D01*
X6883501Y5537352D01*
X6887921Y5537555D01*
X6891985Y5535879D01*
X6895490Y5533390D01*
X6898487Y5530138D01*
X6899808Y5525973D01*
X6899249Y5521604D01*
X6896862Y5517896D01*
X6893306Y5514340D01*
X6890054Y5512155D01*
G37*

%LPD*%
D10*
X1518516Y3906621D02*
G01*
X2950923Y5339029D01*
X3196617Y5339029D01*
X1276352Y3906621D02*
G01*
X1518516Y3906621D01*
X9199882Y-1435100D02*
G01*
X9199882Y-1176146D01*
X4814445Y3209289D01*
X4814445Y3442335D01*
X4624580Y3632200D01*
X4584702Y3632200D01*
X7011799Y6432118D02*
G01*
X6902427Y6322745D01*
X6902427Y5869000D01*
X6974309Y5797118D01*
X7041161Y5797118D01*
X7123788Y5714492D01*
X7123788Y5633212D01*
X7054801Y5564225D01*
X6997804Y5564225D01*
X6904408Y5470829D01*
X6904408Y3273856D01*
X1276352Y347979D02*
G01*
X1518516Y347979D01*
X1518516Y347979D02*
G01*
X2603629Y1433093D01*
X2603629Y3981957D01*
X4376143Y5754471D01*
X4376143Y6627113D01*
X4553689Y6804660D01*
X4621329Y6804660D01*
X5496918Y5929071D01*
X5496918Y5723381D01*
X7011799Y5670118D02*
G01*
X6923813Y5582132D01*
X4584702Y3886200D02*
G01*
X4467735Y3769232D01*
X4467735Y3597325D01*
X4565931Y3499129D01*
X4611270Y3499129D01*
X4697300Y3413099D01*
X4697300Y3076219D01*
X4618281Y2997200D01*
X4547542Y2997200D01*
X4471139Y2920796D01*
X4471139Y1404112D01*
X5058488Y816762D01*
X5058488Y763727D01*
X4584702Y5918200D02*
G01*
X4475787Y6027115D01*
X4475787Y6466941D01*
X4548431Y6539585D01*
X4626231Y6539585D01*
X5116578Y6049238D01*
X5116578Y3047619D01*
X7362725Y801471D01*
X4755873Y3418052D02*
G01*
X4755873Y2979445D01*
X5476293Y2259025D01*
X5476293Y339725D01*
X4479394Y5502173D02*
G01*
X4237535Y5260314D01*
X4237535Y3654958D01*
D11*
X2791437Y4599787D02*
G01*
X2211834Y4020185D01*
X2211834Y2537663D01*
X2358595Y2390902D01*
X2377696Y3937000D02*
G01*
X3817622Y5376926D01*
X3817622Y7512050D01*
X10147302Y6634479D02*
G01*
X10446768Y6634479D01*
X10446768Y5618479D02*
G01*
X10446946Y5618657D01*
X10446946Y6634302D01*
X10446768Y6634479D01*
X10408033Y5618479D02*
G01*
X10446768Y5618479D01*
X10147302Y5618479D02*
G01*
X10408033Y5618479D01*
X10446768Y4602479D02*
G01*
X10446946Y4602657D01*
X10446946Y5618302D01*
X10446768Y5618479D01*
X10408033Y4602479D02*
G01*
X10446768Y4602479D01*
X10147302Y4602479D02*
G01*
X10408033Y4602479D01*
X10446768Y3586479D02*
G01*
X10446946Y3586657D01*
X10446946Y4602302D01*
X10446768Y4602479D01*
X10408033Y3586479D02*
G01*
X10446768Y3586479D01*
X10147302Y3586479D02*
G01*
X10408033Y3586479D01*
X10446768Y2557779D02*
G01*
X10446946Y2557957D01*
X10446946Y3586302D01*
X10446768Y3586479D01*
X10408033Y2557779D02*
G01*
X10446768Y2557779D01*
X10147302Y2557779D02*
G01*
X10408033Y2557779D01*
X10446768Y1529079D02*
G01*
X10446946Y1529257D01*
X10446946Y2557602D01*
X10446768Y2557779D01*
X10408033Y1529079D02*
G01*
X10446768Y1529079D01*
X10147302Y1529079D02*
G01*
X10408033Y1529079D01*
X10446768Y500379D02*
G01*
X10446946Y500557D01*
X10446946Y1528902D01*
X10446768Y1529079D01*
X10408033Y500379D02*
G01*
X10446768Y500379D01*
X10147302Y500379D02*
G01*
X10408033Y500379D01*
X10147302Y-528320D02*
G01*
X10446768Y-528320D01*
X10446768Y-528320D02*
G01*
X10446946Y-528142D01*
X10446946Y500202D01*
X10446768Y500379D01*
X9997569Y-528320D02*
G01*
X10147302Y-528320D01*
X9997569Y-528320D02*
G01*
X9847836Y-528320D01*
X6113782Y-1435100D02*
G01*
X6113782Y-1734565D01*
X6113782Y-1734565D02*
G01*
X6280304Y-1901088D01*
X9690280Y-1901088D01*
X9919286Y-1672081D01*
X9919286Y-803986D01*
X9847836Y-732536D01*
X9847836Y-528320D01*
D10*
X1276352Y5428081D02*
G01*
X3165248Y5428081D01*
X3193341Y5456173D01*
X5000856Y5876366D02*
G01*
X5000856Y4401896D01*
X4612210Y4013250D01*
X4564001Y4013250D01*
X4425241Y3874490D01*
X4425241Y3391712D01*
X4450692Y3366262D01*
X4450692Y3245408D01*
X4427171Y3221888D01*
X4427171Y1482597D01*
X4299028Y1354454D01*
X4299028Y963269D01*
X5570222Y-307924D01*
X5570222Y-1435100D01*
X5072382Y-1435100D02*
G01*
X5072382Y80238D01*
X4258058Y894562D01*
X4258058Y1550974D01*
X4365881Y1658797D01*
X4365881Y3270656D01*
X4402736Y3307511D01*
X4402736Y3356254D01*
X4384372Y3374618D01*
X4384372Y4037533D01*
X4409137Y4062298D01*
X4409137Y4126636D01*
X4549701Y4267200D01*
X4623208Y4267200D01*
X4727298Y4371289D01*
X4727298Y5805881D01*
X2126642Y293115D02*
G01*
X2835810Y1002284D01*
X2835810Y4061663D01*
X4434994Y5660847D01*
X4434994Y6530492D01*
X4584702Y6680200D01*
X3963164Y4237177D02*
G01*
X3574011Y4237177D01*
X2951304Y3614470D01*
X2951304Y3245230D01*
X3321408Y5397601D02*
G01*
X3321408Y5432348D01*
X2827835Y5925921D01*
X1276352Y5925921D01*
D11*
X4431108Y1238250D02*
G01*
X4431108Y1221028D01*
X5817466Y-165328D01*
X6668848Y-165328D01*
X7346876Y-843356D01*
X7346876Y-1603451D01*
X7478168Y-1734743D01*
X8171004Y-1734743D01*
X8171182Y-1734565D01*
X8171182Y-1435100D02*
G01*
X8171182Y-1734565D01*
X8915427Y5701817D02*
G01*
X8915427Y5800775D01*
X9230972Y6116320D01*
X10147302Y6116320D01*
D10*
X3053082Y-1192936D02*
G01*
X3199996Y-1046022D01*
X3199996Y3800703D01*
X3544445Y4145153D01*
X4048737Y4145153D01*
X3053082Y-1435100D02*
G01*
X3053082Y-1192936D01*
X3550922Y-1435100D02*
G01*
X3550922Y3812057D01*
X3788895Y4050029D01*
X3896083Y4050029D01*
X4132912Y3813200D01*
X4132912Y3543172D01*
X4344164Y3331921D01*
D11*
X1276352Y-170179D02*
G01*
X976886Y-170179D01*
X976886Y-170179D02*
G01*
X976708Y-170002D01*
X976708Y845642D01*
X976886Y845820D01*
X1387350Y-170179D02*
G01*
X1276352Y-170179D01*
X1276352Y845820D02*
G01*
X976886Y845820D01*
X976886Y1861921D02*
G01*
X976708Y1861743D01*
X976708Y845997D01*
X976886Y845820D01*
X1015621Y1861921D02*
G01*
X976886Y1861921D01*
X976886Y1861921D02*
G01*
X976708Y1862099D01*
X976708Y2890443D01*
X976886Y2890621D01*
X1276352Y1861921D02*
G01*
X2135151Y1861921D01*
X2359637Y2086406D01*
X1145999Y1861921D02*
G01*
X1276352Y1861921D01*
X1145999Y1861921D02*
G01*
X1015621Y1861921D01*
X1276352Y6444081D02*
G01*
X976886Y6444081D01*
X976886Y6444081D02*
G01*
X976708Y6443903D01*
X976708Y4412259D01*
X976886Y4412081D01*
X1276352Y4412081D02*
G01*
X976886Y4412081D01*
X976886Y4412081D02*
G01*
X976708Y4411903D01*
X976708Y2890799D01*
X976886Y2890621D01*
X1276352Y2890621D02*
G01*
X976886Y2890621D01*
X1387350Y-170179D02*
G01*
X1575818Y-170179D01*
X2024382Y-1435100D02*
G01*
X2024382Y-618744D01*
X1575818Y-170179D01*
X8564882Y7512050D02*
G01*
X8564882Y7212584D01*
X7011799Y2876118D02*
G01*
X8360666Y4224985D01*
X8360666Y7008368D01*
X8564882Y7212584D01*
X10147302Y5100320D02*
G01*
X9847836Y5100320D01*
X8915427Y3746017D02*
G01*
X8915427Y3868445D01*
X9847836Y4800854D01*
X9847836Y5100320D01*
X8915427Y1790217D02*
G01*
X8915427Y1889175D01*
X9053172Y2026920D01*
X10147302Y2026920D01*
D10*
X4584702Y5664200D02*
G01*
X4558591Y5664200D01*
X2888007Y3993616D01*
X2888007Y-827151D01*
X2522222Y-1192936D01*
X2522222Y-1435100D02*
G01*
X2522222Y-1192936D01*
D11*
X5843196Y1838248D02*
G01*
X5843196Y1533448D01*
X7640322Y-263677D01*
X7640322Y-1435100D01*
X6611622Y-1435100D02*
G01*
X6611622Y-1135634D01*
X6362677Y-411403D02*
G01*
X6362677Y-886688D01*
X6611622Y-1135634D01*
X2727708Y3937000D02*
G01*
X2727708Y1739036D01*
X8648702Y1487271D02*
G01*
X8648702Y1778507D01*
X8661402Y1791207D01*
X8648702Y749477D02*
G01*
X8648702Y1487271D01*
X8648702Y1487271D02*
G01*
X7988810Y1487271D01*
X8661402Y5702807D02*
G01*
X8661402Y6680682D01*
X8661402Y4724907D02*
G01*
X8661402Y5702807D01*
X8661402Y3747007D02*
G01*
X8661402Y4724907D01*
X8661402Y2769107D02*
G01*
X8661402Y3747007D01*
X8661402Y1791207D02*
G01*
X8661402Y2769107D01*
X8648702Y749477D02*
G01*
X8648702Y787882D01*
X8674102Y813282D01*
X8648702Y-329717D02*
G01*
X8648702Y749477D01*
X4584702Y2870200D02*
G01*
X5156710Y2298192D01*
X5156710Y1487271D01*
X7011799Y6178118D02*
G01*
X7548882Y6715201D01*
X7548882Y7512050D01*
X4034817Y1838248D02*
G01*
X4034817Y3747490D01*
X3845308Y3937000D01*
X4069082Y-1135634D02*
G01*
X4034817Y-1101369D01*
X4034817Y1838248D01*
X4231109Y1838248D02*
G01*
X4034817Y1838248D01*
X4069082Y-1435100D02*
G01*
X4069082Y-1135634D01*
X7011799Y7448118D02*
G01*
X6780075Y7216394D01*
X6780075Y2121382D01*
X7063209Y1838248D01*
D10*
X4584702Y6426200D02*
G01*
X5075786Y5935116D01*
X5075786Y3005581D01*
X8936027Y-854659D01*
X9359445Y-854659D01*
X9697722Y-1192936D01*
X9697722Y-1435100D02*
G01*
X9697722Y-1192936D01*
D11*
X8902727Y-330707D02*
G01*
X8902727Y-231724D01*
X9103972Y-30479D01*
X10147302Y-30479D01*
D10*
X4584702Y4902200D02*
G01*
X4343605Y4661103D01*
X4343605Y4086580D01*
X8112203Y139700D02*
G01*
X5186225Y3065678D01*
X5186225Y4648200D01*
D12*
G01*
X8564879Y7512050D03*
G01*
X9062720Y7512050D03*
G01*
X4566920Y-1435100D03*
G01*
X4069079Y-1435100D03*
G01*
X2303779Y7505700D03*
G01*
X2801620Y7505700D03*
D13*
G01*
X1276350Y2392781D03*
G01*
X1276350Y2890621D03*
D12*
G01*
X7548879Y7512050D03*
G01*
X8046720Y7512050D03*
G01*
X3550920Y-1435100D03*
G01*
X3053079Y-1435100D03*
D13*
G01*
X1276350Y6444081D03*
G01*
X1276350Y6941921D03*
G01*
X1276350Y5428081D03*
G01*
X1276350Y5925921D03*
G01*
X1276350Y4412081D03*
G01*
X1276350Y4909921D03*
G01*
X1276350Y3408781D03*
G01*
X1276350Y3906621D03*
D12*
G01*
X9697720Y-1435100D03*
G01*
X9199879Y-1435100D03*
D13*
G01*
X10147300Y7132320D03*
G01*
X10147300Y6634479D03*
G01*
X10147300Y6116320D03*
G01*
X10147300Y5618479D03*
G01*
X10147300Y5100320D03*
G01*
X10147300Y4602479D03*
G01*
X10147300Y4084320D03*
G01*
X10147300Y3586479D03*
G01*
X10147300Y3055620D03*
G01*
X10147300Y2557779D03*
G01*
X10147300Y2026920D03*
G01*
X10147300Y1529079D03*
G01*
X10147300Y998220D03*
G01*
X10147300Y500379D03*
G01*
X10147300Y-30479D03*
G01*
X10147300Y-528320D03*
D12*
G01*
X5570220Y-1435100D03*
G01*
X5072379Y-1435100D03*
D13*
G01*
X1276350Y1364081D03*
G01*
X1276350Y1861921D03*
G01*
X1276350Y347979D03*
G01*
X1276350Y845820D03*
G01*
X1276350Y-668020D03*
G01*
X1276350Y-170179D03*
D12*
G01*
X2522220Y-1435100D03*
G01*
X2024379Y-1435100D03*
G01*
X8669020Y-1435100D03*
G01*
X8171179Y-1435100D03*
G01*
X7640320Y-1435100D03*
G01*
X7142479Y-1435100D03*
G01*
X6611620Y-1435100D03*
G01*
X6113779Y-1435100D03*
G01*
X3319779Y7512050D03*
G01*
X3817620Y7512050D03*
D14*
G01*
X2377693Y3937000D03*
G01*
X2727706Y3937000D03*
G01*
X3845306Y3937000D03*
G01*
X3495293Y3937000D03*
D15*
G01*
X5155717Y1233246D03*
G01*
X5156708Y1487271D03*
D16*
G01*
X5155717Y979246D03*
D15*
G01*
X7987817Y1233246D03*
G01*
X7988808Y1487271D03*
D16*
G01*
X7987817Y979246D03*
D17*
G01*
X6362674Y-411403D03*
G01*
X6616700Y-412394D03*
D18*
G01*
X6108700Y-411403D03*
D17*
G01*
X8915425Y6679692D03*
G01*
X8661400Y6680682D03*
D18*
G01*
X9169425Y6679692D03*
D17*
G01*
X8915425Y5701817D03*
G01*
X8661400Y5702807D03*
D18*
G01*
X9169425Y5701817D03*
D17*
G01*
X8915425Y4723917D03*
G01*
X8661400Y4724907D03*
D18*
G01*
X9169425Y4723917D03*
D17*
G01*
X8915425Y3746017D03*
G01*
X8661400Y3747007D03*
D18*
G01*
X9169425Y3746017D03*
D17*
G01*
X8915425Y2768117D03*
G01*
X8661400Y2769107D03*
D18*
G01*
X9169425Y2768117D03*
D17*
G01*
X8915425Y1790217D03*
G01*
X8661400Y1791207D03*
D18*
G01*
X9169425Y1790217D03*
D17*
G01*
X8928125Y812292D03*
G01*
X8674100Y813282D03*
D18*
G01*
X9182125Y812292D03*
D17*
G01*
X8902725Y-330707D03*
G01*
X8648700Y-329717D03*
D18*
G01*
X9156725Y-330707D03*
D19*
G01*
X4231106Y1838248D03*
G01*
X4431106Y1238250D03*
G01*
X4231106Y638251D03*
G01*
X3011093Y638251D03*
G01*
X3011093Y1838248D03*
G01*
X7063206Y1838248D03*
G01*
X7263206Y1238250D03*
G01*
X7063206Y638251D03*
G01*
X5843193Y638251D03*
G01*
X5843193Y1838248D03*
D20*
G01*
X4584700Y2870200D03*
G01*
X4584700Y3124200D03*
G01*
X4584700Y3378200D03*
G01*
X4584700Y3632200D03*
G01*
X4584700Y3886200D03*
G01*
X4584700Y4140200D03*
G01*
X4584700Y4394200D03*
G01*
X4584700Y4648200D03*
G01*
X4584700Y4902200D03*
G01*
X4584700Y5156200D03*
G01*
X4584700Y5410200D03*
G01*
X4584700Y5664200D03*
G01*
X4584700Y5918200D03*
G01*
X4584700Y6172200D03*
G01*
X4584700Y6426200D03*
G01*
X4584700Y6680200D03*
G01*
X4584700Y6934200D03*
G01*
X4584700Y7188200D03*
G01*
X4584700Y7454900D03*
G01*
X7011797Y7448118D03*
G01*
X7011797Y7194118D03*
G01*
X7011797Y6940118D03*
G01*
X7011797Y6686118D03*
G01*
X7011797Y6432118D03*
G01*
X7011797Y6178118D03*
G01*
X7011797Y5924118D03*
G01*
X7011797Y5670118D03*
G01*
X7011797Y5416118D03*
G01*
X7011797Y5162118D03*
G01*
X7011797Y4908118D03*
G01*
X7011797Y4654118D03*
G01*
X7011797Y4400118D03*
G01*
X7011797Y4146118D03*
G01*
X7011797Y3892118D03*
G01*
X7011797Y3638118D03*
G01*
X7011797Y3384118D03*
G01*
X7011797Y3130118D03*
G01*
X7011797Y2876118D03*
D21*
G01*
X3196615Y5339029D03*
G01*
X6904405Y3273856D03*
G01*
X5496915Y5723381D03*
G01*
X6923811Y5582132D03*
G01*
X5058486Y763727D03*
G01*
X7362723Y801471D03*
G01*
X5476290Y339725D03*
G01*
X4755870Y3418052D03*
G01*
X4237532Y3654958D03*
G01*
X4479391Y5502173D03*
D22*
G01*
X2358593Y2390902D03*
G01*
X2791434Y4599787D03*
D21*
G01*
X3193338Y5456173D03*
G01*
X5000853Y5876366D03*
G01*
X4727295Y5805881D03*
G01*
X2126640Y293115D03*
G01*
X2951302Y3245230D03*
G01*
X3963161Y4237177D03*
G01*
X3321405Y5397601D03*
G01*
X4048734Y4145153D03*
G01*
X4344161Y3331921D03*
D22*
G01*
X2359634Y2086406D03*
G01*
X2727706Y1739036D03*
D21*
G01*
X4343603Y4086580D03*
G01*
X8112201Y139700D03*
G01*
X5186222Y4648200D03*
M02*
