G04 Layer: TopPasteMaskLayer*
G04 EasyEDA v6.5.46, 2026-04-16 10:20:31*
G04 Gerber Generator version 0.2*
G04 Scale: 100 percent, Rotated: No, Reflected: No *
G04 Dimensions in millimeters *
G04 leading zeros omitted , absolute positions ,4 integer and 5 decimal *
%FSLAX45Y45*%
%MOMM*%

%AMMACRO1*21,1,$1,$2,0,0,$3*%
%ADD10R,1.2000X1.2000*%
%ADD11R,5.7000X2.2000*%
%ADD12MACRO1,10.4312X7.8305X0.0000*%
%ADD13R,1.0200X3.7000*%

%LPD*%
G36*
X2907893Y3434486D02*
G01*
X2902915Y3429508D01*
X2902915Y3301492D01*
X2907893Y3296513D01*
X3022904Y3296513D01*
X3027883Y3301492D01*
X3027426Y3343503D01*
X2983382Y3343503D01*
X2983382Y3388512D01*
X3028391Y3388512D01*
X3027883Y3429508D01*
X3022904Y3434486D01*
G37*
G36*
X3123895Y3434486D02*
G01*
X3118916Y3429508D01*
X3119374Y3387496D01*
X3163417Y3387496D01*
X3163417Y3342487D01*
X3118408Y3342487D01*
X3118916Y3301492D01*
X3123895Y3296513D01*
X3238906Y3296513D01*
X3243884Y3301492D01*
X3243884Y3429508D01*
X3238906Y3434486D01*
G37*
G36*
X2094992Y3357727D02*
G01*
X2090013Y3352698D01*
X2090013Y3237687D01*
X2094992Y3232708D01*
X2137003Y3233216D01*
X2137003Y3277209D01*
X2182012Y3277209D01*
X2182012Y3232200D01*
X2223008Y3232708D01*
X2227986Y3237687D01*
X2227986Y3352698D01*
X2223008Y3357727D01*
G37*
G36*
X2094992Y3142691D02*
G01*
X2090013Y3137712D01*
X2090013Y3022701D01*
X2094992Y3017723D01*
X2223008Y3017723D01*
X2227986Y3022701D01*
X2227986Y3137712D01*
X2223008Y3142691D01*
X2182012Y3142183D01*
X2182012Y3098190D01*
X2137003Y3098190D01*
X2137003Y3142691D01*
G37*
G36*
X2123287Y2106015D02*
G01*
X2082292Y2105507D01*
X2077313Y2100529D01*
X2077313Y1985518D01*
X2082292Y1980539D01*
X2210308Y1980539D01*
X2215286Y1985518D01*
X2215286Y2100529D01*
X2210308Y2105507D01*
X2168296Y2105050D01*
X2168296Y2061057D01*
X2123287Y2061057D01*
G37*
G36*
X2082292Y2320544D02*
G01*
X2077313Y2315514D01*
X2077313Y2200554D01*
X2082292Y2195525D01*
X2123287Y2196033D01*
X2123287Y2240026D01*
X2168296Y2240026D01*
X2168296Y2195525D01*
X2210308Y2195525D01*
X2215286Y2200554D01*
X2215286Y2315514D01*
X2210308Y2320544D01*
G37*
G36*
X2135987Y1068882D02*
G01*
X2094992Y1068374D01*
X2090013Y1063345D01*
X2090013Y948385D01*
X2094992Y943356D01*
X2223008Y943356D01*
X2227986Y948385D01*
X2227986Y1063345D01*
X2223008Y1068374D01*
X2180996Y1067866D01*
X2180996Y1023874D01*
X2135987Y1023874D01*
G37*
G36*
X2094992Y1283360D02*
G01*
X2090013Y1278382D01*
X2090013Y1163370D01*
X2094992Y1158341D01*
X2135987Y1158849D01*
X2135987Y1202842D01*
X2180996Y1202842D01*
X2180996Y1158392D01*
X2223008Y1158341D01*
X2227986Y1163370D01*
X2227986Y1278382D01*
X2223008Y1283360D01*
G37*
G36*
X2135987Y31699D02*
G01*
X2094992Y31191D01*
X2090013Y26212D01*
X2090013Y-88798D01*
X2094992Y-93827D01*
X2223008Y-93827D01*
X2227986Y-88798D01*
X2227986Y26212D01*
X2223008Y31191D01*
X2180996Y30683D01*
X2180996Y-13309D01*
X2135987Y-13309D01*
G37*
G36*
X2094992Y246176D02*
G01*
X2090013Y241198D01*
X2090013Y126187D01*
X2094992Y121208D01*
X2135987Y121716D01*
X2135987Y165709D01*
X2180996Y165709D01*
X2180996Y121208D01*
X2223008Y121208D01*
X2227986Y126187D01*
X2227986Y241198D01*
X2223008Y246176D01*
G37*
G36*
X2133701Y-591413D02*
G01*
X2128672Y-596392D01*
X2128672Y-724408D01*
X2133701Y-729386D01*
X2248712Y-729386D01*
X2253691Y-724408D01*
X2253183Y-682396D01*
X2209190Y-682396D01*
X2209190Y-637387D01*
X2254199Y-637387D01*
X2253691Y-596392D01*
X2248712Y-591413D01*
G37*
G36*
X2348687Y-591413D02*
G01*
X2343708Y-596392D01*
X2344216Y-637387D01*
X2388209Y-637387D01*
X2388209Y-682396D01*
X2343708Y-682396D01*
X2343708Y-724408D01*
X2348687Y-729386D01*
X2463698Y-729386D01*
X2468676Y-724408D01*
X2468676Y-596392D01*
X2463698Y-591413D01*
G37*
G36*
X4953101Y513486D02*
G01*
X4948072Y508508D01*
X4948072Y380492D01*
X4953101Y375513D01*
X5068112Y375513D01*
X5073091Y380492D01*
X5072583Y422503D01*
X5028590Y422503D01*
X5028590Y467512D01*
X5073599Y467512D01*
X5073091Y508508D01*
X5068112Y513486D01*
G37*
G36*
X5168087Y513486D02*
G01*
X5163108Y508508D01*
X5163616Y467512D01*
X5207609Y467512D01*
X5207609Y422503D01*
X5163108Y422503D01*
X5163108Y380492D01*
X5168087Y375513D01*
X5283098Y375513D01*
X5288076Y380492D01*
X5288076Y508508D01*
X5283098Y513486D01*
G37*
G36*
X7785201Y488086D02*
G01*
X7780172Y483108D01*
X7780172Y355092D01*
X7785201Y350113D01*
X7900212Y350113D01*
X7905191Y355092D01*
X7904683Y397103D01*
X7860690Y397103D01*
X7860690Y442112D01*
X7905699Y442112D01*
X7905191Y483108D01*
X7900212Y488086D01*
G37*
G36*
X8000187Y488086D02*
G01*
X7995208Y483108D01*
X7995716Y442112D01*
X8039709Y442112D01*
X8039709Y397103D01*
X7995208Y397103D01*
X7995208Y355092D01*
X8000187Y350113D01*
X8115198Y350113D01*
X8120176Y355092D01*
X8120176Y483108D01*
X8115198Y488086D01*
G37*
G36*
X5514187Y-438200D02*
G01*
X5473192Y-438708D01*
X5468213Y-443687D01*
X5468213Y-558698D01*
X5473192Y-563727D01*
X5601208Y-563727D01*
X5606186Y-558698D01*
X5606186Y-443687D01*
X5601208Y-438708D01*
X5559196Y-439216D01*
X5559196Y-483209D01*
X5514187Y-483209D01*
G37*
G36*
X5473192Y-223723D02*
G01*
X5468213Y-228701D01*
X5468213Y-343712D01*
X5473192Y-348691D01*
X5514187Y-348183D01*
X5514187Y-304190D01*
X5559196Y-304190D01*
X5559196Y-348691D01*
X5601208Y-348691D01*
X5606186Y-343712D01*
X5606186Y-228701D01*
X5601208Y-223723D01*
G37*
G36*
X7836001Y6736486D02*
G01*
X7830972Y6731508D01*
X7830972Y6603492D01*
X7836001Y6598513D01*
X7951012Y6598513D01*
X7955991Y6603492D01*
X7955483Y6645503D01*
X7911490Y6645503D01*
X7911490Y6690512D01*
X7956499Y6690512D01*
X7955991Y6731508D01*
X7951012Y6736486D01*
G37*
G36*
X8050987Y6736486D02*
G01*
X8046008Y6731508D01*
X8046516Y6690512D01*
X8090509Y6690512D01*
X8090509Y6645503D01*
X8046008Y6645503D01*
X8046008Y6603492D01*
X8050987Y6598513D01*
X8165998Y6598513D01*
X8170976Y6603492D01*
X8170976Y6731508D01*
X8165998Y6736486D01*
G37*
G36*
X7842351Y5898286D02*
G01*
X7837322Y5893308D01*
X7837322Y5765292D01*
X7842351Y5760313D01*
X7957362Y5760313D01*
X7962341Y5765292D01*
X7961833Y5807303D01*
X7917840Y5807303D01*
X7917840Y5852312D01*
X7962849Y5852312D01*
X7962341Y5893308D01*
X7957362Y5898286D01*
G37*
G36*
X8057337Y5898286D02*
G01*
X8052358Y5893308D01*
X8052866Y5852312D01*
X8096859Y5852312D01*
X8096859Y5807303D01*
X8052358Y5807303D01*
X8052358Y5765292D01*
X8057337Y5760313D01*
X8172348Y5760313D01*
X8177326Y5765292D01*
X8177326Y5893308D01*
X8172348Y5898286D01*
G37*
G36*
X7842351Y4894986D02*
G01*
X7837322Y4890008D01*
X7837322Y4761992D01*
X7842351Y4757013D01*
X7957362Y4757013D01*
X7962341Y4761992D01*
X7961833Y4804003D01*
X7917840Y4804003D01*
X7917840Y4849012D01*
X7962849Y4849012D01*
X7962341Y4890008D01*
X7957362Y4894986D01*
G37*
G36*
X8057337Y4894986D02*
G01*
X8052358Y4890008D01*
X8052866Y4849012D01*
X8096859Y4849012D01*
X8096859Y4804003D01*
X8052358Y4804003D01*
X8052358Y4761992D01*
X8057337Y4757013D01*
X8172348Y4757013D01*
X8177326Y4761992D01*
X8177326Y4890008D01*
X8172348Y4894986D01*
G37*
G36*
X7842351Y4031386D02*
G01*
X7837322Y4026408D01*
X7837322Y3898392D01*
X7842351Y3893413D01*
X7957362Y3893413D01*
X7962341Y3898392D01*
X7961833Y3940403D01*
X7917840Y3940403D01*
X7917840Y3985412D01*
X7962849Y3985412D01*
X7962341Y4026408D01*
X7957362Y4031386D01*
G37*
G36*
X8057337Y4031386D02*
G01*
X8052358Y4026408D01*
X8052866Y3985412D01*
X8096859Y3985412D01*
X8096859Y3940403D01*
X8052358Y3940403D01*
X8052358Y3898392D01*
X8057337Y3893413D01*
X8172348Y3893413D01*
X8177326Y3898392D01*
X8177326Y4026408D01*
X8172348Y4031386D01*
G37*
G36*
X7842351Y3066186D02*
G01*
X7837322Y3061208D01*
X7837322Y2933192D01*
X7842351Y2928213D01*
X7957362Y2928213D01*
X7962341Y2933192D01*
X7961833Y2975203D01*
X7917840Y2975203D01*
X7917840Y3020212D01*
X7962849Y3020212D01*
X7962341Y3061208D01*
X7957362Y3066186D01*
G37*
G36*
X8057337Y3066186D02*
G01*
X8052358Y3061208D01*
X8052866Y3020212D01*
X8096859Y3020212D01*
X8096859Y2975203D01*
X8052358Y2975203D01*
X8052358Y2933192D01*
X8057337Y2928213D01*
X8172348Y2928213D01*
X8177326Y2933192D01*
X8177326Y3061208D01*
X8172348Y3066186D01*
G37*
G36*
X9042501Y2316886D02*
G01*
X9037472Y2311908D01*
X9037472Y2183892D01*
X9042501Y2178913D01*
X9157512Y2178913D01*
X9162491Y2183892D01*
X9161983Y2225903D01*
X9117990Y2225903D01*
X9117990Y2270912D01*
X9162999Y2270912D01*
X9162491Y2311908D01*
X9157512Y2316886D01*
G37*
G36*
X9257487Y2316886D02*
G01*
X9252508Y2311908D01*
X9253016Y2270912D01*
X9297009Y2270912D01*
X9297009Y2225903D01*
X9252508Y2225903D01*
X9252508Y2183892D01*
X9257487Y2178913D01*
X9372498Y2178913D01*
X9377476Y2183892D01*
X9377476Y2311908D01*
X9372498Y2316886D01*
G37*
G36*
X9055201Y1338986D02*
G01*
X9050172Y1334008D01*
X9050172Y1205992D01*
X9055201Y1201013D01*
X9170212Y1201013D01*
X9175191Y1205992D01*
X9174683Y1248003D01*
X9130690Y1248003D01*
X9130690Y1293012D01*
X9175699Y1293012D01*
X9175191Y1334008D01*
X9170212Y1338986D01*
G37*
G36*
X9270187Y1338986D02*
G01*
X9265208Y1334008D01*
X9265716Y1293012D01*
X9309709Y1293012D01*
X9309709Y1248003D01*
X9265208Y1248003D01*
X9265208Y1205992D01*
X9270187Y1201013D01*
X9385198Y1201013D01*
X9390176Y1205992D01*
X9390176Y1334008D01*
X9385198Y1338986D01*
G37*
G36*
X9067901Y208686D02*
G01*
X9062872Y203708D01*
X9062872Y75692D01*
X9067901Y70713D01*
X9182912Y70713D01*
X9187891Y75692D01*
X9187383Y117703D01*
X9143390Y117703D01*
X9143390Y162712D01*
X9188399Y162712D01*
X9187891Y203708D01*
X9182912Y208686D01*
G37*
G36*
X9282887Y208686D02*
G01*
X9277908Y203708D01*
X9278416Y162712D01*
X9322409Y162712D01*
X9322409Y117703D01*
X9277908Y117703D01*
X9277908Y75692D01*
X9282887Y70713D01*
X9397898Y70713D01*
X9402876Y75692D01*
X9402876Y203708D01*
X9397898Y208686D01*
G37*
D10*
G01*
X2628900Y2830499D03*
G01*
X2628900Y2503500D03*
D11*
G01*
X3340100Y2472410D03*
G01*
X3340100Y2912389D03*
D12*
G01*
X3086100Y5964759D03*
D13*
G01*
X3426104Y4906441D03*
G01*
X3256102Y4906441D03*
G01*
X3086100Y4906441D03*
G01*
X2916097Y4906441D03*
G01*
X2746095Y4906441D03*
M02*
